<svg xmlns="http://www.w3.org/2000/svg" xmlns:xlink="http://www.w3.org/1999/xlink" width="40" zoomAndPan="magnify" viewBox="0 0 30 30.000001" height="40" preserveAspectRatio="xMidYMid meet" version="1.0"><defs><clipPath id="12ef13d33e"><path d="M 0.484375 0 L 29.515625 0 L 29.515625 29.03125 L 0.484375 29.03125 Z M 0.484375 0 " clip-rule="nonzero"/></clipPath><clipPath id="97759ef23c"><path d="M 14 11 L 27.957031 11 L 27.957031 25 L 14 25 Z M 14 11 " clip-rule="nonzero"/></clipPath><clipPath id="34660579dc"><path d="M 14.09375 11.128906 L 27.523438 11.128906 L 27.523438 24.367188 L 14.09375 24.367188 Z M 14.09375 11.128906 " clip-rule="nonzero"/></clipPath></defs><g clip-path="url(#12ef13d33e)"><path fill="#ffffff" d="M 0.484375 0 L 29.515625 0 L 29.515625 29.03125 L 0.484375 29.03125 Z M 0.484375 0 " fill-opacity="1" fill-rule="nonzero"/><path fill="#ffffff" d="M 0.484375 0 L 29.515625 0 L 29.515625 29.03125 L 0.484375 29.03125 Z M 0.484375 0 " fill-opacity="1" fill-rule="nonzero"/></g><g clip-path="url(#97759ef23c)"><path fill="#928072" d="M 14.296875 22.816406 C 15.597656 22.917969 16.863281 22.375 17.988281 21.710938 C 19.054688 21.082031 20.085938 20.292969 20.625 19.171875 C 21.554688 17.226562 20.671875 14.714844 21.757812 12.90625 C 22.023438 12.46875 22.320312 12.039062 22.734375 11.734375 C 24.140625 10.707031 25.867188 11.441406 26.652344 12.816406 C 27.203125 13.773438 27.957031 16.621094 26.730469 17.386719 C 25.332031 18.257812 25.277344 16.304688 25.296875 15.542969 C 25.308594 15.085938 25.167969 14.582031 24.785156 14.34375 C 24.507812 14.171875 24.128906 14.179688 23.859375 14.363281 C 23.207031 14.800781 23.285156 16.007812 23.292969 16.683594 C 23.316406 19.632812 22.160156 22.457031 19.386719 23.710938 C 17.765625 24.441406 15.824219 24.414062 14.222656 23.636719 L 14.296875 22.816406 " fill-opacity="1" fill-rule="nonzero"/></g><g clip-path="url(#34660579dc)"><path fill="#000000" d="M 14.296875 22.925781 C 16.09375 23.035156 17.914062 22.066406 19.28125 20.960938 C 19.925781 20.4375 20.488281 19.796875 20.808594 19.019531 C 21.136719 18.226562 21.195312 17.355469 21.226562 16.507812 C 21.253906 15.617188 21.238281 14.707031 21.480469 13.839844 C 21.730469 12.941406 22.347656 11.984375 23.207031 11.578125 C 24.789062 10.832031 26.332031 12.085938 26.859375 13.542969 C 27.085938 14.171875 27.246094 14.84375 27.277344 15.515625 C 27.304688 16.109375 27.253906 16.871094 26.734375 17.257812 C 26.515625 17.414062 26.167969 17.585938 25.898438 17.449219 C 25.667969 17.332031 25.570312 17.042969 25.511719 16.808594 C 25.375 16.277344 25.457031 15.75 25.386719 15.21875 C 25.300781 14.582031 24.828125 13.980469 24.128906 14.132812 C 23.507812 14.269531 23.285156 14.914062 23.214844 15.480469 C 23.121094 16.21875 23.210938 16.972656 23.144531 17.71875 C 23.070312 18.507812 22.902344 19.296875 22.621094 20.039062 C 21.957031 21.804688 20.585938 23.230469 18.792969 23.824219 C 17.738281 24.175781 16.589844 24.226562 15.503906 23.972656 C 15.230469 23.910156 14.957031 23.828125 14.695312 23.726562 C 14.644531 23.703125 14.300781 23.5625 14.332031 23.628906 C 14.320312 23.605469 14.34375 23.558594 14.339844 23.53125 C 14.304688 23.316406 14.386719 23.035156 14.40625 22.816406 C 14.417969 22.675781 14.203125 22.679688 14.191406 22.816406 C 14.164062 23.089844 14.140625 23.363281 14.113281 23.636719 C 14.109375 23.671875 14.136719 23.714844 14.167969 23.730469 C 15.820312 24.511719 17.765625 24.558594 19.441406 23.804688 C 20.863281 23.160156 21.984375 22.003906 22.628906 20.578125 C 23.28125 19.148438 23.382812 17.667969 23.394531 16.121094 C 23.394531 15.765625 23.414062 15.40625 23.515625 15.066406 C 23.691406 14.496094 24.324219 14.027344 24.859375 14.539062 C 25.335938 14.996094 25.152344 15.808594 25.222656 16.40625 C 25.269531 16.808594 25.359375 17.324219 25.707031 17.582031 C 26.09375 17.871094 26.644531 17.636719 26.964844 17.34375 C 27.839844 16.546875 27.5 14.917969 27.214844 13.933594 C 26.84375 12.664062 26.046875 11.472656 24.675781 11.195312 C 23.03125 10.863281 21.722656 12.25 21.285156 13.730469 C 20.710938 15.691406 21.429688 17.921875 20.191406 19.695312 C 19.570312 20.585938 18.644531 21.21875 17.714844 21.742188 C 16.667969 22.335938 15.519531 22.78125 14.296875 22.707031 C 14.160156 22.699219 14.160156 22.917969 14.296875 22.925781 " fill-opacity="1" fill-rule="nonzero"/></g><path fill="#ffffff" d="M 5.699219 17.496094 C 5.015625 17.339844 4.3125 17.398438 3.839844 17.875 C 3.472656 18.238281 3.242188 18.71875 3.085938 19.210938 C 2.390625 21.382812 3.371094 23.882812 4.632812 25.644531 C 4.066406 25.738281 1.828125 27.1875 3.132812 27.398438 C 4.40625 27.605469 5.863281 27.554688 7.144531 27.460938 C 7.660156 27.425781 8.207031 27.351562 8.597656 27.015625 C 8.808594 26.835938 8.953125 26.59375 9.074219 26.347656 C 9.617188 25.25 9.75 23.976562 9.570312 22.761719 C 9.332031 21.175781 8.570312 19.585938 7.445312 18.4375 C 7.046875 18.03125 6.382812 17.65625 5.699219 17.496094 " fill-opacity="1" fill-rule="nonzero"/><path fill="#000000" d="M 5.050781 17.199219 C 4.496094 17.199219 4.023438 17.378906 3.6875 17.71875 C 3.335938 18.070312 3.074219 18.535156 2.878906 19.144531 C 2.546875 20.191406 2.558594 21.367188 2.917969 22.640625 C 3.253906 23.832031 3.820312 24.835938 4.289062 25.53125 C 4 25.652344 3.65625 25.855469 3.390625 26.042969 C 2.808594 26.453125 2.515625 26.8125 2.515625 27.109375 C 2.515625 27.261719 2.589844 27.53125 3.097656 27.613281 C 3.703125 27.714844 4.378906 27.761719 5.167969 27.761719 C 5.75 27.761719 6.382812 27.734375 7.160156 27.679688 C 7.691406 27.640625 8.289062 27.570312 8.738281 27.179688 C 8.996094 26.960938 9.15625 26.671875 9.269531 26.445312 C 9.796875 25.375 9.980469 24.054688 9.78125 22.730469 C 9.535156 21.070312 8.738281 19.449219 7.597656 18.285156 C 7.148438 17.828125 6.441406 17.445312 5.746094 17.285156 C 5.507812 17.230469 5.273438 17.199219 5.050781 17.199219 Z M 5.050781 17.417969 C 5.265625 17.417969 5.484375 17.445312 5.699219 17.496094 C 6.382812 17.65625 7.046875 18.03125 7.445312 18.4375 C 8.570312 19.585938 9.332031 21.175781 9.570312 22.761719 C 9.75 23.976562 9.617188 25.25 9.074219 26.347656 C 8.953125 26.59375 8.808594 26.835938 8.597656 27.015625 C 8.207031 27.351562 7.660156 27.425781 7.144531 27.460938 C 6.515625 27.507812 5.839844 27.542969 5.167969 27.542969 C 4.472656 27.542969 3.777344 27.503906 3.132812 27.398438 C 1.828125 27.1875 4.066406 25.738281 4.632812 25.644531 C 3.371094 23.882812 2.390625 21.382812 3.085938 19.210938 C 3.242188 18.71875 3.472656 18.238281 3.839844 17.875 C 4.164062 17.550781 4.59375 17.417969 5.050781 17.417969 " fill-opacity="1" fill-rule="nonzero"/><path fill="#ffffff" d="M 17.152344 17.496094 C 17.835938 17.339844 18.539062 17.398438 19.011719 17.875 C 19.378906 18.238281 19.609375 18.71875 19.765625 19.210938 C 20.460938 21.382812 19.480469 23.882812 18.21875 25.644531 C 18.785156 25.738281 21.023438 27.1875 19.71875 27.398438 C 18.449219 27.605469 16.988281 27.554688 15.707031 27.460938 C 15.191406 27.425781 14.644531 27.351562 14.253906 27.015625 C 14.042969 26.835938 13.898438 26.59375 13.777344 26.347656 C 13.234375 25.25 13.101562 23.976562 13.28125 22.761719 C 13.519531 21.175781 14.28125 19.585938 15.40625 18.4375 C 15.804688 18.03125 16.46875 17.65625 17.152344 17.496094 " fill-opacity="1" fill-rule="nonzero"/><path fill="#000000" d="M 17.800781 17.199219 C 17.578125 17.199219 17.34375 17.230469 17.105469 17.285156 C 16.410156 17.445312 15.703125 17.828125 15.253906 18.285156 C 14.113281 19.449219 13.316406 21.070312 13.070312 22.730469 C 12.871094 24.054688 13.054688 25.375 13.582031 26.445312 C 13.695312 26.671875 13.859375 26.960938 14.113281 27.179688 C 14.5625 27.570312 15.164062 27.640625 15.691406 27.679688 C 16.46875 27.734375 17.101562 27.761719 17.683594 27.761719 C 18.472656 27.761719 19.148438 27.714844 19.753906 27.613281 C 19.972656 27.578125 20.335938 27.46875 20.335938 27.109375 C 20.339844 26.8125 20.042969 26.453125 19.460938 26.042969 C 19.195312 25.855469 18.851562 25.652344 18.5625 25.53125 C 19.03125 24.835938 19.597656 23.832031 19.933594 22.640625 C 20.292969 21.367188 20.308594 20.191406 19.972656 19.144531 C 19.777344 18.535156 19.515625 18.070312 19.164062 17.71875 C 18.828125 17.378906 18.355469 17.199219 17.800781 17.199219 Z M 17.800781 17.417969 C 18.257812 17.417969 18.691406 17.550781 19.011719 17.875 C 19.378906 18.238281 19.609375 18.71875 19.765625 19.210938 C 20.460938 21.382812 19.480469 23.882812 18.21875 25.644531 C 18.785156 25.738281 21.023438 27.1875 19.71875 27.398438 C 19.074219 27.503906 18.378906 27.542969 17.683594 27.542969 C 17.011719 27.542969 16.335938 27.507812 15.707031 27.460938 C 15.191406 27.425781 14.644531 27.351562 14.253906 27.015625 C 14.042969 26.835938 13.898438 26.59375 13.777344 26.347656 C 13.234375 25.25 13.101562 23.976562 13.28125 22.761719 C 13.519531 21.175781 14.28125 19.585938 15.40625 18.4375 C 15.804688 18.03125 16.46875 17.65625 17.152344 17.496094 C 17.367188 17.445312 17.585938 17.417969 17.800781 17.417969 " fill-opacity="1" fill-rule="nonzero"/><path fill="#ffffff" d="M 4.796875 8.871094 C 4.894531 8.855469 4.835938 11.050781 4.835938 11.222656 C 4.832031 13.574219 4.472656 15.882812 4.136719 18.179688 C 3.855469 20.117188 3.28125 22.398438 4.085938 24.296875 C 4.53125 25.347656 5.347656 26.101562 6.226562 26.5625 C 8.0625 27.53125 10.066406 27.914062 12.027344 27.851562 C 13.796875 27.796875 15.917969 27.519531 17.367188 26.207031 C 18.722656 24.976562 18.894531 22.761719 18.921875 20.808594 C 18.957031 18.59375 18.679688 16.378906 18.398438 14.183594 C 18.121094 11.996094 17.847656 9.808594 17.566406 7.621094 C 17.484375 6.972656 17.503906 6.707031 16.984375 6.722656 C 16.765625 6.730469 16.542969 6.800781 16.328125 6.839844 C 14.726562 7.121094 13.125 7.402344 11.519531 7.6875 C 9.304688 8.078125 7.039062 8.699219 4.796875 8.871094 " fill-opacity="1" fill-rule="nonzero"/><path fill="#000000" d="M 17.027344 6.503906 C 17.011719 6.503906 16.992188 6.503906 16.976562 6.503906 C 16.8125 6.511719 16.652344 6.546875 16.496094 6.582031 C 16.425781 6.597656 16.355469 6.613281 16.289062 6.625 L 11.484375 7.472656 C 10.742188 7.601562 9.988281 7.761719 9.253906 7.914062 C 7.789062 8.222656 6.269531 8.539062 4.789062 8.652344 L 4.78125 8.652344 L 4.761719 8.65625 L 4.789062 8.878906 L 4.796875 9.089844 C 4.691406 9.089844 4.621094 9.011719 4.605469 8.957031 C 4.628906 9.046875 4.652344 9.476562 4.625 11.023438 C 4.621094 11.125 4.621094 11.195312 4.621094 11.222656 C 4.617188 13.410156 4.296875 15.597656 3.988281 17.714844 L 3.921875 18.148438 C 3.882812 18.4375 3.832031 18.730469 3.78125 19.039062 C 3.5 20.761719 3.179688 22.710938 3.886719 24.382812 C 4.308594 25.375 5.101562 26.214844 6.128906 26.753906 C 7.789062 27.632812 9.640625 28.078125 11.628906 28.078125 C 11.761719 28.078125 11.898438 28.074219 12.035156 28.070312 C 13.632812 28.019531 15.941406 27.789062 17.511719 26.367188 C 18.886719 25.121094 19.109375 22.960938 19.140625 20.8125 C 19.171875 18.550781 18.890625 16.316406 18.613281 14.15625 C 18.523438 13.425781 18.429688 12.695312 18.335938 11.96875 C 18.15625 10.535156 17.96875 9.050781 17.78125 7.59375 C 17.773438 7.535156 17.765625 7.480469 17.757812 7.425781 C 17.699219 6.910156 17.648438 6.503906 17.027344 6.503906 M 4.796875 8.871094 L 4.796875 8.871094 M 17.027344 6.722656 C 17.503906 6.722656 17.484375 6.992188 17.566406 7.621094 C 17.847656 9.808594 18.121094 11.996094 18.398438 14.183594 C 18.679688 16.378906 18.957031 18.59375 18.921875 20.808594 C 18.894531 22.761719 18.722656 24.976562 17.367188 26.207031 C 15.917969 27.519531 13.796875 27.796875 12.027344 27.851562 C 11.894531 27.855469 11.761719 27.859375 11.628906 27.859375 C 9.796875 27.859375 7.9375 27.464844 6.226562 26.5625 C 5.347656 26.101562 4.53125 25.347656 4.085938 24.296875 C 3.28125 22.398438 3.855469 20.117188 4.136719 18.179688 C 4.472656 15.882812 4.832031 13.574219 4.835938 11.222656 C 4.835938 11.050781 4.894531 8.871094 4.796875 8.871094 C 7.039062 8.699219 9.304688 8.078125 11.519531 7.6875 C 13.125 7.402344 14.726562 7.121094 16.328125 6.839844 C 16.542969 6.800781 16.765625 6.730469 16.984375 6.722656 C 17 6.722656 17.011719 6.722656 17.027344 6.722656 " fill-opacity="1" fill-rule="nonzero"/><path fill="#928072" d="M 8.0625 3.015625 C 6.699219 2.542969 5.242188 2.347656 3.804688 2.453125 C 3.621094 2.464844 3.433594 2.488281 3.285156 2.597656 C 3.09375 2.738281 3.027344 3.003906 3.054688 3.242188 C 3.085938 3.476562 3.195312 3.695312 3.308594 3.910156 C 3.941406 5.125 4.613281 6.316406 5.320312 7.492188 L 8.0625 3.015625 " fill-opacity="1" fill-rule="nonzero"/><path fill="#000000" d="M 4.5625 2.207031 C 4.304688 2.207031 4.042969 2.21875 3.789062 2.234375 C 3.585938 2.25 3.351562 2.277344 3.15625 2.421875 C 2.917969 2.597656 2.796875 2.921875 2.839844 3.265625 C 2.875 3.550781 3.007812 3.804688 3.117188 4.011719 C 3.75 5.222656 4.429688 6.433594 5.136719 7.605469 L 5.316406 7.90625 L 5.503906 7.605469 L 8.246094 3.128906 L 8.386719 2.898438 L 8.132812 2.808594 C 6.984375 2.410156 5.78125 2.207031 4.5625 2.207031 M 4.5625 2.425781 C 5.75 2.425781 6.9375 2.625 8.0625 3.015625 L 5.320312 7.492188 C 4.613281 6.316406 3.941406 5.125 3.308594 3.910156 C 3.195312 3.695312 3.085938 3.476562 3.054688 3.242188 C 3.027344 3.003906 3.09375 2.738281 3.285156 2.597656 C 3.433594 2.488281 3.621094 2.464844 3.804688 2.453125 C 4.058594 2.433594 4.308594 2.425781 4.5625 2.425781 " fill-opacity="1" fill-rule="nonzero"/><path fill="#db907b" d="M 7.308594 4.246094 C 6.433594 3.351562 5.15625 2.945312 3.914062 2.765625 C 3.675781 2.734375 3.429688 2.707031 3.195312 2.761719 C 3.179688 2.753906 3.164062 2.75 3.148438 2.746094 C 3.0625 2.890625 3.035156 3.070312 3.054688 3.242188 C 3.085938 3.476562 3.195312 3.695312 3.308594 3.910156 C 3.941406 5.125 4.613281 6.316406 5.320312 7.492188 L 7.308594 4.246094 " fill-opacity="1" fill-rule="nonzero"/><path fill="#928072" d="M 12.71875 3.144531 C 13.621094 2.011719 14.753906 1.066406 16.023438 0.382812 C 16.1875 0.296875 16.359375 0.210938 16.539062 0.226562 C 16.777344 0.242188 16.972656 0.429688 17.074219 0.648438 C 17.175781 0.863281 17.195312 1.109375 17.214844 1.347656 C 17.320312 2.714844 17.382812 4.089844 17.402344 5.460938 L 12.71875 3.144531 " fill-opacity="1" fill-rule="nonzero"/><path fill="#000000" d="M 16.5 0.0078125 C 16.285156 0.0078125 16.089844 0.101562 15.921875 0.191406 C 14.632812 0.886719 13.46875 1.859375 12.550781 3.007812 L 12.378906 3.21875 L 12.621094 3.339844 L 17.308594 5.65625 L 17.625 5.8125 L 17.621094 5.457031 C 17.597656 4.085938 17.535156 2.699219 17.429688 1.332031 C 17.414062 1.101562 17.390625 0.8125 17.269531 0.554688 C 17.125 0.238281 16.851562 0.03125 16.554688 0.0078125 C 16.535156 0.0078125 16.519531 0.0078125 16.5 0.0078125 M 16.5 0.222656 C 16.511719 0.222656 16.527344 0.226562 16.539062 0.226562 C 16.777344 0.242188 16.972656 0.429688 17.074219 0.648438 C 17.175781 0.863281 17.195312 1.109375 17.214844 1.347656 C 17.320312 2.714844 17.382812 4.089844 17.402344 5.460938 L 12.71875 3.144531 C 13.621094 2.011719 14.753906 1.066406 16.023438 0.382812 C 16.175781 0.304688 16.332031 0.222656 16.5 0.222656 " fill-opacity="1" fill-rule="nonzero"/><path fill="#db907b" d="M 14.007812 3.78125 L 17.402344 5.460938 C 17.382812 4.089844 17.320312 2.714844 17.214844 1.347656 C 17.195312 1.109375 17.175781 0.863281 17.074219 0.648438 C 17.007812 0.503906 16.898438 0.375 16.761719 0.296875 C 16.742188 0.300781 16.722656 0.308594 16.703125 0.316406 C 16.476562 0.394531 16.28125 0.550781 16.097656 0.710938 C 15.140625 1.527344 14.273438 2.554688 14.007812 3.78125 " fill-opacity="1" fill-rule="nonzero"/><path fill="#ffffff" d="M 14.828125 13.351562 C 13.710938 13.691406 12.300781 13.726562 11.136719 13.679688 C 8.121094 13.558594 4.945312 12.273438 4.726562 8.835938 C 4.667969 7.902344 4.667969 6.953125 4.890625 6.042969 C 5.140625 5.03125 5.664062 4.074219 6.578125 3.539062 C 8.570312 2.382812 11.109375 2.0625 13.34375 2.570312 C 14.472656 2.824219 15.558594 3.316406 16.429688 4.089844 C 17.515625 5.0625 17.835938 6.375 17.929688 7.792969 C 17.941406 7.972656 17.949219 8.148438 17.957031 8.328125 C 18 9.488281 17.808594 11.128906 17 12.015625 C 16.417969 12.652344 15.644531 13.101562 14.828125 13.351562 " fill-opacity="1" fill-rule="nonzero"/><path fill="#000000" d="M 11.234375 2.117188 L 11.234375 2.335938 L 11.230469 2.117188 C 9.53125 2.117188 7.839844 2.554688 6.472656 3.351562 C 5.375 3.988281 4.894531 5.140625 4.683594 5.992188 C 4.433594 6.992188 4.460938 8.042969 4.511719 8.847656 C 4.617188 10.503906 5.375 11.796875 6.765625 12.683594 C 8.195312 13.597656 9.925781 13.847656 11.125 13.898438 C 11.402344 13.910156 11.675781 13.914062 11.933594 13.914062 C 13.121094 13.914062 14.113281 13.796875 14.890625 13.558594 C 15.789062 13.285156 16.574219 12.804688 17.15625 12.164062 C 17.550781 11.734375 17.835938 11.113281 18.007812 10.320312 C 18.140625 9.710938 18.199219 9.003906 18.171875 8.320312 C 18.164062 8.101562 18.15625 7.933594 18.144531 7.777344 C 18.089844 6.941406 17.964844 6.28125 17.753906 5.699219 C 17.496094 4.988281 17.109375 4.40625 16.574219 3.929688 C 15.738281 3.183594 14.640625 2.640625 13.390625 2.355469 C 12.695312 2.199219 11.96875 2.117188 11.234375 2.117188 M 11.230469 2.335938 C 11.949219 2.335938 12.660156 2.414062 13.34375 2.570312 C 14.472656 2.824219 15.558594 3.316406 16.429688 4.089844 C 17.515625 5.0625 17.835938 6.375 17.929688 7.792969 C 17.941406 7.972656 17.949219 8.148438 17.957031 8.328125 C 18 9.488281 17.808594 11.128906 17 12.015625 C 16.417969 12.652344 15.644531 13.101562 14.828125 13.351562 C 13.953125 13.617188 12.90625 13.699219 11.933594 13.699219 C 11.660156 13.699219 11.390625 13.691406 11.136719 13.679688 C 8.121094 13.558594 4.945312 12.273438 4.726562 8.835938 C 4.667969 7.902344 4.667969 6.953125 4.890625 6.042969 C 5.140625 5.03125 5.664062 4.074219 6.578125 3.539062 C 7.960938 2.734375 9.609375 2.335938 11.230469 2.335938 " fill-opacity="1" fill-rule="nonzero"/><path fill="#928072" d="M 4.890625 6.042969 C 4.667969 6.953125 4.667969 7.902344 4.726562 8.835938 C 4.773438 9.550781 4.945312 10.171875 5.21875 10.710938 C 5.292969 10.140625 5.289062 9.574219 5.617188 9.027344 C 6.078125 8.253906 6.648438 7.675781 7.359375 7.128906 C 8.050781 6.601562 8.703125 6.152344 9.230469 5.527344 C 9.4375 5.277344 9.625 5 9.789062 4.683594 C 10.144531 3.980469 10.359375 3.160156 10.273438 2.382812 C 8.96875 2.507812 7.691406 2.894531 6.578125 3.539062 C 5.664062 4.074219 5.140625 5.03125 4.890625 6.042969 " fill-opacity="1" fill-rule="nonzero"/><path fill="#928072" d="M 17.957031 8.328125 C 17.949219 8.148438 17.941406 7.972656 17.929688 7.792969 C 17.835938 6.375 17.515625 5.0625 16.429688 4.089844 C 15.558594 3.316406 14.472656 2.824219 13.34375 2.570312 C 12.824219 2.449219 12.289062 2.378906 11.746094 2.351562 C 11.742188 2.386719 11.738281 2.421875 11.734375 2.460938 C 11.664062 3.425781 11.777344 4.414062 12.167969 5.296875 C 12.558594 6.179688 13.242188 6.949219 14.113281 7.34375 C 14.691406 7.605469 15.328125 7.703125 15.902344 7.964844 C 16.734375 8.339844 17.410156 8.992188 17.792969 9.832031 C 17.816406 9.882812 17.835938 9.929688 17.855469 9.976562 C 17.949219 9.402344 17.976562 8.824219 17.957031 8.328125 " fill-opacity="1" fill-rule="nonzero"/><path fill="#bab17d" d="M 9.746094 7.789062 C 9.207031 8.335938 8.328125 8.382812 7.753906 7.875 C 7.410156 7.570312 7.238281 7.082031 7.316406 6.625 C 7.375 6.265625 7.582031 5.9375 7.863281 5.707031 C 8.285156 5.355469 8.949219 5.308594 9.417969 5.589844 C 9.8125 5.828125 9.980469 6.21875 10.0625 6.652344 C 10.140625 7.054688 10.03125 7.5 9.746094 7.789062 " fill-opacity="1" fill-rule="nonzero"/><path fill="#000000" d="M 9.667969 7.710938 C 9.210938 8.148438 8.515625 8.261719 7.972656 7.90625 C 7.324219 7.480469 7.246094 6.59375 7.71875 6.007812 C 8.160156 5.464844 9.007812 5.324219 9.546875 5.820312 C 10.054688 6.289062 10.125 7.195312 9.667969 7.710938 C 9.578125 7.816406 9.726562 7.972656 9.820312 7.867188 C 10.351562 7.269531 10.296875 6.269531 9.734375 5.699219 C 9.140625 5.097656 8.128906 5.203125 7.59375 5.820312 C 7.042969 6.453125 7.058594 7.433594 7.71875 7.984375 C 8.347656 8.507812 9.246094 8.414062 9.820312 7.867188 C 9.921875 7.769531 9.769531 7.617188 9.667969 7.710938 " fill-opacity="1" fill-rule="nonzero"/><path fill="#bab17d" d="M 14.667969 7.644531 C 14.128906 8.191406 13.25 8.238281 12.675781 7.730469 C 12.332031 7.425781 12.160156 6.9375 12.238281 6.480469 C 12.296875 6.121094 12.503906 5.792969 12.785156 5.5625 C 13.210938 5.210938 13.871094 5.164062 14.339844 5.445312 C 14.734375 5.683594 14.902344 6.074219 14.984375 6.507812 C 15.0625 6.910156 14.953125 7.355469 14.667969 7.644531 " fill-opacity="1" fill-rule="nonzero"/><path fill="#000000" d="M 14.589844 7.570312 C 14.132812 8.003906 13.4375 8.117188 12.894531 7.761719 C 12.246094 7.335938 12.167969 6.449219 12.640625 5.863281 C 13.082031 5.320312 13.929688 5.179688 14.46875 5.675781 C 14.976562 6.144531 15.046875 7.050781 14.589844 7.570312 C 14.5 7.671875 14.648438 7.828125 14.742188 7.722656 C 15.273438 7.125 15.21875 6.125 14.65625 5.554688 C 14.0625 4.953125 13.050781 5.058594 12.515625 5.675781 C 11.964844 6.308594 11.980469 7.289062 12.640625 7.839844 C 13.269531 8.363281 14.167969 8.269531 14.742188 7.722656 C 14.84375 7.625 14.691406 7.472656 14.589844 7.570312 " fill-opacity="1" fill-rule="nonzero"/><path fill="#db907b" d="M 12.28125 9.078125 C 12.316406 9.101562 12.355469 9.132812 12.355469 9.171875 C 12.359375 9.25 12.257812 9.273438 12.179688 9.28125 C 11.96875 9.304688 11.777344 9.4375 11.660156 9.617188 C 11.527344 9.824219 11.671875 10.121094 11.449219 10.285156 C 11.355469 10.355469 11.226562 10.359375 11.113281 10.359375 C 11.039062 10.363281 10.957031 10.359375 10.898438 10.316406 C 10.773438 10.222656 10.847656 9.835938 10.789062 9.6875 C 10.625 9.28125 10.28125 9.382812 9.960938 9.199219 C 9.941406 9.1875 9.925781 9.175781 9.921875 9.15625 C 9.921875 9.140625 9.933594 9.121094 9.949219 9.109375 C 10.246094 8.835938 10.710938 8.761719 11.105469 8.746094 C 11.511719 8.734375 11.933594 8.855469 12.28125 9.078125 " fill-opacity="1" fill-rule="nonzero"/><path fill="#000000" d="M 12.203125 9.15625 C 12.160156 9.121094 11.878906 9.265625 11.828125 9.296875 C 11.730469 9.363281 11.628906 9.457031 11.570312 9.5625 C 11.507812 9.667969 11.515625 9.765625 11.488281 9.875 C 11.4375 10.070312 11.242188 10.355469 11.027344 10.21875 C 10.914062 10.148438 10.933594 10.121094 10.925781 9.980469 C 10.914062 9.757812 10.90625 9.582031 10.742188 9.417969 C 10.539062 9.21875 10.175781 9.277344 10 9.082031 C 10.003906 9.125 10.007812 9.167969 10.015625 9.210938 C 10.179688 8.921875 10.769531 8.871094 11.054688 8.859375 C 11.472656 8.839844 11.863281 8.957031 12.226562 9.171875 C 12.34375 9.242188 12.453125 9.054688 12.335938 8.984375 C 11.875 8.710938 11.382812 8.597656 10.851562 8.65625 C 10.53125 8.691406 10.007812 8.785156 9.828125 9.101562 C 9.804688 9.144531 9.8125 9.199219 9.847656 9.234375 C 9.957031 9.359375 10.136719 9.382812 10.292969 9.429688 C 10.640625 9.542969 10.6875 9.726562 10.710938 10.0625 C 10.738281 10.402344 10.917969 10.507812 11.257812 10.460938 C 11.851562 10.378906 11.53125 9.753906 11.9375 9.484375 C 12.074219 9.398438 12.738281 9.304688 12.355469 9 C 12.246094 8.914062 12.09375 9.066406 12.203125 9.15625 " fill-opacity="1" fill-rule="nonzero"/><path fill="#000000" d="M 7.464844 9.976562 C 7.464844 9.984375 7.464844 9.992188 7.464844 10 C 7.46875 10.058594 7.515625 10.113281 7.574219 10.109375 C 7.632812 10.105469 7.683594 10.0625 7.683594 10 C 7.683594 9.992188 7.683594 9.984375 7.683594 9.976562 C 7.679688 9.921875 7.632812 9.867188 7.574219 9.871094 C 7.515625 9.871094 7.464844 9.917969 7.464844 9.976562 " fill-opacity="1" fill-rule="nonzero"/><path fill="#000000" d="M 8.195312 9.570312 C 8.195312 9.578125 8.195312 9.585938 8.195312 9.59375 C 8.199219 9.648438 8.246094 9.703125 8.304688 9.703125 C 8.363281 9.699219 8.414062 9.652344 8.414062 9.59375 C 8.414062 9.585938 8.414062 9.578125 8.414062 9.570312 C 8.410156 9.515625 8.363281 9.460938 8.304688 9.460938 C 8.246094 9.464844 8.195312 9.511719 8.195312 9.570312 " fill-opacity="1" fill-rule="nonzero"/><path fill="#000000" d="M 7.886719 10.519531 C 7.894531 10.519531 7.898438 10.519531 7.90625 10.519531 C 7.964844 10.515625 8.019531 10.46875 8.015625 10.410156 C 8.011719 10.351562 7.96875 10.300781 7.90625 10.300781 C 7.898438 10.300781 7.894531 10.300781 7.886719 10.300781 C 7.828125 10.300781 7.773438 10.351562 7.777344 10.410156 C 7.78125 10.46875 7.824219 10.519531 7.886719 10.519531 " fill-opacity="1" fill-rule="nonzero"/><path fill="#000000" d="M 8.78125 10.8125 C 8.78125 10.78125 8.78125 10.753906 8.78125 10.722656 C 8.78125 10.667969 8.730469 10.613281 8.671875 10.613281 C 8.613281 10.617188 8.5625 10.664062 8.566406 10.722656 C 8.566406 10.753906 8.566406 10.78125 8.566406 10.8125 C 8.566406 10.867188 8.613281 10.921875 8.675781 10.917969 C 8.730469 10.917969 8.78125 10.871094 8.78125 10.8125 " fill-opacity="1" fill-rule="nonzero"/><path fill="#000000" d="M 9.339844 9.871094 C 9.328125 9.878906 9.3125 9.886719 9.296875 9.894531 C 9.246094 9.921875 9.230469 9.996094 9.261719 10.042969 C 9.289062 10.097656 9.355469 10.109375 9.40625 10.082031 C 9.421875 10.074219 9.4375 10.066406 9.449219 10.058594 C 9.503906 10.03125 9.519531 9.960938 9.488281 9.910156 C 9.457031 9.859375 9.394531 9.84375 9.339844 9.871094 " fill-opacity="1" fill-rule="nonzero"/><path fill="#000000" d="M 8.464844 10.222656 C 8.472656 10.222656 8.480469 10.222656 8.488281 10.222656 C 8.542969 10.222656 8.597656 10.175781 8.59375 10.113281 C 8.59375 10.054688 8.546875 10.003906 8.488281 10.003906 C 8.480469 10.003906 8.472656 10.003906 8.464844 10.007812 C 8.410156 10.007812 8.355469 10.054688 8.359375 10.113281 C 8.359375 10.171875 8.40625 10.226562 8.464844 10.222656 " fill-opacity="1" fill-rule="nonzero"/><path fill="#000000" d="M 8.984375 9.523438 C 8.910156 9.507812 8.835938 9.554688 8.839844 9.636719 C 8.839844 9.710938 8.90625 9.769531 8.984375 9.75 C 9.039062 9.734375 9.074219 9.671875 9.058594 9.613281 C 9.042969 9.558594 8.980469 9.523438 8.925781 9.539062 L 8.921875 9.539062 C 8.949219 9.542969 8.976562 9.546875 9.003906 9.550781 L 9.003906 9.546875 C 9.019531 9.570312 9.035156 9.589844 9.050781 9.613281 C 9.050781 9.628906 9.050781 9.644531 9.050781 9.65625 C 9.042969 9.675781 9.03125 9.691406 9.023438 9.707031 L 9.027344 9.703125 C 8.992188 9.714844 8.957031 9.722656 8.921875 9.730469 L 8.925781 9.734375 C 8.980469 9.746094 9.042969 9.714844 9.058594 9.65625 C 9.070312 9.601562 9.042969 9.535156 8.984375 9.523438 " fill-opacity="1" fill-rule="nonzero"/><path fill="#000000" d="M 13.132812 10.3125 C 13.132812 10.308594 13.132812 10.300781 13.132812 10.292969 C 13.132812 10.234375 13.085938 10.179688 13.023438 10.183594 C 12.96875 10.1875 12.917969 10.230469 12.917969 10.292969 C 12.917969 10.300781 12.917969 10.308594 12.917969 10.3125 C 12.917969 10.371094 12.964844 10.425781 13.027344 10.421875 C 13.082031 10.421875 13.132812 10.375 13.132812 10.3125 " fill-opacity="1" fill-rule="nonzero"/><path fill="#000000" d="M 13.25 9.742188 C 13.390625 9.742188 13.390625 9.523438 13.25 9.523438 C 13.113281 9.523438 13.113281 9.742188 13.25 9.742188 " fill-opacity="1" fill-rule="nonzero"/><path fill="#000000" d="M 14.054688 9.703125 C 14.054688 9.710938 14.054688 9.71875 14.058594 9.722656 C 14.058594 9.78125 14.105469 9.835938 14.164062 9.832031 C 14.222656 9.832031 14.273438 9.785156 14.273438 9.722656 C 14.273438 9.71875 14.273438 9.710938 14.273438 9.703125 C 14.269531 9.644531 14.222656 9.589844 14.164062 9.59375 C 14.105469 9.597656 14.054688 9.640625 14.054688 9.703125 " fill-opacity="1" fill-rule="nonzero"/><path fill="#000000" d="M 13.550781 10.117188 C 13.558594 10.125 13.566406 10.132812 13.574219 10.140625 C 13.617188 10.179688 13.683594 10.179688 13.726562 10.140625 C 13.765625 10.097656 13.769531 10.027344 13.726562 9.984375 C 13.71875 9.976562 13.710938 9.972656 13.703125 9.964844 C 13.664062 9.921875 13.59375 9.921875 13.550781 9.964844 C 13.511719 10.003906 13.507812 10.078125 13.550781 10.117188 " fill-opacity="1" fill-rule="nonzero"/><path fill="#000000" d="M 13.636719 11.125 C 13.644531 11.117188 13.648438 11.109375 13.65625 11.101562 C 13.699219 11.058594 13.699219 10.992188 13.65625 10.949219 C 13.617188 10.90625 13.546875 10.90625 13.503906 10.949219 C 13.496094 10.957031 13.492188 10.964844 13.484375 10.972656 C 13.441406 11.011719 13.441406 11.082031 13.484375 11.125 C 13.523438 11.164062 13.59375 11.167969 13.636719 11.125 " fill-opacity="1" fill-rule="nonzero"/><path fill="#000000" d="M 15.042969 10.253906 C 15.035156 10.253906 15.03125 10.253906 15.023438 10.253906 C 14.964844 10.257812 14.910156 10.304688 14.914062 10.363281 C 14.917969 10.421875 14.960938 10.472656 15.023438 10.472656 C 15.03125 10.472656 15.035156 10.472656 15.042969 10.472656 C 15.101562 10.472656 15.15625 10.421875 15.152344 10.363281 C 15.148438 10.304688 15.105469 10.253906 15.042969 10.253906 " fill-opacity="1" fill-rule="nonzero"/><path fill="#000000" d="M 14.527344 10.703125 C 14.527344 10.695312 14.527344 10.6875 14.527344 10.683594 C 14.527344 10.625 14.480469 10.570312 14.421875 10.574219 C 14.363281 10.574219 14.3125 10.621094 14.3125 10.683594 C 14.3125 10.6875 14.3125 10.695312 14.3125 10.703125 C 14.3125 10.761719 14.363281 10.816406 14.421875 10.8125 C 14.480469 10.808594 14.53125 10.765625 14.527344 10.703125 " fill-opacity="1" fill-rule="nonzero"/><path fill="#000000" d="M 14.683594 9.582031 C 14.683594 9.589844 14.683594 9.597656 14.683594 9.601562 C 14.683594 9.660156 14.734375 9.714844 14.792969 9.710938 C 14.847656 9.710938 14.902344 9.664062 14.898438 9.601562 C 14.898438 9.597656 14.898438 9.589844 14.898438 9.582031 C 14.898438 9.523438 14.851562 9.46875 14.792969 9.472656 C 14.734375 9.476562 14.683594 9.519531 14.683594 9.582031 " fill-opacity="1" fill-rule="nonzero"/><path fill="#000000" d="M 9.34375 10.730469 C 9.347656 10.738281 9.347656 10.746094 9.347656 10.753906 C 9.347656 10.808594 9.394531 10.863281 9.453125 10.859375 C 9.511719 10.859375 9.5625 10.8125 9.5625 10.753906 C 9.5625 10.746094 9.5625 10.738281 9.5625 10.730469 C 9.558594 10.671875 9.511719 10.621094 9.453125 10.621094 C 9.394531 10.625 9.34375 10.667969 9.34375 10.730469 " fill-opacity="1" fill-rule="nonzero"/><path fill="#e6e6e6" d="M 5.40625 13.507812 C 5.324219 13.699219 5.242188 13.890625 5.15625 14.082031 C 5.101562 14.210938 5.289062 14.320312 5.34375 14.191406 C 5.425781 14 5.511719 13.808594 5.59375 13.621094 C 5.648438 13.492188 5.464844 13.382812 5.40625 13.507812 " fill-opacity="1" fill-rule="nonzero"/><path fill="#e6e6e6" d="M 6.300781 13.558594 C 6.257812 13.691406 6.214844 13.820312 6.171875 13.953125 C 6.128906 14.085938 6.335938 14.144531 6.378906 14.011719 C 6.421875 13.878906 6.464844 13.746094 6.507812 13.617188 C 6.550781 13.484375 6.34375 13.425781 6.300781 13.558594 " fill-opacity="1" fill-rule="nonzero"/><path fill="#e6e6e6" d="M 5.8125 15.304688 C 5.796875 15.507812 5.785156 15.710938 5.773438 15.914062 C 5.761719 16.054688 5.976562 16.054688 5.988281 15.914062 C 6 15.710938 6.015625 15.507812 6.027344 15.304688 C 6.039062 15.164062 5.820312 15.164062 5.8125 15.304688 " fill-opacity="1" fill-rule="nonzero"/><path fill="#e6e6e6" d="M 7.152344 15.074219 C 7.125 15.207031 7.097656 15.335938 7.070312 15.46875 C 7.039062 15.605469 7.25 15.664062 7.277344 15.527344 C 7.304688 15.394531 7.332031 15.261719 7.359375 15.132812 C 7.390625 14.996094 7.183594 14.9375 7.152344 15.074219 " fill-opacity="1" fill-rule="nonzero"/><path fill="#e6e6e6" d="M 7.871094 14.300781 C 7.871094 14.417969 7.875 14.535156 7.878906 14.652344 C 7.878906 14.792969 8.09375 14.792969 8.09375 14.652344 C 8.089844 14.535156 8.089844 14.417969 8.085938 14.300781 C 8.082031 14.160156 7.867188 14.160156 7.871094 14.300781 " fill-opacity="1" fill-rule="nonzero"/><path fill="#e6e6e6" d="M 7.828125 16.796875 C 7.832031 17.015625 7.835938 17.234375 7.839844 17.453125 C 7.84375 17.59375 8.058594 17.59375 8.058594 17.453125 C 8.054688 17.234375 8.050781 17.015625 8.046875 16.796875 C 8.042969 16.65625 7.828125 16.65625 7.828125 16.796875 " fill-opacity="1" fill-rule="nonzero"/><path fill="#e6e6e6" d="M 9.304688 14.722656 C 9.253906 14.914062 9.203125 15.105469 9.148438 15.296875 C 9.113281 15.433594 9.320312 15.492188 9.355469 15.355469 C 9.410156 15.164062 9.460938 14.972656 9.515625 14.78125 C 9.550781 14.648438 9.34375 14.589844 9.304688 14.722656 " fill-opacity="1" fill-rule="nonzero"/><path fill="#e6e6e6" d="M 9.261719 16.8125 C 9.265625 16.957031 9.265625 17.105469 9.269531 17.25 C 9.273438 17.390625 9.488281 17.390625 9.484375 17.25 C 9.484375 17.105469 9.480469 16.957031 9.476562 16.8125 C 9.476562 16.671875 9.257812 16.671875 9.261719 16.8125 " fill-opacity="1" fill-rule="nonzero"/><path fill="#e6e6e6" d="M 10.789062 14.859375 C 10.792969 15.035156 10.792969 15.210938 10.796875 15.382812 C 10.800781 15.523438 11.015625 15.523438 11.011719 15.382812 C 11.011719 15.210938 11.007812 15.035156 11.003906 14.859375 C 11 14.71875 10.785156 14.71875 10.789062 14.859375 " fill-opacity="1" fill-rule="nonzero"/><path fill="#e6e6e6" d="M 10.886719 17.832031 C 10.890625 18.023438 10.894531 18.210938 10.894531 18.402344 C 10.898438 18.542969 11.113281 18.542969 11.113281 18.402344 C 11.109375 18.210938 11.105469 18.023438 11.101562 17.832031 C 11.097656 17.691406 10.882812 17.691406 10.886719 17.832031 " fill-opacity="1" fill-rule="nonzero"/><path fill="#e6e6e6" d="M 12.03125 16.292969 C 11.953125 16.53125 11.941406 16.769531 11.984375 17.011719 C 12.007812 17.152344 12.214844 17.09375 12.191406 16.957031 C 12.15625 16.75 12.175781 16.550781 12.242188 16.351562 C 12.285156 16.21875 12.078125 16.164062 12.03125 16.292969 " fill-opacity="1" fill-rule="nonzero"/><path fill="#e6e6e6" d="M 13.257812 14.683594 C 13.261719 14.886719 13.265625 15.089844 13.269531 15.292969 C 13.273438 15.433594 13.488281 15.433594 13.484375 15.292969 C 13.480469 15.089844 13.476562 14.886719 13.472656 14.683594 C 13.472656 14.542969 13.253906 14.542969 13.257812 14.683594 " fill-opacity="1" fill-rule="nonzero"/><path fill="#e6e6e6" d="M 13.484375 17.566406 C 13.488281 17.726562 13.488281 17.886719 13.492188 18.046875 C 13.496094 18.1875 13.710938 18.1875 13.707031 18.046875 C 13.707031 17.886719 13.703125 17.726562 13.699219 17.566406 C 13.699219 17.425781 13.480469 17.425781 13.484375 17.566406 " fill-opacity="1" fill-rule="nonzero"/><path fill="#e6e6e6" d="M 15.160156 16.601562 C 15.1875 16.746094 15.21875 16.894531 15.246094 17.039062 C 15.269531 17.175781 15.480469 17.117188 15.453125 16.980469 C 15.425781 16.835938 15.398438 16.6875 15.371094 16.542969 C 15.34375 16.40625 15.136719 16.464844 15.160156 16.601562 " fill-opacity="1" fill-rule="nonzero"/><path fill="#e6e6e6" d="M 15.347656 14.230469 C 15.386719 14.398438 15.398438 14.5625 15.382812 14.730469 C 15.367188 14.871094 15.582031 14.867188 15.597656 14.730469 C 15.617188 14.542969 15.601562 14.355469 15.558594 14.175781 C 15.523438 14.039062 15.316406 14.097656 15.347656 14.230469 " fill-opacity="1" fill-rule="nonzero"/><path fill="#e6e6e6" d="M 15.960938 17.546875 C 15.992188 17.679688 16.023438 17.808594 16.054688 17.941406 C 16.085938 18.078125 16.296875 18.019531 16.261719 17.882812 C 16.230469 17.753906 16.199219 17.621094 16.167969 17.492188 C 16.136719 17.355469 15.929688 17.414062 15.960938 17.546875 " fill-opacity="1" fill-rule="nonzero"/><path fill="#e6e6e6" d="M 16.738281 14.511719 C 16.804688 14.703125 16.851562 14.894531 16.863281 15.097656 C 16.875 15.234375 17.089844 15.238281 17.082031 15.097656 C 17.066406 14.875 17.019531 14.664062 16.945312 14.457031 C 16.898438 14.324219 16.6875 14.382812 16.738281 14.511719 " fill-opacity="1" fill-rule="nonzero"/><path fill="#ffffff" d="M 10.648438 9.1875 C 10.703125 9.140625 10.769531 9.117188 10.839844 9.105469 C 10.898438 9.097656 10.929688 9.023438 10.914062 8.972656 C 10.898438 8.910156 10.839844 8.886719 10.78125 8.894531 C 10.675781 8.914062 10.578125 8.964844 10.496094 9.035156 C 10.449219 9.070312 10.457031 9.148438 10.496094 9.1875 C 10.539062 9.230469 10.605469 9.226562 10.648438 9.1875 " fill-opacity="1" fill-rule="nonzero"/><path fill="#ececec" d="M 11.933594 13.699219 C 11.921875 13.699219 11.914062 13.699219 11.90625 13.699219 C 11.914062 13.699219 11.921875 13.699219 11.933594 13.699219 M 11.996094 13.699219 C 12.945312 13.695312 13.964844 13.613281 14.816406 13.355469 C 14.792969 13.363281 14.769531 13.367188 14.746094 13.375 C 14.097656 13.5625 13.359375 13.648438 12.632812 13.683594 C 12.417969 13.691406 12.207031 13.695312 11.996094 13.699219 M 14.824219 13.351562 C 14.824219 13.351562 14.828125 13.351562 14.828125 13.351562 C 14.828125 13.351562 14.824219 13.351562 14.824219 13.351562 " fill-opacity="1" fill-rule="nonzero"/><path fill="#ececec" d="M 11.933594 13.699219 C 11.921875 13.699219 11.914062 13.699219 11.90625 13.699219 C 11.75 13.695312 11.59375 13.695312 11.441406 13.691406 C 11.339844 13.6875 11.234375 13.683594 11.136719 13.679688 C 11.128906 13.679688 11.125 13.679688 11.121094 13.679688 C 11.050781 13.675781 10.980469 13.671875 10.910156 13.667969 C 10.910156 13.667969 10.90625 13.667969 10.90625 13.667969 C 10.902344 13.667969 10.902344 13.667969 10.902344 13.667969 C 10.898438 13.667969 10.898438 13.667969 10.898438 13.667969 C 10.898438 13.667969 10.894531 13.667969 10.894531 13.667969 C 10.890625 13.667969 10.890625 13.667969 10.890625 13.667969 C 10.886719 13.667969 10.886719 13.667969 10.886719 13.667969 C 10.886719 13.667969 10.886719 13.667969 10.882812 13.667969 C 10.878906 13.667969 10.878906 13.667969 10.878906 13.667969 C 10.878906 13.667969 10.878906 13.667969 10.875 13.667969 C 9.320312 13.570312 7.742188 13.15625 6.574219 12.289062 C 7.726562 12.9375 9.152344 13.242188 10.542969 13.296875 C 10.796875 13.308594 11.066406 13.316406 11.339844 13.316406 C 12.3125 13.316406 13.363281 13.234375 14.238281 12.96875 C 15.050781 12.71875 15.828125 12.269531 16.40625 11.632812 C 16.972656 11.011719 17.238281 10.015625 17.328125 9.074219 C 17.511719 9.304688 17.667969 9.558594 17.792969 9.832031 C 17.816406 9.882812 17.835938 9.929688 17.855469 9.976562 C 17.945312 9.433594 17.972656 8.882812 17.960938 8.40625 C 17.960938 8.480469 17.960938 8.558594 17.960938 8.636719 C 17.960938 9.761719 17.738281 11.207031 17 12.015625 C 16.980469 12.039062 16.957031 12.0625 16.9375 12.082031 C 16.363281 12.683594 15.617188 13.113281 14.828125 13.351562 C 14.828125 13.351562 14.824219 13.351562 14.824219 13.351562 C 14.820312 13.355469 14.820312 13.355469 14.816406 13.355469 C 13.964844 13.613281 12.945312 13.695312 11.996094 13.699219 C 11.976562 13.699219 11.953125 13.699219 11.933594 13.699219 " fill-opacity="1" fill-rule="nonzero"/><path fill="#1d1d1d" d="M 11.441406 13.691406 C 11.339844 13.6875 11.234375 13.683594 11.136719 13.679688 C 11.058594 13.675781 10.984375 13.671875 10.910156 13.667969 C 10.980469 13.671875 11.050781 13.675781 11.121094 13.679688 C 11.125 13.679688 11.128906 13.679688 11.136719 13.679688 C 11.234375 13.683594 11.339844 13.6875 11.441406 13.691406 M 12.632812 13.683594 C 13.359375 13.648438 14.097656 13.5625 14.746094 13.375 C 14.097656 13.5625 13.359375 13.648438 12.632812 13.683594 M 10.910156 13.667969 C 10.910156 13.667969 10.90625 13.667969 10.90625 13.667969 C 10.90625 13.667969 10.910156 13.667969 10.910156 13.667969 M 10.90625 13.667969 C 10.902344 13.667969 10.902344 13.667969 10.902344 13.667969 C 10.902344 13.667969 10.902344 13.667969 10.90625 13.667969 M 10.902344 13.667969 C 10.898438 13.667969 10.898438 13.667969 10.898438 13.667969 C 10.898438 13.667969 10.898438 13.667969 10.902344 13.667969 M 10.894531 13.667969 L 10.894531 13.667969 M 10.890625 13.667969 L 10.890625 13.667969 M 10.886719 13.667969 C 10.886719 13.667969 10.886719 13.667969 10.882812 13.667969 C 10.886719 13.667969 10.886719 13.667969 10.886719 13.667969 M 10.882812 13.667969 C 10.878906 13.667969 10.878906 13.667969 10.878906 13.667969 C 10.878906 13.667969 10.878906 13.667969 10.882812 13.667969 M 10.875 13.667969 L 10.875 13.667969 M 14.828125 13.351562 C 15.617188 13.113281 16.363281 12.683594 16.9375 12.082031 C 16.957031 12.0625 16.980469 12.039062 17 12.015625 C 17.738281 11.207031 17.960938 9.761719 17.960938 8.636719 C 17.960938 9.761719 17.738281 11.207031 17 12.015625 C 16.417969 12.652344 15.644531 13.101562 14.828125 13.351562 " fill-opacity="1" fill-rule="nonzero"/><path fill="#1d1d1d" d="M 16.429688 4.089844 C 16.429688 4.089844 16.425781 4.089844 16.425781 4.085938 C 16.425781 4.089844 16.429688 4.089844 16.429688 4.089844 M 16.425781 4.085938 C 16.421875 4.085938 16.421875 4.085938 16.421875 4.082031 C 16.421875 4.085938 16.421875 4.085938 16.425781 4.085938 M 16.417969 4.082031 C 16.417969 4.082031 16.417969 4.078125 16.414062 4.078125 C 16.417969 4.078125 16.417969 4.082031 16.417969 4.082031 M 16.414062 4.078125 C 16.414062 4.074219 16.410156 4.074219 16.410156 4.074219 C 16.410156 4.074219 16.414062 4.074219 16.414062 4.078125 M 16.40625 4.070312 L 16.40625 4.070312 " fill-opacity="1" fill-rule="nonzero"/><path fill="#938579" d="M 17.855469 9.976562 C 17.835938 9.929688 17.816406 9.882812 17.792969 9.832031 C 17.667969 9.558594 17.511719 9.304688 17.328125 9.074219 C 17.367188 8.675781 17.375 8.289062 17.363281 7.945312 C 17.355469 7.769531 17.347656 7.589844 17.335938 7.410156 C 17.242188 5.992188 16.921875 4.679688 15.835938 3.707031 C 15.691406 3.578125 15.542969 3.460938 15.386719 3.347656 C 15.75 3.550781 16.09375 3.792969 16.40625 4.070312 C 16.410156 4.074219 16.410156 4.074219 16.410156 4.074219 C 16.410156 4.074219 16.414062 4.074219 16.414062 4.078125 C 16.417969 4.078125 16.417969 4.082031 16.417969 4.082031 C 16.417969 4.082031 16.421875 4.082031 16.421875 4.082031 C 16.421875 4.085938 16.421875 4.085938 16.425781 4.085938 C 16.425781 4.089844 16.429688 4.089844 16.429688 4.089844 C 17.515625 5.0625 17.835938 6.375 17.929688 7.792969 C 17.941406 7.972656 17.949219 8.148438 17.957031 8.328125 C 17.957031 8.351562 17.957031 8.378906 17.957031 8.402344 C 17.957031 8.40625 17.957031 8.40625 17.957031 8.40625 C 17.957031 8.40625 17.957031 8.40625 17.960938 8.40625 C 17.972656 8.882812 17.945312 9.433594 17.855469 9.976562 " fill-opacity="1" fill-rule="nonzero"/><path fill="#b3b3b3" d="M 14.121094 10.367188 C 15.980469 10.648438 17.660156 11.6875 18.746094 13.234375 C 18.785156 13.289062 18.878906 13.234375 18.839844 13.179688 C 17.738281 11.609375 16.035156 10.546875 14.148438 10.261719 C 14.082031 10.25 14.054688 10.355469 14.121094 10.367188 " fill-opacity="1" fill-rule="nonzero"/><path fill="#b3b3b3" d="M 14.433594 9.816406 C 15.34375 9.945312 16.292969 10.140625 17.132812 10.535156 C 17.992188 10.9375 18.542969 11.648438 19.078125 12.414062 C 19.117188 12.46875 19.210938 12.414062 19.167969 12.359375 C 18.652344 11.621094 18.117188 10.90625 17.300781 10.496094 C 16.429688 10.054688 15.421875 9.847656 14.460938 9.714844 C 14.394531 9.703125 14.367188 9.808594 14.433594 9.816406 " fill-opacity="1" fill-rule="nonzero"/><path fill="#b3b3b3" d="M 14.191406 10.695312 C 15.46875 11.25 16.589844 12.085938 17.480469 13.160156 C 17.527344 13.214844 17.601562 13.136719 17.558594 13.082031 C 16.660156 12.003906 15.53125 11.15625 14.246094 10.601562 C 14.183594 10.574219 14.128906 10.667969 14.191406 10.695312 " fill-opacity="1" fill-rule="nonzero"/><path fill="#b3b3b3" d="M 8.246094 9.59375 C 7.445312 9.382812 6.617188 9.453125 5.835938 9.710938 C 5.46875 9.835938 5.113281 9.992188 4.769531 10.171875 C 4.476562 10.328125 4.128906 10.472656 3.945312 10.761719 C 3.910156 10.820312 4 10.875 4.039062 10.816406 C 4.226562 10.523438 4.640625 10.359375 4.9375 10.207031 C 5.277344 10.039062 5.625 9.890625 5.984375 9.777344 C 6.714844 9.554688 7.476562 9.503906 8.214844 9.699219 C 8.285156 9.71875 8.3125 9.613281 8.246094 9.59375 " fill-opacity="1" fill-rule="nonzero"/><path fill="#b3b3b3" d="M 8.078125 10.027344 C 6.519531 9.878906 4.96875 10.515625 3.960938 11.722656 C 3.917969 11.773438 3.992188 11.851562 4.039062 11.796875 C 5.03125 10.613281 6.546875 9.988281 8.078125 10.136719 C 8.144531 10.140625 8.144531 10.03125 8.078125 10.027344 " fill-opacity="1" fill-rule="nonzero"/><path fill="#b3b3b3" d="M 8.164062 10.402344 C 7.445312 10.472656 6.816406 10.8125 6.277344 11.285156 C 5.742188 11.757812 5.21875 12.335938 4.949219 13.007812 C 4.925781 13.074219 5.027344 13.101562 5.054688 13.035156 C 5.300781 12.417969 5.777344 11.890625 6.261719 11.445312 C 6.796875 10.953125 7.429688 10.582031 8.164062 10.511719 C 8.230469 10.507812 8.234375 10.398438 8.164062 10.402344 " fill-opacity="1" fill-rule="nonzero"/><path fill="#b5a99f" d="M 6.140625 4.898438 C 5.984375 4.898438 5.835938 4.742188 5.949219 4.582031 C 6.5 3.832031 7.238281 3.292969 8.125 3.015625 C 8.148438 3.007812 8.167969 3.003906 8.191406 3.003906 C 8.40625 3.003906 8.480469 3.359375 8.238281 3.433594 C 7.46875 3.675781 6.800781 4.148438 6.324219 4.804688 C 6.273438 4.867188 6.207031 4.898438 6.140625 4.898438 " fill-opacity="1" fill-rule="nonzero"/><path fill="#ffffff" d="M 15.96875 20.695312 C 16.207031 22.839844 16.144531 25.015625 15.785156 27.140625 C 16.570312 27.1875 17.332031 27.53125 17.886719 28.089844 C 17.996094 28.199219 18.101562 28.355469 18.03125 28.492188 C 17.96875 28.613281 17.808594 28.632812 17.671875 28.636719 C 16.078125 28.675781 14.484375 28.714844 12.890625 28.757812 C 12.804688 28.757812 12.703125 28.757812 12.644531 28.691406 C 12.589844 28.632812 12.589844 28.542969 12.589844 28.464844 C 12.617188 27.277344 12.667969 26.089844 12.746094 24.90625 " fill-opacity="1" fill-rule="nonzero"/><path fill="#000000" d="M 15.859375 20.695312 C 16.089844 22.835938 16.03125 24.992188 15.679688 27.113281 C 15.667969 27.1875 15.710938 27.246094 15.785156 27.25 C 16.214844 27.28125 16.632812 27.390625 17.019531 27.589844 C 17.210938 27.6875 17.394531 27.804688 17.5625 27.941406 C 17.628906 27.996094 17.71875 28.054688 17.769531 28.128906 C 17.878906 28.214844 17.894531 28.34375 17.808594 28.515625 C 17.765625 28.519531 17.71875 28.523438 17.671875 28.527344 C 17.492188 28.59375 17.164062 28.539062 16.96875 28.542969 C 16.734375 28.550781 16.5 28.558594 16.265625 28.5625 C 15.796875 28.574219 15.328125 28.585938 14.859375 28.597656 C 14.390625 28.609375 13.921875 28.621094 13.453125 28.632812 C 13.226562 28.640625 12.804688 28.746094 12.699219 28.464844 C 12.636719 28.300781 12.710938 28 12.714844 27.824219 C 12.742188 26.851562 12.789062 25.878906 12.851562 24.90625 C 12.863281 24.765625 12.644531 24.769531 12.636719 24.90625 C 12.59375 25.570312 12.558594 26.234375 12.53125 26.898438 C 12.515625 27.230469 12.507812 27.5625 12.496094 27.894531 C 12.488281 28.121094 12.421875 28.4375 12.5 28.652344 C 12.640625 29.027344 13.308594 28.855469 13.59375 28.847656 C 14.273438 28.832031 14.953125 28.8125 15.632812 28.796875 C 16.289062 28.78125 16.945312 28.769531 17.601562 28.746094 C 17.878906 28.738281 18.222656 28.667969 18.144531 28.304688 C 18.0625 27.925781 17.488281 27.59375 17.175781 27.429688 C 16.742188 27.195312 16.273438 27.070312 15.785156 27.035156 C 15.820312 27.078125 15.855469 27.125 15.890625 27.171875 C 16.242188 25.027344 16.308594 22.855469 16.074219 20.695312 C 16.0625 20.558594 15.84375 20.554688 15.859375 20.695312 " fill-opacity="1" fill-rule="nonzero"/><path fill="#000000" d="M 15.976562 28.582031 C 15.9375 28.417969 15.867188 28.265625 15.769531 28.128906 C 15.6875 28.015625 15.5 28.125 15.582031 28.238281 C 15.671875 28.359375 15.734375 28.492188 15.769531 28.640625 C 15.804688 28.773438 16.011719 28.71875 15.976562 28.582031 " fill-opacity="1" fill-rule="nonzero"/><path fill="#000000" d="M 15 28.609375 C 15.03125 28.359375 14.902344 28.117188 14.6875 27.992188 C 14.570312 27.917969 14.460938 28.109375 14.582031 28.179688 C 14.734375 28.269531 14.804688 28.433594 14.78125 28.609375 C 14.765625 28.75 14.980469 28.746094 15 28.609375 " fill-opacity="1" fill-rule="nonzero"/><path fill="#ffffff" d="M 6.542969 19.402344 C 7.699219 17.230469 8.15625 14.757812 9.066406 12.472656 C 9.273438 11.953125 9.519531 11.421875 9.945312 11.066406 C 10.371094 10.707031 11.027344 10.570312 11.484375 10.890625 C 11.824219 11.128906 11.980469 11.5625 12.039062 11.976562 C 12.179688 12.945312 11.914062 13.921875 11.695312 14.875 C 11.300781 16.601562 11.050781 18.363281 10.949219 20.132812 " fill-opacity="1" fill-rule="nonzero"/><path fill="#000000" d="M 6.636719 19.457031 C 7.792969 17.257812 8.253906 14.796875 9.171875 12.5 C 9.394531 11.941406 9.675781 11.324219 10.214844 11.007812 C 10.867188 10.628906 11.59375 10.863281 11.839844 11.59375 C 12.273438 12.882812 11.671875 14.394531 11.414062 15.667969 C 11.117188 17.140625 10.929688 18.632812 10.84375 20.132812 C 10.835938 20.273438 11.050781 20.273438 11.058594 20.132812 C 11.152344 18.558594 11.355469 16.992188 11.679688 15.449219 C 11.945312 14.195312 12.515625 12.671875 12.003906 11.410156 C 11.566406 10.339844 10.304688 10.445312 9.632812 11.222656 C 9.269531 11.640625 9.066406 12.171875 8.867188 12.683594 C 8.605469 13.371094 8.382812 14.070312 8.160156 14.773438 C 7.675781 16.328125 7.210938 17.898438 6.453125 19.347656 C 6.386719 19.46875 6.574219 19.582031 6.636719 19.457031 " fill-opacity="1" fill-rule="nonzero"/><path fill="#000000" d="M 10.230469 11.605469 C 10.234375 11.398438 10.269531 11.203125 10.339844 11.011719 C 10.386719 10.878906 10.175781 10.820312 10.128906 10.953125 C 10.054688 11.164062 10.019531 11.382812 10.015625 11.605469 C 10.015625 11.746094 10.230469 11.746094 10.230469 11.605469 " fill-opacity="1" fill-rule="nonzero"/><path fill="#000000" d="M 10.933594 11.570312 C 10.949219 11.339844 10.996094 11.121094 11.066406 10.90625 C 11.113281 10.773438 10.902344 10.714844 10.859375 10.847656 C 10.78125 11.082031 10.734375 11.320312 10.71875 11.570312 C 10.707031 11.707031 10.925781 11.707031 10.933594 11.570312 " fill-opacity="1" fill-rule="nonzero"/><path fill="#000000" d="M 11.492188 11.765625 C 11.582031 11.589844 11.671875 11.410156 11.761719 11.230469 C 11.824219 11.105469 11.636719 10.996094 11.574219 11.121094 C 11.484375 11.300781 11.394531 11.480469 11.308594 11.65625 C 11.246094 11.78125 11.429688 11.890625 11.492188 11.765625 " fill-opacity="1" fill-rule="nonzero"/><path fill="#000000" d="M 9.136719 6.890625 C 9.136719 7.089844 8.976562 7.253906 8.777344 7.253906 C 8.578125 7.253906 8.417969 7.089844 8.417969 6.890625 C 8.417969 6.691406 8.578125 6.527344 8.777344 6.527344 C 8.976562 6.527344 9.136719 6.691406 9.136719 6.890625 " fill-opacity="1" fill-rule="nonzero"/><path fill="#000000" d="M 13.957031 6.746094 C 13.957031 6.945312 13.796875 7.109375 13.597656 7.109375 C 13.398438 7.109375 13.238281 6.945312 13.238281 6.746094 C 13.238281 6.546875 13.398438 6.382812 13.597656 6.382812 C 13.796875 6.382812 13.957031 6.546875 13.957031 6.746094 " fill-opacity="1" fill-rule="nonzero"/><path fill="#000000" d="M 13.152344 3.808594 C 13.179688 3.554688 13.328125 3.179688 13.605469 3.113281 C 13.757812 3.078125 13.871094 3.191406 13.941406 3.316406 C 13.980469 3.378906 14.097656 3.570312 14.046875 3.648438 C 13.96875 3.765625 14.15625 3.875 14.234375 3.757812 C 14.339844 3.597656 14.226562 3.382812 14.144531 3.230469 C 14.054688 3.066406 13.914062 2.914062 13.71875 2.894531 C 13.25 2.835938 12.976562 3.421875 12.9375 3.808594 C 12.921875 3.945312 13.136719 3.945312 13.152344 3.808594 " fill-opacity="1" fill-rule="nonzero"/><path fill="#000000" d="M 8.109375 3.988281 C 8.0625 3.746094 7.984375 3.332031 8.285156 3.214844 C 8.621094 3.085938 8.691406 3.589844 8.703125 3.804688 C 8.714844 3.941406 8.929688 3.941406 8.921875 3.804688 C 8.898438 3.453125 8.761719 2.890625 8.289062 2.984375 C 7.796875 3.082031 7.828125 3.671875 7.898438 4.046875 C 7.925781 4.183594 8.132812 4.125 8.109375 3.988281 " fill-opacity="1" fill-rule="nonzero"/></svg>