<svg xmlns="http://www.w3.org/2000/svg" xmlns:xlink="http://www.w3.org/1999/xlink" width="40" zoomAndPan="magnify" viewBox="0 0 30 30.000001" height="40" preserveAspectRatio="xMidYMid meet" version="1.0"><defs><clipPath id="f7bfd724ce"><path d="M 0.484375 0 L 29.515625 0 L 29.515625 29.03125 L 0.484375 29.03125 Z M 0.484375 0 " clip-rule="nonzero"/></clipPath></defs><g clip-path="url(#f7bfd724ce)"><path fill="#ffffff" d="M 0.484375 0 L 29.515625 0 L 29.515625 29.03125 L 0.484375 29.03125 Z M 0.484375 0 " fill-opacity="1" fill-rule="nonzero"/><path fill="#ffffff" d="M 0.484375 0 L 29.515625 0 L 29.515625 29.03125 L 0.484375 29.03125 Z M 0.484375 0 " fill-opacity="1" fill-rule="nonzero"/><path fill="#ffffff" d="M 29.515625 14.515625 C 29.515625 15.46875 29.421875 16.414062 29.238281 17.347656 C 29.050781 18.28125 28.777344 19.191406 28.410156 20.070312 C 28.046875 20.953125 27.597656 21.789062 27.070312 22.582031 C 26.539062 23.375 25.9375 24.105469 25.265625 24.78125 C 24.589844 25.453125 23.859375 26.054688 23.066406 26.585938 C 22.273438 27.117188 21.4375 27.5625 20.554688 27.925781 C 19.675781 28.292969 18.765625 28.566406 17.832031 28.753906 C 16.898438 28.941406 15.953125 29.03125 15 29.03125 C 14.046875 29.03125 13.101562 28.941406 12.167969 28.753906 C 11.234375 28.566406 10.324219 28.292969 9.445312 27.925781 C 8.5625 27.5625 7.726562 27.117188 6.933594 26.585938 C 6.144531 26.054688 5.410156 25.453125 4.734375 24.78125 C 4.0625 24.105469 3.460938 23.375 2.929688 22.582031 C 2.402344 21.789062 1.953125 20.953125 1.589844 20.070312 C 1.222656 19.191406 0.949219 18.28125 0.761719 17.347656 C 0.578125 16.414062 0.484375 15.46875 0.484375 14.515625 C 0.484375 13.5625 0.578125 12.617188 0.761719 11.683594 C 0.949219 10.75 1.222656 9.839844 1.589844 8.960938 C 1.953125 8.082031 2.402344 7.242188 2.929688 6.453125 C 3.460938 5.660156 4.0625 4.925781 4.734375 4.25 C 5.410156 3.578125 6.144531 2.976562 6.933594 2.445312 C 7.726562 1.917969 8.5625 1.46875 9.445312 1.105469 C 10.324219 0.738281 11.234375 0.464844 12.167969 0.277344 C 13.101562 0.09375 14.046875 0 15 0 C 15.953125 0 16.898438 0.09375 17.832031 0.277344 C 18.765625 0.464844 19.675781 0.738281 20.554688 1.105469 C 21.4375 1.46875 22.273438 1.917969 23.066406 2.445312 C 23.859375 2.976562 24.589844 3.578125 25.265625 4.25 C 25.9375 4.925781 26.539062 5.660156 27.070312 6.453125 C 27.597656 7.242188 28.046875 8.082031 28.410156 8.960938 C 28.777344 9.839844 29.050781 10.75 29.238281 11.683594 C 29.421875 12.617188 29.515625 13.5625 29.515625 14.515625 Z M 29.515625 14.515625 " fill-opacity="1" fill-rule="nonzero"/></g><path fill="#252627" d="M 3.171875 14.511719 C 3.171875 13.480469 3.367188 12.457031 3.730469 11.550781 C 3.789062 11.402344 3.742188 11.230469 3.617188 11.144531 C 3.546875 11.09375 3.460938 11.078125 3.378906 11.105469 C 3.292969 11.128906 3.222656 11.195312 3.1875 11.285156 C 2.789062 12.273438 2.582031 13.390625 2.582031 14.511719 C 2.582031 15.636719 2.792969 16.757812 3.191406 17.746094 C 3.238281 17.867188 3.339844 17.941406 3.460938 17.941406 C 3.519531 17.941406 3.574219 17.921875 3.621094 17.890625 C 3.742188 17.804688 3.789062 17.628906 3.730469 17.480469 C 3.367188 16.574219 3.171875 15.546875 3.171875 14.511719 Z M 3.171875 14.511719 " fill-opacity="1" fill-rule="nonzero"/><path fill="#252627" d="M 26.828125 11.308594 C 26.792969 11.21875 26.722656 11.152344 26.636719 11.128906 C 26.554688 11.101562 26.46875 11.117188 26.398438 11.164062 C 26.277344 11.25 26.226562 11.425781 26.285156 11.574219 C 26.640625 12.46875 26.828125 13.480469 26.828125 14.5 C 26.828125 15.53125 26.636719 16.554688 26.273438 17.457031 C 26.214844 17.605469 26.261719 17.78125 26.382812 17.867188 C 26.433594 17.898438 26.488281 17.917969 26.542969 17.917969 C 26.664062 17.917969 26.765625 17.84375 26.816406 17.722656 C 27.210938 16.734375 27.417969 15.621094 27.417969 14.5 C 27.417969 13.390625 27.214844 12.289062 26.828125 11.308594 Z M 26.828125 11.308594 " fill-opacity="1" fill-rule="nonzero"/><path fill="#252627" d="M 5 5.839844 L 5.609375 5.230469 C 5.75 5.09375 5.863281 5 5.957031 4.949219 C 6.082031 4.882812 6.214844 4.851562 6.359375 4.855469 C 6.5 4.859375 6.640625 4.894531 6.785156 4.964844 C 6.925781 5.035156 7.074219 5.148438 7.226562 5.304688 C 7.363281 5.441406 7.460938 5.574219 7.527344 5.707031 C 7.605469 5.867188 7.640625 6.023438 7.640625 6.175781 C 7.636719 6.289062 7.601562 6.410156 7.535156 6.542969 C 7.484375 6.636719 7.398438 6.746094 7.273438 6.871094 L 6.644531 7.496094 Z M 5.613281 5.789062 L 6.703125 6.882812 L 6.953125 6.636719 C 7.046875 6.542969 7.109375 6.472656 7.140625 6.417969 C 7.179688 6.351562 7.203125 6.285156 7.207031 6.214844 C 7.207031 6.148438 7.183594 6.066406 7.132812 5.96875 C 7.082031 5.875 6.992188 5.761719 6.867188 5.632812 C 6.738281 5.503906 6.628906 5.417969 6.539062 5.371094 C 6.449219 5.324219 6.363281 5.304688 6.285156 5.304688 C 6.207031 5.308594 6.128906 5.332031 6.054688 5.382812 C 5.996094 5.417969 5.898438 5.503906 5.761719 5.636719 Z M 5.613281 5.789062 " fill-opacity="1" fill-rule="nonzero"/><path fill="#252627" d="M 10.0625 4.777344 L 9.632812 5.054688 L 9.171875 4.71875 L 8.386719 5.226562 L 8.511719 5.777344 L 8.09375 6.046875 L 7.59375 3.589844 L 8.011719 3.320312 Z M 8.832031 4.472656 L 8.09375 3.917969 L 8.296875 4.816406 Z M 8.832031 4.472656 " fill-opacity="1" fill-rule="nonzero"/><path fill="#252627" d="M 10.292969 4.730469 L 9.339844 2.601562 L 9.769531 2.410156 L 10.726562 4.539062 Z M 10.292969 4.730469 " fill-opacity="1" fill-rule="nonzero"/><path fill="#252627" d="M 11.121094 4.339844 L 10.492188 2.09375 L 11.449219 1.824219 C 11.6875 1.757812 11.867188 1.730469 11.988281 1.738281 C 12.109375 1.75 12.214844 1.796875 12.3125 1.878906 C 12.40625 1.964844 12.472656 2.074219 12.507812 2.207031 C 12.554688 2.375 12.542969 2.53125 12.476562 2.667969 C 12.40625 2.804688 12.277344 2.914062 12.089844 3 C 12.203125 3.027344 12.300781 3.070312 12.386719 3.121094 C 12.46875 3.171875 12.589844 3.269531 12.746094 3.414062 L 13.144531 3.773438 L 12.601562 3.925781 L 12.136719 3.527344 C 11.96875 3.386719 11.859375 3.300781 11.804688 3.265625 C 11.746094 3.230469 11.695312 3.214844 11.640625 3.210938 C 11.589844 3.207031 11.507812 3.21875 11.40625 3.25 L 11.3125 3.273438 L 11.574219 4.214844 Z M 11.210938 2.914062 L 11.546875 2.820312 C 11.765625 2.761719 11.898438 2.714844 11.949219 2.679688 C 11.996094 2.644531 12.03125 2.601562 12.050781 2.550781 C 12.066406 2.496094 12.066406 2.433594 12.046875 2.367188 C 12.027344 2.292969 11.988281 2.238281 11.9375 2.203125 C 11.882812 2.167969 11.816406 2.152344 11.742188 2.160156 C 11.703125 2.167969 11.589844 2.195312 11.40625 2.246094 L 11.054688 2.34375 Z M 11.210938 2.914062 " fill-opacity="1" fill-rule="nonzero"/><path fill="#252627" d="M 13.839844 3.738281 L 13.757812 2.761719 L 12.792969 1.484375 L 13.34375 1.4375 L 13.96875 2.3125 L 14.429688 1.347656 L 14.972656 1.304688 L 14.226562 2.726562 L 14.304688 3.699219 Z M 13.839844 3.738281 " fill-opacity="1" fill-rule="nonzero"/><path fill="#252627" d="M 16.261719 3.734375 L 16.695312 1.4375 L 18.269531 1.738281 L 18.195312 2.125 L 17.085938 1.914062 L 16.984375 2.457031 L 17.941406 2.640625 L 17.867188 3.027344 L 16.910156 2.847656 L 16.722656 3.820312 Z M 16.261719 3.734375 " fill-opacity="1" fill-rule="nonzero"/><path fill="#252627" d="M 18.152344 4.117188 L 19.023438 1.949219 L 19.945312 2.320312 C 20.175781 2.414062 20.335938 2.5 20.425781 2.582031 C 20.515625 2.664062 20.570312 2.765625 20.59375 2.890625 C 20.617188 3.015625 20.601562 3.140625 20.550781 3.269531 C 20.484375 3.433594 20.382812 3.546875 20.246094 3.613281 C 20.105469 3.683594 19.9375 3.691406 19.738281 3.644531 C 19.808594 3.734375 19.863281 3.828125 19.898438 3.917969 C 19.933594 4.007812 19.96875 4.160156 20.003906 4.371094 L 20.097656 4.898438 L 19.574219 4.6875 L 19.449219 4.089844 C 19.40625 3.875 19.371094 3.738281 19.347656 3.679688 C 19.324219 3.617188 19.292969 3.570312 19.253906 3.535156 C 19.210938 3.5 19.140625 3.464844 19.042969 3.421875 L 18.953125 3.386719 L 18.589844 4.292969 Z M 19.09375 3.042969 L 19.417969 3.171875 C 19.625 3.257812 19.761719 3.300781 19.820312 3.304688 C 19.878906 3.308594 19.933594 3.292969 19.980469 3.261719 C 20.027344 3.230469 20.0625 3.183594 20.089844 3.117188 C 20.117188 3.042969 20.121094 2.976562 20.101562 2.917969 C 20.082031 2.855469 20.039062 2.804688 19.972656 2.765625 C 19.9375 2.746094 19.832031 2.703125 19.65625 2.628906 L 19.3125 2.492188 Z M 19.09375 3.042969 " fill-opacity="1" fill-rule="nonzero"/><path fill="#252627" d="M 20.253906 5.015625 L 21.542969 3.070312 L 22.984375 4.027344 L 22.765625 4.355469 L 21.71875 3.660156 L 21.429688 4.09375 L 22.410156 4.738281 L 22.191406 5.066406 L 21.214844 4.417969 L 20.863281 4.949219 L 21.949219 5.671875 L 21.730469 6 Z M 20.253906 5.015625 " fill-opacity="1" fill-rule="nonzero"/><path fill="#252627" d="M 21.992188 6.21875 L 23.628906 4.554688 L 24.863281 5.769531 L 24.585938 6.050781 L 23.6875 5.167969 L 23.324219 5.535156 L 24.160156 6.359375 L 23.886719 6.640625 L 23.050781 5.816406 L 22.605469 6.269531 L 23.535156 7.183594 L 23.257812 7.464844 Z M 21.992188 6.21875 " fill-opacity="1" fill-rule="nonzero"/><path fill="#252627" d="M 6.730469 21.671875 L 7.347656 22.273438 C 7.484375 22.410156 7.582031 22.523438 7.632812 22.617188 C 7.703125 22.738281 7.738281 22.871094 7.734375 23.015625 C 7.734375 23.15625 7.699219 23.300781 7.628906 23.441406 C 7.5625 23.582031 7.453125 23.734375 7.300781 23.890625 C 7.167969 24.027344 7.035156 24.128906 6.902344 24.195312 C 6.742188 24.277344 6.585938 24.316406 6.433594 24.316406 C 6.320312 24.316406 6.199219 24.285156 6.066406 24.21875 C 5.96875 24.167969 5.859375 24.085938 5.734375 23.960938 L 5.097656 23.34375 Z M 6.792969 22.285156 L 5.710938 23.390625 L 5.964844 23.636719 C 6.058594 23.726562 6.132812 23.789062 6.183594 23.820312 C 6.25 23.859375 6.320312 23.878906 6.386719 23.882812 C 6.457031 23.886719 6.539062 23.859375 6.632812 23.808594 C 6.730469 23.753906 6.839844 23.664062 6.964844 23.535156 C 7.09375 23.40625 7.175781 23.296875 7.222656 23.203125 C 7.265625 23.113281 7.289062 23.027344 7.285156 22.949219 C 7.28125 22.871094 7.253906 22.792969 7.203125 22.71875 C 7.167969 22.660156 7.082031 22.566406 6.941406 22.429688 Z M 6.792969 22.285156 " fill-opacity="1" fill-rule="nonzero"/><path fill="#252627" d="M 8.925781 26.332031 L 8.492188 26.058594 L 8.605469 25.5 L 7.8125 25.003906 L 7.367188 25.347656 L 6.945312 25.082031 L 8.960938 23.589844 L 9.382812 23.855469 Z M 8.683594 25.085938 L 8.875 24.179688 L 8.144531 24.746094 Z M 8.683594 25.085938 " fill-opacity="1" fill-rule="nonzero"/><path fill="#252627" d="M 9.46875 26.539062 L 10.40625 24.398438 L 10.835938 24.589844 L 9.898438 26.726562 Z M 9.46875 26.539062 " fill-opacity="1" fill-rule="nonzero"/><path fill="#252627" d="M 10.625 27.039062 L 11.234375 24.785156 L 12.191406 25.042969 C 12.433594 25.109375 12.601562 25.179688 12.703125 25.25 C 12.800781 25.316406 12.867188 25.414062 12.90625 25.535156 C 12.941406 25.65625 12.941406 25.785156 12.90625 25.917969 C 12.859375 26.085938 12.773438 26.210938 12.644531 26.296875 C 12.515625 26.378906 12.347656 26.40625 12.140625 26.382812 C 12.222656 26.464844 12.289062 26.550781 12.332031 26.636719 C 12.378906 26.722656 12.433594 26.871094 12.492188 27.074219 L 12.648438 27.589844 L 12.105469 27.441406 L 11.910156 26.859375 C 11.839844 26.652344 11.789062 26.523438 11.757812 26.464844 C 11.730469 26.40625 11.691406 26.363281 11.648438 26.332031 C 11.605469 26.304688 11.53125 26.273438 11.425781 26.246094 L 11.332031 26.222656 L 11.078125 27.160156 Z M 11.429688 25.859375 L 11.769531 25.953125 C 11.984375 26.011719 12.125 26.039062 12.183594 26.035156 C 12.242188 26.03125 12.292969 26.011719 12.335938 25.976562 C 12.378906 25.9375 12.410156 25.886719 12.429688 25.820312 C 12.449219 25.742188 12.445312 25.675781 12.417969 25.617188 C 12.390625 25.5625 12.34375 25.515625 12.273438 25.484375 C 12.234375 25.46875 12.125 25.4375 11.941406 25.386719 L 11.585938 25.289062 Z M 11.429688 25.859375 " fill-opacity="1" fill-rule="nonzero"/><path fill="#252627" d="M 13.785156 27.695312 L 13.855469 26.714844 L 13.105469 25.300781 L 13.65625 25.34375 L 14.136719 26.304688 L 14.742188 25.421875 L 15.28125 25.464844 L 14.324219 26.75 L 14.253906 27.726562 Z M 13.785156 27.695312 " fill-opacity="1" fill-rule="nonzero"/><path fill="#252627" d="M 16.839844 27.640625 L 16.378906 25.351562 L 17.949219 25.035156 L 18.027344 25.425781 L 16.917969 25.644531 L 17.027344 26.1875 L 17.984375 25.996094 L 18.0625 26.382812 L 17.105469 26.574219 L 17.300781 27.546875 Z M 16.839844 27.640625 " fill-opacity="1" fill-rule="nonzero"/><path fill="#252627" d="M 19.160156 27.105469 L 18.269531 24.949219 L 19.183594 24.570312 C 19.414062 24.472656 19.589844 24.425781 19.710938 24.417969 C 19.832031 24.414062 19.945312 24.449219 20.046875 24.523438 C 20.152344 24.59375 20.230469 24.695312 20.28125 24.824219 C 20.347656 24.984375 20.355469 25.136719 20.304688 25.285156 C 20.253906 25.429688 20.140625 25.554688 19.960938 25.660156 C 20.078125 25.675781 20.179688 25.703125 20.269531 25.742188 C 20.359375 25.785156 20.488281 25.867188 20.664062 25.992188 L 21.101562 26.304688 L 20.578125 26.519531 L 20.070312 26.179688 C 19.890625 26.058594 19.769531 25.984375 19.710938 25.957031 C 19.648438 25.929688 19.59375 25.917969 19.542969 25.921875 C 19.488281 25.925781 19.410156 25.949219 19.3125 25.988281 L 19.222656 26.027344 L 19.597656 26.925781 Z M 19.082031 25.679688 L 19.402344 25.546875 C 19.613281 25.460938 19.738281 25.398438 19.785156 25.359375 C 19.828125 25.320312 19.855469 25.273438 19.867188 25.21875 C 19.878906 25.160156 19.871094 25.101562 19.84375 25.039062 C 19.816406 24.964844 19.769531 24.914062 19.714844 24.886719 C 19.65625 24.855469 19.589844 24.851562 19.515625 24.867188 C 19.476562 24.878906 19.371094 24.921875 19.195312 24.992188 L 18.855469 25.132812 Z M 19.082031 25.679688 " fill-opacity="1" fill-rule="nonzero"/><path fill="#252627" d="M 21.664062 25.964844 L 20.363281 24.027344 L 21.796875 23.0625 L 22.019531 23.390625 L 20.972656 24.09375 L 21.261719 24.523438 L 22.234375 23.867188 L 22.453125 24.195312 L 21.480469 24.847656 L 21.835938 25.375 L 22.917969 24.648438 L 23.136719 24.972656 Z M 21.664062 25.964844 " fill-opacity="1" fill-rule="nonzero"/><path fill="#252627" d="M 23.746094 24.464844 L 22.09375 22.816406 L 23.316406 21.589844 L 23.59375 21.867188 L 22.707031 22.761719 L 23.070312 23.125 L 23.898438 22.296875 L 24.179688 22.574219 L 23.351562 23.402344 L 23.800781 23.851562 L 24.722656 22.925781 L 25 23.207031 Z M 23.746094 24.464844 " fill-opacity="1" fill-rule="nonzero"/><path fill="#252627" d="M 11.644531 10.253906 C 11.632812 10.265625 11.621094 10.277344 11.609375 10.289062 C 11.609375 10.273438 11.605469 10.257812 11.605469 10.242188 C 11.617188 10.246094 11.632812 10.25 11.644531 10.253906 Z M 11.644531 10.253906 " fill-opacity="1" fill-rule="nonzero"/><path fill="#252627" d="M 10.953125 10.332031 C 10.949219 10.335938 10.945312 10.34375 10.9375 10.347656 C 10.9375 10.335938 10.9375 10.328125 10.933594 10.316406 C 10.941406 10.320312 10.949219 10.328125 10.953125 10.332031 Z M 10.953125 10.332031 " fill-opacity="1" fill-rule="nonzero"/><path fill="#252627" d="M 15.507812 9.441406 C 15.503906 9.449219 15.5 9.453125 15.496094 9.460938 C 15.488281 9.472656 15.484375 9.488281 15.472656 9.507812 C 15.515625 9.496094 15.554688 9.484375 15.597656 9.476562 C 15.597656 9.476562 15.566406 9.460938 15.507812 9.441406 Z M 15.507812 9.441406 " fill-opacity="1" fill-rule="nonzero"/><path fill="#252627" d="M 15.597656 9.476562 C 15.554688 9.488281 15.515625 9.496094 15.472656 9.507812 C 15.480469 9.488281 15.488281 9.472656 15.496094 9.457031 C 15.5 9.453125 15.503906 9.445312 15.507812 9.441406 C 15.566406 9.464844 15.597656 9.476562 15.597656 9.476562 Z M 15.597656 9.476562 " fill-opacity="1" fill-rule="nonzero"/><path fill="#252627" d="M 13.722656 12.414062 C 13.796875 12.566406 13.84375 12.742188 13.84375 12.933594 C 13.84375 13.46875 13.488281 13.90625 13.050781 13.90625 C 13.011719 13.90625 12.972656 13.902344 12.933594 13.898438 C 12.550781 13.828125 12.257812 13.421875 12.257812 12.933594 C 12.257812 12.394531 12.613281 11.957031 13.050781 11.957031 C 13.332031 11.957031 13.582031 12.140625 13.722656 12.414062 Z M 13.722656 12.414062 " fill-opacity="1" fill-rule="nonzero"/><path fill="#252627" d="M 17.742188 12.929688 C 17.742188 13.46875 17.386719 13.90625 16.949219 13.90625 C 16.511719 13.90625 16.15625 13.46875 16.15625 12.929688 C 16.15625 12.394531 16.511719 11.957031 16.949219 11.957031 C 17.386719 11.957031 17.742188 12.394531 17.742188 12.929688 Z M 17.742188 12.929688 " fill-opacity="1" fill-rule="nonzero"/><path fill="#252627" d="M 12.769531 19 C 12.769531 19.316406 12.511719 19.574219 12.195312 19.574219 C 11.878906 19.574219 11.625 19.316406 11.625 19 C 11.625 18.683594 11.878906 18.429688 12.195312 18.429688 C 12.511719 18.429688 12.769531 18.683594 12.769531 19 Z M 12.769531 19 " fill-opacity="1" fill-rule="nonzero"/><path fill="#252627" d="M 15.363281 21.214844 C 15.242188 21.226562 15.121094 21.230469 15 21.230469 C 14.878906 21.230469 14.757812 21.226562 14.636719 21.214844 Z M 15.363281 21.214844 " fill-opacity="1" fill-rule="nonzero"/><path fill="#252627" d="M 18.375 19 C 18.375 19.316406 18.121094 19.574219 17.804688 19.574219 C 17.488281 19.574219 17.230469 19.316406 17.230469 19 C 17.230469 18.683594 17.488281 18.429688 17.804688 18.429688 C 18.121094 18.429688 18.375 18.683594 18.375 19 Z M 18.375 19 " fill-opacity="1" fill-rule="nonzero"/><path fill="#252627" d="M 11.605469 10.242188 C 11.605469 10.257812 11.609375 10.273438 11.609375 10.289062 C 11.621094 10.277344 11.632812 10.265625 11.644531 10.253906 C 11.632812 10.25 11.617188 10.246094 11.605469 10.242188 Z M 11.605469 10.242188 " fill-opacity="1" fill-rule="nonzero"/><path fill="#252627" d="M 12.769531 19 C 12.769531 19.316406 12.511719 19.574219 12.195312 19.574219 C 11.878906 19.574219 11.625 19.316406 11.625 19 C 11.625 18.683594 11.878906 18.429688 12.195312 18.429688 C 12.511719 18.429688 12.769531 18.683594 12.769531 19 Z M 12.769531 19 " fill-opacity="1" fill-rule="nonzero"/><path fill="#252627" d="M 18.375 19 C 18.375 19.316406 18.121094 19.574219 17.804688 19.574219 C 17.488281 19.574219 17.230469 19.316406 17.230469 19 C 17.230469 18.683594 17.488281 18.429688 17.804688 18.429688 C 18.121094 18.429688 18.375 18.683594 18.375 19 Z M 18.375 19 " fill-opacity="1" fill-rule="nonzero"/><path fill="#252627" d="M 14.636719 21.214844 C 14.757812 21.226562 14.878906 21.230469 15 21.230469 C 15.121094 21.230469 15.242188 21.226562 15.363281 21.214844 Z M 14.636719 21.214844 " fill-opacity="1" fill-rule="nonzero"/><path fill="#252627" d="M 14.636719 21.214844 C 14.757812 21.226562 14.878906 21.230469 15 21.230469 C 15.121094 21.230469 15.242188 21.226562 15.363281 21.214844 Z M 14.636719 21.214844 C 14.757812 21.226562 14.878906 21.230469 15 21.230469 C 15.121094 21.230469 15.242188 21.226562 15.363281 21.214844 Z M 14.636719 21.214844 C 14.757812 21.226562 14.878906 21.230469 15 21.230469 C 15.121094 21.230469 15.242188 21.226562 15.363281 21.214844 Z M 14.636719 21.214844 " fill-opacity="1" fill-rule="nonzero"/><path fill="#252627" d="M 12.195312 18.429688 C 11.878906 18.429688 11.625 18.6875 11.625 19 C 11.625 19.316406 11.878906 19.574219 12.195312 19.574219 C 12.511719 19.574219 12.769531 19.316406 12.769531 19 C 12.769531 18.6875 12.511719 18.429688 12.195312 18.429688 Z M 17.804688 18.429688 C 17.488281 18.429688 17.230469 18.6875 17.230469 19 C 17.230469 19.316406 17.488281 19.574219 17.804688 19.574219 C 18.121094 19.574219 18.375 19.316406 18.375 19 C 18.375 18.6875 18.121094 18.429688 17.804688 18.429688 Z M 13.722656 12.414062 C 13.582031 12.140625 13.332031 11.957031 13.050781 11.957031 C 12.613281 11.957031 12.257812 12.394531 12.257812 12.933594 C 12.257812 13.421875 12.550781 13.828125 12.933594 13.898438 C 12.972656 13.902344 13.011719 13.90625 13.050781 13.90625 C 13.488281 13.90625 13.839844 13.46875 13.839844 12.933594 C 13.839844 12.742188 13.796875 12.566406 13.722656 12.414062 Z M 16.953125 11.957031 C 16.511719 11.957031 16.160156 12.394531 16.160156 12.933594 C 16.160156 13.46875 16.511719 13.90625 16.953125 13.90625 C 17.386719 13.90625 17.742188 13.46875 17.742188 12.933594 C 17.742188 12.394531 17.386719 11.957031 16.953125 11.957031 Z M 12.195312 18.429688 C 11.878906 18.429688 11.625 18.6875 11.625 19 C 11.625 19.316406 11.878906 19.574219 12.195312 19.574219 C 12.511719 19.574219 12.769531 19.316406 12.769531 19 C 12.769531 18.6875 12.511719 18.429688 12.195312 18.429688 Z M 17.804688 18.429688 C 17.488281 18.429688 17.230469 18.6875 17.230469 19 C 17.230469 19.316406 17.488281 19.574219 17.804688 19.574219 C 18.121094 19.574219 18.375 19.316406 18.375 19 C 18.375 18.6875 18.121094 18.429688 17.804688 18.429688 Z M 17.804688 18.429688 C 17.488281 18.429688 17.230469 18.6875 17.230469 19 C 17.230469 19.316406 17.488281 19.574219 17.804688 19.574219 C 18.121094 19.574219 18.375 19.316406 18.375 19 C 18.375 18.6875 18.121094 18.429688 17.804688 18.429688 Z M 12.195312 18.429688 C 11.878906 18.429688 11.625 18.6875 11.625 19 C 11.625 19.316406 11.878906 19.574219 12.195312 19.574219 C 12.511719 19.574219 12.769531 19.316406 12.769531 19 C 12.769531 18.6875 12.511719 18.429688 12.195312 18.429688 Z M 12.195312 18.429688 C 11.878906 18.429688 11.625 18.6875 11.625 19 C 11.625 19.316406 11.878906 19.574219 12.195312 19.574219 C 12.511719 19.574219 12.769531 19.316406 12.769531 19 C 12.769531 18.6875 12.511719 18.429688 12.195312 18.429688 Z M 17.804688 18.429688 C 17.488281 18.429688 17.230469 18.6875 17.230469 19 C 17.230469 19.316406 17.488281 19.574219 17.804688 19.574219 C 18.121094 19.574219 18.375 19.316406 18.375 19 C 18.375 18.6875 18.121094 18.429688 17.804688 18.429688 Z M 17.804688 18.429688 C 17.488281 18.429688 17.230469 18.6875 17.230469 19 C 17.230469 19.316406 17.488281 19.574219 17.804688 19.574219 C 18.121094 19.574219 18.375 19.316406 18.375 19 C 18.375 18.6875 18.121094 18.429688 17.804688 18.429688 Z M 12.195312 18.429688 C 11.878906 18.429688 11.625 18.6875 11.625 19 C 11.625 19.316406 11.878906 19.574219 12.195312 19.574219 C 12.511719 19.574219 12.769531 19.316406 12.769531 19 C 12.769531 18.6875 12.511719 18.429688 12.195312 18.429688 Z M 17.804688 18.429688 C 17.488281 18.429688 17.230469 18.6875 17.230469 19 C 17.230469 19.316406 17.488281 19.574219 17.804688 19.574219 C 18.121094 19.574219 18.375 19.316406 18.375 19 C 18.375 18.6875 18.121094 18.429688 17.804688 18.429688 Z M 14.636719 21.214844 C 14.757812 21.226562 14.878906 21.230469 15 21.230469 C 15.121094 21.230469 15.242188 21.226562 15.363281 21.214844 Z M 12.195312 18.429688 C 11.878906 18.429688 11.625 18.6875 11.625 19 C 11.625 19.316406 11.878906 19.574219 12.195312 19.574219 C 12.511719 19.574219 12.769531 19.316406 12.769531 19 C 12.769531 18.6875 12.511719 18.429688 12.195312 18.429688 Z M 12.195312 18.429688 C 11.878906 18.429688 11.625 18.6875 11.625 19 C 11.625 19.316406 11.878906 19.574219 12.195312 19.574219 C 12.511719 19.574219 12.769531 19.316406 12.769531 19 C 12.769531 18.6875 12.511719 18.429688 12.195312 18.429688 Z M 17.804688 18.429688 C 17.488281 18.429688 17.230469 18.6875 17.230469 19 C 17.230469 19.316406 17.488281 19.574219 17.804688 19.574219 C 18.121094 19.574219 18.375 19.316406 18.375 19 C 18.375 18.6875 18.121094 18.429688 17.804688 18.429688 Z M 17.804688 18.429688 C 17.488281 18.429688 17.230469 18.6875 17.230469 19 C 17.230469 19.316406 17.488281 19.574219 17.804688 19.574219 C 18.121094 19.574219 18.375 19.316406 18.375 19 C 18.375 18.6875 18.121094 18.429688 17.804688 18.429688 Z M 12.195312 18.429688 C 11.878906 18.429688 11.625 18.6875 11.625 19 C 11.625 19.316406 11.878906 19.574219 12.195312 19.574219 C 12.511719 19.574219 12.769531 19.316406 12.769531 19 C 12.769531 18.6875 12.511719 18.429688 12.195312 18.429688 Z M 13.722656 12.414062 C 13.582031 12.140625 13.332031 11.957031 13.050781 11.957031 C 12.613281 11.957031 12.257812 12.394531 12.257812 12.933594 C 12.257812 13.421875 12.550781 13.828125 12.933594 13.898438 C 12.972656 13.902344 13.011719 13.90625 13.050781 13.90625 C 13.488281 13.90625 13.839844 13.46875 13.839844 12.933594 C 13.839844 12.742188 13.796875 12.566406 13.722656 12.414062 Z M 16.953125 11.957031 C 16.511719 11.957031 16.160156 12.394531 16.160156 12.933594 C 16.160156 13.46875 16.511719 13.90625 16.953125 13.90625 C 17.386719 13.90625 17.742188 13.46875 17.742188 12.933594 C 17.742188 12.394531 17.386719 11.957031 16.953125 11.957031 Z M 15.507812 9.441406 C 15.503906 9.449219 15.5 9.453125 15.496094 9.460938 C 15.488281 9.472656 15.484375 9.488281 15.472656 9.507812 C 15.515625 9.496094 15.554688 9.484375 15.597656 9.476562 C 15.597656 9.476562 15.566406 9.460938 15.507812 9.441406 Z M 11.605469 10.242188 C 11.605469 10.257812 11.609375 10.273438 11.609375 10.289062 C 11.621094 10.277344 11.632812 10.265625 11.644531 10.253906 C 11.632812 10.25 11.617188 10.246094 11.605469 10.242188 Z M 11.605469 10.242188 " fill-opacity="1" fill-rule="nonzero"/><path fill="#252627" d="M 20.625 16.578125 L 20.625 14.238281 C 20.625 13.429688 20.457031 12.664062 20.148438 11.96875 C 20.433594 11.929688 20.714844 11.804688 20.953125 11.601562 C 21.597656 11.035156 22.339844 9.46875 21.777344 8.824219 C 21.5 8.507812 20.960938 8.472656 20.410156 8.585938 C 20.492188 8.203125 20.523438 7.84375 20.5 7.582031 C 20.460938 7.097656 20.25 6.929688 20.082031 6.875 C 19.613281 6.722656 19.324219 7.148438 19.070312 7.523438 C 18.8125 7.90625 18.492188 8.378906 17.933594 8.664062 C 17.625 8.824219 17.304688 8.917969 17.007812 8.980469 C 16.382812 8.742188 15.707031 8.613281 15 8.613281 C 14.292969 8.613281 13.617188 8.742188 12.992188 8.980469 C 12.695312 8.917969 12.375 8.824219 12.066406 8.664062 C 11.507812 8.378906 11.1875 7.90625 10.929688 7.523438 C 10.675781 7.148438 10.386719 6.722656 9.917969 6.875 C 9.75 6.929688 9.539062 7.097656 9.496094 7.582031 C 9.476562 7.84375 9.507812 8.199219 9.589844 8.585938 C 9.039062 8.472656 8.5 8.507812 8.222656 8.824219 C 7.660156 9.46875 8.402344 11.035156 9.046875 11.601562 C 9.285156 11.804688 9.566406 11.929688 9.851562 11.96875 C 9.542969 12.664062 9.375 13.429688 9.375 14.238281 L 9.375 16.578125 C 9.375 16.667969 9.375 16.757812 9.378906 16.847656 C 8.859375 17.414062 8.539062 18.171875 8.539062 19 C 8.539062 20.757812 9.96875 22.1875 11.726562 22.1875 L 18.273438 22.1875 C 20.03125 22.1875 21.460938 20.757812 21.460938 19 C 21.460938 18.171875 21.140625 17.414062 20.621094 16.847656 C 20.625 16.757812 20.625 16.667969 20.625 16.578125 Z M 18.261719 9.308594 C 18.988281 8.933594 19.382812 8.355469 19.667969 7.929688 C 19.703125 7.875 19.746094 7.8125 19.785156 7.757812 C 19.785156 7.988281 19.746094 8.339844 19.617188 8.761719 C 19.605469 8.792969 19.597656 8.820312 19.585938 8.855469 C 19.316406 8.972656 19.082031 9.117188 18.914062 9.265625 C 18.726562 9.425781 18.589844 9.625 18.5 9.835938 C 18.324219 9.695312 18.140625 9.566406 17.953125 9.449219 C 18.054688 9.40625 18.160156 9.359375 18.261719 9.308594 Z M 15.496094 9.460938 C 15.5 9.453125 15.503906 9.449219 15.507812 9.441406 C 15.566406 9.460938 15.597656 9.476562 15.597656 9.476562 C 15.554688 9.484375 15.515625 9.496094 15.472656 9.507812 C 15.484375 9.488281 15.488281 9.472656 15.496094 9.460938 Z M 13.050781 11.253906 C 13.375 11.253906 13.691406 11.378906 13.945312 11.589844 C 14.179688 10.691406 14.425781 9.929688 15.246094 9.589844 C 15.316406 9.589844 15.382812 9.597656 15.449219 9.605469 C 15.570312 9.613281 15.691406 9.632812 15.808594 9.652344 C 16.023438 9.691406 16.230469 9.742188 16.433594 9.808594 C 16.753906 9.910156 17.054688 10.046875 17.335938 10.214844 C 17.5625 10.34375 17.773438 10.492188 17.972656 10.65625 C 18.097656 10.761719 18.21875 10.871094 18.332031 10.988281 C 19.085938 11.765625 19.574219 12.800781 19.644531 13.945312 C 19.398438 13.796875 19.117188 13.804688 18.886719 13.886719 C 18.414062 14.058594 18.554688 14.714844 17.875 14.957031 C 17.441406 15.109375 17.414062 15.542969 17.449219 15.816406 L 11.726562 15.816406 C 11.230469 15.816406 10.765625 15.929688 10.347656 16.128906 L 10.347656 14.324219 C 10.800781 14.386719 11.507812 14.433594 12.144531 14.269531 C 11.785156 13.960938 11.558594 13.476562 11.558594 12.933594 C 11.558594 12.511719 11.695312 12.109375 11.945312 11.800781 C 12.226562 11.453125 12.628906 11.253906 13.050781 11.253906 Z M 10.332031 7.929688 C 10.617188 8.355469 11.011719 8.933594 11.738281 9.308594 C 11.839844 9.359375 11.945312 9.40625 12.046875 9.449219 C 11.859375 9.566406 11.675781 9.695312 11.5 9.835938 C 11.410156 9.625 11.273438 9.425781 11.085938 9.265625 C 10.917969 9.117188 10.683594 8.972656 10.414062 8.855469 C 10.40625 8.820312 10.394531 8.792969 10.382812 8.761719 C 10.253906 8.339844 10.214844 7.988281 10.214844 7.757812 C 10.253906 7.8125 10.296875 7.875 10.332031 7.929688 Z M 9.5 11.09375 C 9.273438 10.894531 9.019531 10.492188 8.882812 10.113281 C 8.738281 9.714844 8.753906 9.4375 8.832031 9.351562 C 8.875 9.300781 8.976562 9.269531 9.113281 9.257812 C 9.484375 9.234375 9.976562 9.382812 10.335938 9.574219 C 10.457031 9.640625 10.566406 9.710938 10.644531 9.78125 C 10.804688 9.921875 10.90625 10.109375 10.933594 10.316406 C 10.941406 10.324219 10.949219 10.328125 10.953125 10.332031 C 10.949219 10.335938 10.941406 10.34375 10.9375 10.347656 C 10.859375 10.429688 10.785156 10.515625 10.710938 10.601562 C 10.523438 10.820312 10.355469 11.050781 10.207031 11.296875 C 10.179688 11.300781 10.15625 11.304688 10.128906 11.304688 C 9.898438 11.320312 9.675781 11.246094 9.5 11.09375 Z M 18.273438 21.214844 L 15.363281 21.214844 C 15.242188 21.226562 15.121094 21.230469 15 21.230469 C 14.878906 21.230469 14.757812 21.226562 14.636719 21.214844 L 11.726562 21.214844 C 10.503906 21.214844 9.511719 20.222656 9.511719 19 C 9.511719 18.746094 9.554688 18.5 9.636719 18.269531 C 9.714844 18.046875 9.828125 17.835938 9.972656 17.648438 C 10.09375 17.492188 10.234375 17.355469 10.390625 17.234375 C 10.761719 16.953125 11.226562 16.789062 11.726562 16.789062 L 18.273438 16.789062 C 18.773438 16.789062 19.234375 16.953125 19.605469 17.234375 C 19.765625 17.355469 19.90625 17.492188 20.027344 17.648438 C 20.171875 17.835938 20.285156 18.046875 20.363281 18.269531 C 20.445312 18.5 20.488281 18.746094 20.488281 19 C 20.488281 20.222656 19.496094 21.214844 18.273438 21.214844 Z M 18.273438 21.214844 " fill-opacity="1" fill-rule="nonzero"/><path fill="#252627" d="M 12.769531 19 C 12.769531 19.316406 12.511719 19.574219 12.195312 19.574219 C 11.878906 19.574219 11.625 19.316406 11.625 19 C 11.625 18.683594 11.878906 18.429688 12.195312 18.429688 C 12.511719 18.429688 12.769531 18.683594 12.769531 19 Z M 12.769531 19 " fill-opacity="1" fill-rule="nonzero"/><path fill="#252627" d="M 18.375 19 C 18.375 19.316406 18.121094 19.574219 17.804688 19.574219 C 17.488281 19.574219 17.230469 19.316406 17.230469 19 C 17.230469 18.683594 17.488281 18.429688 17.804688 18.429688 C 18.121094 18.429688 18.375 18.683594 18.375 19 Z M 18.375 19 " fill-opacity="1" fill-rule="nonzero"/><path fill="#252627" d="M 17.742188 12.929688 C 17.742188 13.46875 17.386719 13.90625 16.949219 13.90625 C 16.511719 13.90625 16.15625 13.46875 16.15625 12.929688 C 16.15625 12.394531 16.511719 11.957031 16.949219 11.957031 C 17.386719 11.957031 17.742188 12.394531 17.742188 12.929688 Z M 17.742188 12.929688 " fill-opacity="1" fill-rule="nonzero"/><path fill="#252627" d="M 13.84375 12.933594 C 13.84375 13.46875 13.488281 13.90625 13.050781 13.90625 C 13.011719 13.90625 12.972656 13.902344 12.933594 13.898438 C 12.550781 13.828125 12.257812 13.421875 12.257812 12.933594 C 12.257812 12.394531 12.613281 11.957031 13.050781 11.957031 C 13.332031 11.957031 13.582031 12.140625 13.722656 12.414062 C 13.796875 12.566406 13.84375 12.742188 13.84375 12.933594 Z M 13.84375 12.933594 " fill-opacity="1" fill-rule="nonzero"/></svg>