<svg xmlns="http://www.w3.org/2000/svg" xmlns:xlink="http://www.w3.org/1999/xlink" width="40" zoomAndPan="magnify" viewBox="0 0 30 30.000001" height="40" preserveAspectRatio="xMidYMid meet" version="1.0"><defs><clipPath id="3b1a7e3583"><path d="M 0.484375 0 L 29.515625 0 L 29.515625 29.03125 L 0.484375 29.03125 Z M 0.484375 0 " clip-rule="nonzero"/></clipPath><clipPath id="5db6fd93c2"><path d="M 3.40625 19 L 8 19 L 8 24 L 3.40625 24 Z M 3.40625 19 " clip-rule="nonzero"/></clipPath><clipPath id="468ed1c619"><path d="M 22 19 L 26.632812 19 L 26.632812 24 L 22 24 Z M 22 19 " clip-rule="nonzero"/></clipPath><clipPath id="8ee1ecab80"><path d="M 7 25 L 11 25 L 11 29.03125 L 7 29.03125 Z M 7 25 " clip-rule="nonzero"/></clipPath><clipPath id="032987b4d0"><path d="M 11 25 L 15 25 L 15 29.03125 L 11 29.03125 Z M 11 25 " clip-rule="nonzero"/></clipPath><clipPath id="543054ae27"><path d="M 15 25 L 19 25 L 19 29.03125 L 15 29.03125 Z M 15 25 " clip-rule="nonzero"/></clipPath><clipPath id="47a771e041"><path d="M 19 25 L 23 25 L 23 29.03125 L 19 29.03125 Z M 19 25 " clip-rule="nonzero"/></clipPath></defs><g clip-path="url(#3b1a7e3583)"><path fill="#ffffff" d="M 0.484375 0 L 29.515625 0 L 29.515625 29.03125 L 0.484375 29.03125 Z M 0.484375 0 " fill-opacity="1" fill-rule="nonzero"/><path fill="#ffffff" d="M 0.484375 0 L 29.515625 0 L 29.515625 29.03125 L 0.484375 29.03125 Z M 0.484375 0 " fill-opacity="1" fill-rule="nonzero"/></g><g clip-path="url(#5db6fd93c2)"><path fill="#ffb521" d="M 5.234375 22.183594 L 6.382812 22.183594 L 6.382812 22.550781 C 6.183594 22.738281 5.859375 22.867188 5.453125 22.867188 C 4.792969 22.867188 4.320312 22.351562 4.320312 21.75 C 4.320312 21.125 4.78125 20.664062 5.445312 20.664062 C 5.878906 20.664062 6.171875 20.796875 6.359375 21.035156 L 7.148438 20.636719 C 6.773438 20.136719 6.183594 19.808594 5.453125 19.808594 C 4.265625 19.808594 3.40625 20.714844 3.40625 21.761719 C 3.40625 22.777344 4.210938 23.714844 5.460938 23.714844 C 6.566406 23.714844 7.160156 22.9375 7.1875 22.882812 L 7.1875 21.484375 L 5.234375 21.484375 L 5.234375 22.183594 " fill-opacity="1" fill-rule="nonzero"/></g><path fill="#ffb521" d="M 8.789062 19.875 L 7.875 19.875 L 7.875 23.648438 L 10.769531 23.648438 L 10.769531 22.804688 L 8.789062 22.804688 L 8.789062 19.875 " fill-opacity="1" fill-rule="nonzero"/><path fill="#ffb521" d="M 13.730469 21.710938 C 13.730469 22.4375 13.375 22.871094 12.808594 22.871094 C 12.230469 22.871094 11.921875 22.4375 11.921875 21.710938 L 11.921875 19.875 L 11.011719 19.875 L 11.011719 21.710938 C 11.011719 22.960938 11.738281 23.714844 12.808594 23.714844 C 13.867188 23.714844 14.65625 22.960938 14.65625 21.710938 L 14.65625 19.875 L 13.730469 19.875 L 13.730469 21.710938 " fill-opacity="1" fill-rule="nonzero"/><path fill="#ffb521" d="M 15.085938 20.71875 L 16.425781 20.71875 L 16.425781 23.648438 L 17.347656 23.648438 L 17.347656 20.71875 L 18.6875 20.71875 L 18.6875 19.875 L 15.085938 19.875 L 15.085938 20.71875 " fill-opacity="1" fill-rule="nonzero"/><path fill="#ffb521" d="M 19.308594 23.648438 L 22.203125 23.648438 L 22.203125 22.804688 L 20.21875 22.804688 L 20.21875 22.15625 L 21.875 22.15625 L 21.875 21.367188 L 20.21875 21.367188 L 20.21875 20.71875 L 22.203125 20.71875 L 22.203125 19.875 L 19.308594 19.875 L 19.308594 23.648438 " fill-opacity="1" fill-rule="nonzero"/><g clip-path="url(#468ed1c619)"><path fill="#ffb521" d="M 25.714844 19.875 L 25.714844 22.179688 L 23.804688 19.875 L 22.886719 19.875 L 22.886719 23.648438 L 23.804688 23.648438 L 23.804688 21.339844 L 25.714844 23.648438 L 26.632812 23.648438 L 26.632812 19.875 L 25.714844 19.875 " fill-opacity="1" fill-rule="nonzero"/></g><g clip-path="url(#8ee1ecab80)"><path fill="#ffb521" d="M 7.988281 29.03125 L 8.898438 29.03125 L 8.898438 27.804688 L 10.554688 27.804688 L 10.554688 26.96875 L 8.898438 26.96875 L 8.898438 26.101562 L 10.882812 26.101562 L 10.882812 25.257812 L 7.988281 25.257812 L 7.988281 29.03125 " fill-opacity="1" fill-rule="nonzero"/></g><g clip-path="url(#032987b4d0)"><path fill="#ffb521" d="M 13.289062 27.25 L 12.503906 27.25 L 12.503906 26.101562 L 13.292969 26.101562 C 13.597656 26.101562 13.847656 26.363281 13.847656 26.671875 C 13.847656 26.988281 13.597656 27.25 13.289062 27.25 Z M 14.765625 26.671875 C 14.765625 25.851562 14.1875 25.257812 13.421875 25.257812 L 11.59375 25.257812 L 11.59375 29.03125 L 12.503906 29.03125 L 12.503906 28.09375 L 13.171875 28.09375 L 13.738281 29.03125 L 14.871094 29.03125 L 14.09375 27.894531 C 14.5 27.675781 14.765625 27.21875 14.765625 26.671875 " fill-opacity="1" fill-rule="nonzero"/></g><g clip-path="url(#543054ae27)"><path fill="#ffb521" d="M 15.519531 29.03125 L 18.414062 29.03125 L 18.414062 28.1875 L 16.433594 28.1875 L 16.433594 27.539062 L 18.085938 27.539062 L 18.085938 26.75 L 16.433594 26.75 L 16.433594 26.101562 L 18.414062 26.101562 L 18.414062 25.257812 L 15.519531 25.257812 L 15.519531 29.03125 " fill-opacity="1" fill-rule="nonzero"/></g><g clip-path="url(#47a771e041)"><path fill="#ffb521" d="M 22.046875 26.101562 L 22.046875 25.257812 L 19.152344 25.257812 L 19.152344 29.03125 L 22.046875 29.03125 L 22.046875 28.1875 L 20.066406 28.1875 L 20.066406 27.539062 L 21.71875 27.539062 L 21.71875 26.75 L 20.066406 26.75 L 20.066406 26.101562 L 22.046875 26.101562 " fill-opacity="1" fill-rule="nonzero"/></g><path fill="#ffb521" d="M 15.292969 8.8125 L 15.121094 8.8125 L 15.160156 10.410156 C 15.492188 9.507812 16.359375 8.863281 17.375 8.863281 L 17.652344 8.863281 L 17.652344 9.140625 C 17.652344 10.4375 16.597656 11.492188 15.292969 11.492188 L 15.1875 11.492188 L 15.226562 13.019531 C 15.597656 12.203125 16.421875 11.632812 17.375 11.632812 L 17.652344 11.632812 L 17.652344 11.910156 C 17.652344 13.210938 16.597656 14.261719 15.292969 14.261719 L 15.257812 14.261719 L 15.289062 15.363281 L 15.324219 16.808594 C 15.222656 16.8125 15.121094 16.816406 15.019531 16.816406 C 14.914062 16.816406 14.8125 16.8125 14.710938 16.808594 L 14.75 15.363281 L 14.777344 14.261719 L 14.742188 14.261719 C 13.441406 14.261719 12.382812 13.210938 12.382812 11.910156 L 12.382812 11.632812 L 12.660156 11.632812 C 13.617188 11.632812 14.4375 12.203125 14.808594 13.019531 L 14.847656 11.492188 L 14.742188 11.492188 C 13.441406 11.492188 12.382812 10.4375 12.382812 9.140625 L 12.382812 8.863281 L 12.660156 8.863281 C 13.675781 8.863281 14.546875 9.507812 14.875 10.410156 L 14.917969 8.8125 L 14.742188 8.8125 C 13.441406 8.8125 12.382812 7.757812 12.382812 6.457031 L 12.382812 6.183594 L 12.660156 6.183594 C 13.753906 6.183594 14.671875 6.925781 14.9375 7.929688 L 14.960938 7.058594 L 14.824219 6.921875 C 13.902344 6.003906 13.902344 4.511719 14.824219 3.59375 L 15.019531 3.398438 L 15.210938 3.59375 C 16.132812 4.511719 16.132812 6.003906 15.210938 6.921875 L 15.074219 7.058594 L 15.097656 7.929688 C 15.363281 6.925781 16.285156 6.183594 17.375 6.183594 L 17.652344 6.183594 L 17.652344 6.457031 C 17.652344 7.757812 16.597656 8.8125 15.292969 8.8125 " fill-opacity="1" fill-rule="nonzero"/><path fill="#ffb521" d="M 7.742188 8.984375 C 7.742188 4.972656 11 1.722656 15.019531 1.722656 C 16.8125 1.722656 18.453125 2.371094 19.722656 3.441406 L 17.78125 5.378906 L 18.457031 5.378906 L 18.457031 6.457031 C 18.457031 6.476562 18.457031 6.496094 18.453125 6.511719 C 18.449219 6.765625 18.417969 7.011719 18.355469 7.246094 L 20.898438 4.707031 L 22.125 3.480469 C 21.945312 3.246094 21.75 3.023438 21.542969 2.808594 C 21.351562 2.605469 21.152344 2.410156 20.941406 2.226562 C 19.359375 0.839844 17.285156 0 15.019531 0 C 10.054688 0 6.03125 4.019531 6.03125 8.972656 C 6.03125 10.9375 6.660156 12.75 7.730469 14.226562 L 8.957031 13 C 8.191406 11.851562 7.742188 10.46875 7.742188 8.984375 " fill-opacity="1" fill-rule="nonzero"/><path fill="#ffb521" d="M 22.613281 4.179688 L 21.363281 5.429688 C 21.953125 6.476562 22.292969 7.691406 22.292969 8.984375 C 22.292969 12.894531 19.191406 16.085938 15.308594 16.238281 C 15.214844 16.242188 15.117188 16.246094 15.019531 16.246094 C 14.921875 16.246094 14.824219 16.242188 14.726562 16.238281 C 13.238281 16.179688 11.863281 15.675781 10.734375 14.851562 L 12.042969 13.546875 C 11.75 13.070312 11.582031 12.507812 11.582031 11.910156 L 11.582031 11.566406 L 11.1875 11.960938 L 9.46875 13.675781 L 8.257812 14.886719 C 8.453125 15.109375 8.660156 15.320312 8.875 15.523438 C 9.082031 15.714844 9.292969 15.898438 9.515625 16.070312 C 10.949219 17.175781 12.722656 17.863281 14.65625 17.9375 C 14.777344 17.945312 14.898438 17.945312 15.019531 17.945312 C 15.140625 17.945312 15.261719 17.945312 15.378906 17.9375 C 20.175781 17.75 24.007812 13.808594 24.007812 8.972656 C 24.007812 7.210938 23.496094 5.566406 22.613281 4.179688 " fill-opacity="1" fill-rule="nonzero"/></svg>