<svg xmlns="http://www.w3.org/2000/svg" xmlns:xlink="http://www.w3.org/1999/xlink" width="40" zoomAndPan="magnify" viewBox="0 0 30 30.000001" height="40" preserveAspectRatio="xMidYMid meet" version="1.0"><defs><clipPath id="0af5e64a45"><path d="M 0.484375 0 L 29.515625 0 L 29.515625 29.03125 L 0.484375 29.03125 Z M 0.484375 0 " clip-rule="nonzero"/></clipPath><clipPath id="702ca00201"><path d="M 0.484375 8 L 12 8 L 12 17 L 0.484375 17 Z M 0.484375 8 " clip-rule="nonzero"/></clipPath><clipPath id="03e61bcd85"><path d="M 0.484375 14 L 2 14 L 2 16 L 0.484375 16 Z M 0.484375 14 " clip-rule="nonzero"/></clipPath><clipPath id="c2cbd47df6"><path d="M 0.484375 13 L 4 13 L 4 17 L 0.484375 17 Z M 0.484375 13 " clip-rule="nonzero"/></clipPath><clipPath id="38328b286d"><path d="M 17.050781 7.214844 L 29.515625 7.214844 L 29.515625 7.902344 L 17.050781 7.902344 Z M 17.050781 7.214844 " clip-rule="nonzero"/></clipPath><clipPath id="4001cbeee4"><path d="M 25 5.171875 L 27 5.171875 L 27 10 L 25 10 Z M 25 5.171875 " clip-rule="nonzero"/></clipPath><clipPath id="a13e29b3fd"><path d="M 26 5.171875 L 28 5.171875 L 28 10 L 26 10 Z M 26 5.171875 " clip-rule="nonzero"/></clipPath><clipPath id="c9fbf03a7b"><path d="M 27 5.171875 L 29 5.171875 L 29 10 L 27 10 Z M 27 5.171875 " clip-rule="nonzero"/></clipPath><clipPath id="c6deef8eea"><path d="M 19 5.171875 L 21 5.171875 L 21 10 L 19 10 Z M 19 5.171875 " clip-rule="nonzero"/></clipPath><clipPath id="69a0074db3"><path d="M 18 5.171875 L 20 5.171875 L 20 10 L 18 10 Z M 18 5.171875 " clip-rule="nonzero"/></clipPath><clipPath id="3d628efa16"><path d="M 18 5.171875 L 19 5.171875 L 19 10 L 18 10 Z M 18 5.171875 " clip-rule="nonzero"/></clipPath><clipPath id="cd865ff719"><path d="M 12.894531 23 L 14.652344 23 L 14.652344 24.027344 L 12.894531 24.027344 Z M 12.894531 23 " clip-rule="nonzero"/></clipPath><clipPath id="487ac2e2c5"><path d="M 12.894531 23.648438 L 14.652344 23.648438 L 14.652344 24.027344 L 12.894531 24.027344 Z M 12.894531 23.648438 " clip-rule="nonzero"/></clipPath><clipPath id="5ebb8ada26"><path d="M 18.308594 23 L 20.0625 23 L 20.0625 24.027344 L 18.308594 24.027344 Z M 18.308594 23 " clip-rule="nonzero"/></clipPath><clipPath id="2833d5e83b"><path d="M 18.308594 23.648438 L 20.0625 23.648438 L 20.0625 24.027344 L 18.308594 24.027344 Z M 18.308594 23.648438 " clip-rule="nonzero"/></clipPath></defs><g clip-path="url(#0af5e64a45)"><path fill="#ffffff" d="M 0.484375 0 L 29.515625 0 L 29.515625 29.03125 L 0.484375 29.03125 Z M 0.484375 0 " fill-opacity="1" fill-rule="nonzero"/><path fill="#ffffff" d="M 0.484375 0 L 29.515625 0 L 29.515625 29.03125 L 0.484375 29.03125 Z M 0.484375 0 " fill-opacity="1" fill-rule="nonzero"/></g><path fill="#ef495d" d="M 9.199219 16.898438 C 8.65625 16.898438 8.117188 16.835938 7.683594 16.648438 C 7.113281 16.398438 6.441406 15.71875 5.6875 14.621094 C 5.144531 13.832031 4.757812 13.117188 4.742188 13.085938 C 4.648438 12.910156 4.710938 12.691406 4.886719 12.59375 C 5.0625 12.5 5.28125 12.5625 5.375 12.738281 C 5.785156 13.507812 7.058594 15.585938 7.96875 15.980469 C 8.933594 16.402344 10.851562 16.035156 11.511719 15.859375 C 11.703125 15.804688 11.898438 15.921875 11.949219 16.113281 C 12 16.308594 11.886719 16.507812 11.695312 16.558594 C 11.621094 16.578125 10.40625 16.898438 9.199219 16.898438 " fill-opacity="1" fill-rule="nonzero"/><g clip-path="url(#702ca00201)"><path fill="#d1d0d0" d="M 0.851562 16.09375 L 11.234375 9.136719 L 10.875 8.589844 L 0.492188 15.546875 L 0.851562 16.09375 " fill-opacity="1" fill-rule="nonzero"/></g><g clip-path="url(#03e61bcd85)"><path fill="#e3e2e2" d="M 1.496094 15.835938 L 1.777344 15.644531 L 1.257812 14.855469 L 0.976562 15.046875 L 1.496094 15.835938 " fill-opacity="1" fill-rule="nonzero"/></g><path fill="#e3e2e2" d="M 3.9375 14.199219 L 4.222656 14.007812 L 3.703125 13.21875 L 3.421875 13.410156 L 3.9375 14.199219 " fill-opacity="1" fill-rule="nonzero"/><path fill="#5f4949" d="M 4.632812 16.015625 C 4.835938 15.882812 4.890625 15.605469 4.757812 15.398438 L 2.640625 12.179688 C 2.507812 11.976562 2.234375 11.921875 2.03125 12.054688 C 1.828125 12.191406 1.773438 12.46875 1.90625 12.671875 L 4.023438 15.890625 C 4.15625 16.097656 4.433594 16.152344 4.632812 16.015625 " fill-opacity="1" fill-rule="nonzero"/><path fill="#6f5b5b" d="M 3.808594 16.371094 C 4.011719 16.238281 4.066406 15.960938 3.933594 15.753906 L 1.996094 12.808594 C 1.863281 12.605469 1.589844 12.546875 1.386719 12.683594 C 1.183594 12.820312 1.128906 13.097656 1.261719 13.300781 L 3.199219 16.246094 C 3.332031 16.453125 3.609375 16.507812 3.808594 16.371094 " fill-opacity="1" fill-rule="nonzero"/><g clip-path="url(#c2cbd47df6)"><path fill="#5f4949" d="M 2.988281 16.726562 C 3.1875 16.59375 3.242188 16.316406 3.109375 16.109375 L 1.351562 13.4375 C 1.21875 13.234375 0.945312 13.175781 0.742188 13.3125 C 0.539062 13.449219 0.484375 13.726562 0.617188 13.929688 L 2.375 16.601562 C 2.507812 16.808594 2.785156 16.863281 2.988281 16.726562 " fill-opacity="1" fill-rule="nonzero"/></g><path fill="#e3e2e2" d="M 10.746094 9.636719 L 10.464844 9.824219 L 9.945312 9.035156 L 10.226562 8.847656 L 10.746094 9.636719 " fill-opacity="1" fill-rule="nonzero"/><path fill="#e3e2e2" d="M 8.304688 11.273438 L 8.019531 11.464844 L 7.503906 10.671875 L 7.785156 10.484375 L 8.304688 11.273438 " fill-opacity="1" fill-rule="nonzero"/><path fill="#5f4949" d="M 9.691406 12.625 C 9.492188 12.761719 9.214844 12.707031 9.082031 12.503906 L 6.964844 9.28125 C 6.832031 9.078125 6.886719 8.800781 7.089844 8.664062 C 7.292969 8.53125 7.566406 8.585938 7.699219 8.789062 L 9.816406 12.011719 C 9.949219 12.214844 9.894531 12.492188 9.691406 12.625 " fill-opacity="1" fill-rule="nonzero"/><path fill="#6f5b5b" d="M 10.335938 12 C 10.136719 12.132812 9.859375 12.078125 9.726562 11.875 L 7.789062 8.925781 C 7.65625 8.722656 7.710938 8.445312 7.914062 8.308594 C 8.117188 8.175781 8.390625 8.230469 8.523438 8.433594 L 10.460938 11.382812 C 10.59375 11.585938 10.539062 11.863281 10.335938 12 " fill-opacity="1" fill-rule="nonzero"/><path fill="#5f4949" d="M 10.980469 11.371094 C 10.78125 11.503906 10.503906 11.449219 10.371094 11.246094 L 8.613281 8.570312 C 8.480469 8.367188 8.535156 8.089844 8.738281 7.953125 C 8.9375 7.820312 9.214844 7.875 9.347656 8.078125 L 11.105469 10.753906 C 11.238281 10.957031 11.183594 11.234375 10.980469 11.371094 " fill-opacity="1" fill-rule="nonzero"/><path fill="#ef495d" d="M 7.605469 16.296875 C 7.605469 16.296875 7.605469 16.292969 7.605469 16.289062 C 7.53125 15.441406 8.046875 14.703125 8.753906 14.640625 C 9.464844 14.578125 10.097656 15.214844 10.171875 16.0625 C 10.171875 16.066406 10.195312 16.324219 10.195312 16.328125 L 7.605469 16.296875 " fill-opacity="1" fill-rule="nonzero"/><path fill="#ff6777" d="M 5.289062 13.371094 L 6.058594 12.847656 C 6.246094 12.722656 6.292969 12.464844 6.167969 12.277344 L 6.066406 12.125 C 5.902344 11.882812 5.574219 11.816406 5.328125 11.980469 L 4.769531 12.367188 C 4.523438 12.53125 4.460938 12.863281 4.625 13.109375 L 4.726562 13.261719 C 4.851562 13.449219 5.105469 13.5 5.289062 13.371094 " fill-opacity="1" fill-rule="nonzero"/><path fill="#ff6777" d="M 5.875 13.351562 L 6.324219 13.050781 C 6.417969 12.988281 6.441406 12.859375 6.378906 12.765625 C 6.320312 12.671875 6.191406 12.648438 6.101562 12.710938 L 5.652344 13.011719 C 5.558594 13.074219 5.53125 13.199219 5.59375 13.292969 C 5.65625 13.386719 5.78125 13.414062 5.875 13.351562 " fill-opacity="1" fill-rule="nonzero"/><path fill="#dad9d9" d="M 14.769531 11.734375 C 14.769531 11.734375 14.730469 10.429688 13.816406 8.535156 C 13.816406 8.535156 13.429688 9.074219 12.808594 9.183594 C 12.808594 9.183594 13.972656 10.796875 13.839844 12.003906 L 14.769531 11.734375 " fill-opacity="1" fill-rule="nonzero"/><path fill="#dad9d9" d="M 14.117188 11.699219 C 13.914062 11.398438 12.597656 9.726562 12.207031 9.53125 C 12.015625 9.824219 12.171875 10.160156 11.511719 10.515625 C 12.078125 10.84375 12.660156 11.417969 13.054688 11.917969 C 13.265625 12.1875 13.507812 12.558594 13.753906 12.773438 C 13.730469 12.445312 13.742188 11.867188 14.117188 11.699219 " fill-opacity="1" fill-rule="nonzero"/><path fill="#ef495d" d="M 20.523438 14.203125 C 20.367188 14.203125 20.222656 14.097656 20.179688 13.9375 C 20.125 13.746094 20.234375 13.546875 20.425781 13.492188 C 21.082031 13.304688 22.914062 12.628906 23.535156 11.769531 C 23.804688 11.394531 23.945312 10.582031 23.933594 9.484375 C 23.921875 8.605469 23.816406 7.839844 23.816406 7.832031 C 23.789062 7.632812 23.925781 7.449219 24.121094 7.421875 C 24.316406 7.394531 24.5 7.53125 24.527344 7.730469 C 24.53125 7.761719 24.640625 8.542969 24.652344 9.46875 C 24.667969 10.761719 24.488281 11.679688 24.113281 12.195312 C 23.222656 13.433594 20.726562 14.160156 20.621094 14.191406 C 20.589844 14.199219 20.554688 14.203125 20.523438 14.203125 " fill-opacity="1" fill-rule="nonzero"/><path fill="#ff495d" d="M 20.378906 11.40625 C 19.117188 9.863281 16.367188 10.230469 15.484375 11.929688 C 14.101562 10.621094 11.671875 11.226562 10.789062 12.824219 C 9.992188 14.355469 10.417969 16.402344 11.753906 18.035156 C 13.023438 19.585938 16.335938 21.515625 17.074219 21.386719 C 17.8125 21.261719 23.425781 15.140625 20.378906 11.40625 " fill-opacity="1" fill-rule="nonzero"/><path fill="#730000" d="M 16.433594 18.363281 C 16.109375 18.363281 15.78125 18.289062 15.519531 18.105469 C 15.453125 18.058594 15.4375 17.96875 15.480469 17.902344 C 15.527344 17.835938 15.617188 17.820312 15.683594 17.863281 C 16.113281 18.167969 16.8125 18.105469 17.277344 17.886719 C 17.582031 17.746094 17.777344 17.542969 17.796875 17.351562 C 17.804688 17.269531 17.875 17.210938 17.953125 17.21875 C 18.035156 17.226562 18.089844 17.296875 18.082031 17.378906 C 18.054688 17.679688 17.804688 17.960938 17.398438 18.152344 C 17.128906 18.277344 16.78125 18.363281 16.433594 18.363281 " fill-opacity="1" fill-rule="nonzero"/><path fill="#730000" d="M 14.542969 15.472656 C 14.609375 15.855469 14.445312 16.199219 14.175781 16.246094 C 13.910156 16.292969 13.640625 16.019531 13.578125 15.640625 C 13.511719 15.257812 13.675781 14.910156 13.945312 14.867188 C 14.210938 14.820312 14.480469 15.09375 14.542969 15.472656 " fill-opacity="1" fill-rule="nonzero"/><path fill="#ffffff" d="M 14.324219 15.234375 C 14.339844 15.328125 14.28125 15.417969 14.199219 15.433594 C 14.113281 15.445312 14.03125 15.382812 14.015625 15.285156 C 14 15.191406 14.054688 15.101562 14.140625 15.089844 C 14.222656 15.074219 14.304688 15.140625 14.324219 15.234375 " fill-opacity="1" fill-rule="nonzero"/><path fill="#730000" d="M 19.105469 14.6875 C 19.171875 15.070312 19.007812 15.414062 18.738281 15.460938 C 18.472656 15.507812 18.203125 15.234375 18.140625 14.855469 C 18.074219 14.472656 18.238281 14.125 18.507812 14.082031 C 18.773438 14.035156 19.042969 14.304688 19.105469 14.6875 " fill-opacity="1" fill-rule="nonzero"/><path fill="#ffffff" d="M 18.882812 14.449219 C 18.898438 14.542969 18.84375 14.632812 18.757812 14.644531 C 18.675781 14.660156 18.59375 14.597656 18.578125 14.5 C 18.5625 14.40625 18.617188 14.316406 18.703125 14.304688 C 18.785156 14.289062 18.867188 14.351562 18.882812 14.449219 " fill-opacity="1" fill-rule="nonzero"/><g clip-path="url(#38328b286d)"><path fill="#d1d0d0" d="M 29.515625 7.890625 L 17.054688 7.890625 L 17.054688 7.238281 L 29.515625 7.238281 L 29.515625 7.890625 " fill-opacity="1" fill-rule="nonzero"/></g><path fill="#e3e2e2" d="M 28.835938 8.039062 L 28.496094 8.039062 L 28.496094 7.089844 L 28.835938 7.089844 L 28.835938 8.039062 " fill-opacity="1" fill-rule="nonzero"/><path fill="#e3e2e2" d="M 25.90625 8.039062 L 25.566406 8.039062 L 25.566406 7.089844 L 25.90625 7.089844 L 25.90625 8.039062 " fill-opacity="1" fill-rule="nonzero"/><g clip-path="url(#4001cbeee4)"><path fill="#5f4949" d="M 26.320312 9.941406 C 26.078125 9.941406 25.882812 9.742188 25.882812 9.496094 L 25.882812 5.632812 C 25.882812 5.386719 26.078125 5.1875 26.320312 5.1875 C 26.5625 5.1875 26.761719 5.386719 26.761719 5.632812 L 26.761719 9.496094 C 26.761719 9.742188 26.5625 9.941406 26.320312 9.941406 " fill-opacity="1" fill-rule="nonzero"/></g><g clip-path="url(#a13e29b3fd)"><path fill="#6f5b5b" d="M 27.203125 9.777344 C 26.960938 9.777344 26.761719 9.578125 26.761719 9.332031 L 26.761719 5.796875 C 26.761719 5.550781 26.960938 5.351562 27.203125 5.351562 C 27.445312 5.351562 27.644531 5.550781 27.644531 5.796875 L 27.644531 9.332031 C 27.644531 9.578125 27.445312 9.777344 27.203125 9.777344 " fill-opacity="1" fill-rule="nonzero"/></g><g clip-path="url(#c9fbf03a7b)"><path fill="#5f4949" d="M 28.082031 9.613281 C 27.839844 9.613281 27.644531 9.414062 27.644531 9.167969 L 27.644531 5.960938 C 27.644531 5.714844 27.839844 5.515625 28.082031 5.515625 C 28.324219 5.515625 28.523438 5.714844 28.523438 5.960938 L 28.523438 9.167969 C 28.523438 9.414062 28.324219 9.613281 28.082031 9.613281 " fill-opacity="1" fill-rule="nonzero"/></g><path fill="#e3e2e2" d="M 17.734375 8.039062 L 18.074219 8.039062 L 18.074219 7.089844 L 17.734375 7.089844 L 17.734375 8.039062 " fill-opacity="1" fill-rule="nonzero"/><path fill="#e3e2e2" d="M 20.667969 8.039062 L 21.003906 8.039062 L 21.003906 7.089844 L 20.667969 7.089844 L 20.667969 8.039062 " fill-opacity="1" fill-rule="nonzero"/><g clip-path="url(#c6deef8eea)"><path fill="#5f4949" d="M 20.25 9.941406 C 20.492188 9.941406 20.691406 9.742188 20.691406 9.496094 L 20.691406 5.632812 C 20.691406 5.386719 20.492188 5.1875 20.25 5.1875 C 20.007812 5.1875 19.808594 5.386719 19.808594 5.632812 L 19.808594 9.496094 C 19.808594 9.742188 20.007812 9.941406 20.25 9.941406 " fill-opacity="1" fill-rule="nonzero"/></g><g clip-path="url(#69a0074db3)"><path fill="#6f5b5b" d="M 19.367188 9.777344 C 19.609375 9.777344 19.808594 9.578125 19.808594 9.332031 L 19.808594 5.796875 C 19.808594 5.550781 19.609375 5.351562 19.367188 5.351562 C 19.125 5.351562 18.929688 5.550781 18.929688 5.796875 L 18.929688 9.332031 C 18.929688 9.578125 19.125 9.777344 19.367188 9.777344 " fill-opacity="1" fill-rule="nonzero"/></g><g clip-path="url(#3d628efa16)"><path fill="#5f4949" d="M 18.488281 9.613281 C 18.730469 9.613281 18.929688 9.414062 18.929688 9.167969 L 18.929688 5.960938 C 18.929688 5.714844 18.730469 5.515625 18.488281 5.515625 C 18.246094 5.515625 18.046875 5.714844 18.046875 5.960938 L 18.046875 9.167969 C 18.046875 9.414062 18.246094 9.613281 18.488281 9.613281 " fill-opacity="1" fill-rule="nonzero"/></g><g clip-path="url(#cd865ff719)"><path fill="#89d5ed" d="M 14.105469 23.03125 C 14.027344 23.03125 13.953125 23.046875 13.882812 23.082031 C 13.640625 23.191406 13.269531 23.46875 13.015625 23.644531 C 12.816406 23.785156 12.972656 24.003906 13.042969 24.011719 C 13.363281 24.039062 14.003906 24.019531 14.386719 24.011719 C 14.515625 24.007812 14.621094 23.902344 14.621094 23.769531 L 14.621094 23.117188 C 14.621094 23.070312 14.582031 23.03125 14.535156 23.03125 L 14.105469 23.03125 " fill-opacity="1" fill-rule="nonzero"/></g><path fill="#e6e5e5" d="M 13.378906 23.390625 C 13.203125 23.488281 13.121094 23.515625 13.015625 23.589844 C 12.90625 23.667969 12.902344 23.828125 12.9375 23.902344 L 13.609375 23.878906 C 13.640625 23.625 13.464844 23.457031 13.378906 23.390625 " fill-opacity="1" fill-rule="nonzero"/><path fill="#ff495d" d="M 14.125 19.6875 L 14.125 23.074219 C 14.125 23.1875 14.53125 23.1875 14.53125 23.074219 L 14.53125 19.585938 L 14.125 19.6875 " fill-opacity="1" fill-rule="nonzero"/><g clip-path="url(#487ac2e2c5)"><path fill="#dad8d8" d="M 14.515625 23.757812 C 14.144531 23.765625 13.269531 23.785156 12.925781 23.761719 C 12.886719 23.882812 12.988281 24.007812 13.042969 24.011719 C 13.363281 24.039062 14.003906 24.019531 14.386719 24.011719 C 14.515625 24.007812 14.621094 23.902344 14.621094 23.769531 L 14.621094 23.667969 C 14.613281 23.722656 14.589844 23.757812 14.515625 23.757812 " fill-opacity="1" fill-rule="nonzero"/></g><g clip-path="url(#5ebb8ada26)"><path fill="#89d5ed" d="M 18.855469 23.03125 C 18.933594 23.03125 19.007812 23.046875 19.078125 23.082031 C 19.320312 23.191406 19.691406 23.46875 19.945312 23.644531 C 20.144531 23.785156 19.988281 24.003906 19.917969 24.011719 C 19.597656 24.039062 18.957031 24.019531 18.574219 24.011719 C 18.445312 24.007812 18.339844 23.902344 18.339844 23.769531 L 18.339844 23.117188 C 18.339844 23.070312 18.378906 23.03125 18.425781 23.03125 L 18.855469 23.03125 " fill-opacity="1" fill-rule="nonzero"/></g><path fill="#e6e5e5" d="M 19.582031 23.390625 C 19.757812 23.488281 19.839844 23.515625 19.945312 23.589844 C 20.054688 23.667969 20.058594 23.828125 20.023438 23.902344 L 19.351562 23.878906 C 19.320312 23.625 19.496094 23.457031 19.582031 23.390625 " fill-opacity="1" fill-rule="nonzero"/><path fill="#ff495d" d="M 18.835938 19.6875 L 18.835938 23.074219 C 18.835938 23.1875 18.429688 23.1875 18.429688 23.074219 L 18.429688 19.585938 L 18.835938 19.6875 " fill-opacity="1" fill-rule="nonzero"/><g clip-path="url(#2833d5e83b)"><path fill="#dad8d8" d="M 18.445312 23.757812 C 18.816406 23.765625 19.691406 23.785156 20.035156 23.761719 C 20.074219 23.882812 19.972656 24.007812 19.917969 24.011719 C 19.597656 24.039062 18.957031 24.019531 18.574219 24.011719 C 18.445312 24.007812 18.339844 23.902344 18.339844 23.769531 L 18.339844 23.667969 C 18.347656 23.722656 18.371094 23.757812 18.445312 23.757812 " fill-opacity="1" fill-rule="nonzero"/></g><path fill="#ef495d" d="M 24.007812 11.855469 L 24.003906 11.847656 C 23.636719 11.078125 22.820312 10.710938 22.179688 11.023438 C 21.539062 11.335938 21.316406 12.210938 21.679688 12.976562 L 21.792969 13.21875 L 24.007812 11.855469 " fill-opacity="1" fill-rule="nonzero"/><path fill="#ff6777" d="M 24.328125 8.105469 L 23.398438 8.097656 C 23.175781 8.09375 22.996094 7.910156 22.996094 7.683594 L 22.996094 7.5 C 23 7.203125 23.238281 6.964844 23.53125 6.96875 L 24.210938 6.972656 C 24.503906 6.976562 24.738281 7.21875 24.738281 7.511719 L 24.734375 7.699219 C 24.734375 7.921875 24.550781 8.105469 24.328125 8.105469 " fill-opacity="1" fill-rule="nonzero"/><path fill="#ff6777" d="M 23.828125 8.414062 L 23.289062 8.414062 C 23.175781 8.414062 23.085938 8.320312 23.085938 8.207031 C 23.085938 8.097656 23.175781 8.003906 23.289062 8.003906 L 23.828125 8.003906 C 23.9375 8.003906 24.03125 8.097656 24.03125 8.207031 C 24.03125 8.320312 23.9375 8.414062 23.828125 8.414062 " fill-opacity="1" fill-rule="nonzero"/><path fill="#e6e5e5" d="M 20.605469 11.660156 C 20.574219 11.492188 20.246094 10.992188 19.851562 10.921875 C 19.953125 11.484375 17.933594 12.339844 15.339844 12.828125 C 12.746094 13.320312 10.882812 13.257812 10.78125 12.695312 C 10.511719 12.878906 10.34375 13.460938 10.375 13.609375 C 10.476562 14.171875 12.765625 14.199219 15.621094 13.65625 C 18.480469 13.117188 20.710938 12.226562 20.605469 11.660156 " fill-opacity="1" fill-rule="nonzero"/></svg>