<svg xmlns="http://www.w3.org/2000/svg" xmlns:xlink="http://www.w3.org/1999/xlink" width="40" zoomAndPan="magnify" viewBox="0 0 30 30.000001" height="40" preserveAspectRatio="xMidYMid meet" version="1.0"><defs><clipPath id="3c3d63858f"><path d="M 0.484375 0 L 29.515625 0 L 29.515625 29.03125 L 0.484375 29.03125 Z M 0.484375 0 " clip-rule="nonzero"/></clipPath><clipPath id="1ebd6f30be"><path d="M 6 4.734375 L 24 4.734375 L 24 17 L 6 17 Z M 6 4.734375 " clip-rule="nonzero"/></clipPath><clipPath id="200baea6e9"><path d="M 23 17 L 29.515625 17 L 29.515625 24.332031 L 23 24.332031 Z M 23 17 " clip-rule="nonzero"/></clipPath><clipPath id="44755890d2"><path d="M 6 16 L 12 16 L 12 24.332031 L 6 24.332031 Z M 6 16 " clip-rule="nonzero"/></clipPath><clipPath id="2ced8364da"><path d="M 12 17 L 18 17 L 18 24.332031 L 12 24.332031 Z M 12 17 " clip-rule="nonzero"/></clipPath><clipPath id="e40bfda23e"><path d="M 17 17 L 24 17 L 24 24.332031 L 17 24.332031 Z M 17 17 " clip-rule="nonzero"/></clipPath><clipPath id="fc80429f27"><path d="M 0.484375 16 L 7 16 L 7 24.332031 L 0.484375 24.332031 Z M 0.484375 16 " clip-rule="nonzero"/></clipPath></defs><g clip-path="url(#3c3d63858f)"><path fill="#ffffff" d="M 0.484375 0 L 29.515625 0 L 29.515625 29.03125 L 0.484375 29.03125 Z M 0.484375 0 " fill-opacity="1" fill-rule="nonzero"/><path fill="#ffffff" d="M 0.484375 0 L 29.515625 0 L 29.515625 29.03125 L 0.484375 29.03125 Z M 0.484375 0 " fill-opacity="1" fill-rule="nonzero"/></g><g clip-path="url(#1ebd6f30be)"><path fill="#2a9740" d="M 9.355469 11.320312 C 9.355469 11.320312 7.933594 11.472656 7.210938 11.78125 C 7.054688 11.101562 8.039062 9.507812 9.050781 8.863281 C 12.785156 6.488281 17.726562 7.988281 19.789062 7.382812 C 22.464844 6.59375 23.320312 4.875 23.386719 4.808594 C 23.453125 4.738281 23.605469 6.6875 22.203125 9.128906 C 20.800781 11.570312 18.164062 16.308594 13.121094 16.375 C 9.429688 16.425781 6.546875 14.609375 6.546875 14.609375 C 6.546875 14.609375 7.566406 13.804688 8.53125 13.5625 C 9.804688 13.246094 10.136719 13.359375 10.578125 13.253906 C 13.375 15.082031 14.261719 15.167969 14.261719 15.167969 C 12.285156 13.851562 11.949219 13.691406 11.695312 13.289062 C 12.507812 13.230469 13.671875 12.933594 13.671875 12.933594 C 13.671875 12.933594 14.570312 13.613281 15.824219 13.675781 C 17.078125 13.734375 17.789062 13.324219 17.789062 13.324219 C 17.789062 13.324219 15.582031 13.3125 14.78125 12.703125 C 16.011719 12.570312 17.683594 11.617188 17.683594 11.617188 C 17.683594 11.617188 18.507812 11.804688 19.714844 11.179688 C 19.039062 11.121094 18.375 10.90625 18.375 10.90625 C 18.375 10.90625 21.179688 8.472656 21.566406 7.554688 C 21.050781 7.820312 19.570312 8.765625 19.070312 8.964844 C 18.570312 9.164062 16.945312 10.085938 16.945312 10.085938 L 17.222656 8.863281 C 17.222656 8.863281 16.742188 9.378906 16.449219 9.847656 C 16.160156 10.316406 16.171875 10.453125 16.171875 10.453125 C 16.171875 10.453125 15.644531 10.636719 14.527344 10.832031 C 13.882812 10.945312 13.554688 10.921875 13.195312 10.996094 C 13.035156 10.191406 14.589844 8.621094 14.589844 8.621094 C 14.589844 8.621094 13.472656 9.328125 12.914062 10.085938 C 12.515625 10.628906 12.433594 11.171875 12.433594 11.171875 L 10.296875 11.242188 C 10.296875 11.242188 11.105469 9.242188 12.566406 8.625 C 12.007812 8.675781 10.199219 9.414062 9.355469 11.320312 " fill-opacity="1" fill-rule="nonzero"/></g><g clip-path="url(#200baea6e9)"><path fill="#2a9740" d="M 26.273438 21.007812 C 26.285156 21.003906 26.300781 21 26.3125 20.992188 C 26.308594 20.988281 26.300781 20.976562 26.296875 20.976562 C 26.285156 20.980469 26.273438 20.984375 26.257812 20.992188 C 26.261719 20.996094 26.269531 21.003906 26.273438 21.007812 Z M 27.957031 19.71875 L 27.96875 19.703125 L 27.953125 19.699219 Z M 25.59375 18.21875 C 25.59375 18.210938 25.59375 18.203125 25.589844 18.203125 C 25.585938 18.199219 25.578125 18.203125 25.570312 18.199219 C 25.574219 18.207031 25.574219 18.214844 25.578125 18.222656 C 25.582031 18.222656 25.589844 18.21875 25.59375 18.21875 Z M 28.242188 21.863281 C 28.238281 21.871094 28.230469 21.875 28.230469 21.878906 C 28.230469 21.886719 28.238281 21.890625 28.242188 21.898438 C 28.246094 21.890625 28.253906 21.886719 28.253906 21.882812 C 28.253906 21.875 28.246094 21.871094 28.242188 21.863281 Z M 24.296875 21.675781 C 24.300781 21.667969 24.304688 21.664062 24.308594 21.660156 C 24.304688 21.65625 24.296875 21.648438 24.292969 21.652344 C 24.289062 21.652344 24.285156 21.660156 24.285156 21.667969 C 24.285156 21.667969 24.292969 21.671875 24.296875 21.675781 Z M 24.910156 21.480469 C 24.921875 21.46875 24.9375 21.453125 24.949219 21.4375 L 24.933594 21.425781 C 24.917969 21.4375 24.90625 21.449219 24.890625 21.464844 C 24.894531 21.46875 24.902344 21.472656 24.910156 21.480469 Z M 25.675781 18.5 C 25.667969 18.476562 25.660156 18.460938 25.65625 18.449219 C 25.636719 18.460938 25.621094 18.46875 25.605469 18.484375 C 25.601562 18.488281 25.617188 18.515625 25.621094 18.515625 C 25.640625 18.515625 25.65625 18.503906 25.675781 18.5 Z M 28.5 19.84375 C 28.496094 19.847656 28.492188 19.855469 28.484375 19.859375 C 28.496094 19.863281 28.507812 19.863281 28.515625 19.867188 C 28.519531 19.863281 28.519531 19.855469 28.523438 19.847656 C 28.515625 19.847656 28.507812 19.847656 28.5 19.84375 Z M 26.210938 21.382812 C 26.207031 21.390625 26.207031 21.398438 26.207031 21.402344 C 26.214844 21.398438 26.226562 21.398438 26.234375 21.390625 C 26.238281 21.390625 26.238281 21.382812 26.238281 21.375 C 26.230469 21.378906 26.21875 21.382812 26.210938 21.382812 Z M 26.578125 21.710938 C 26.566406 21.707031 26.558594 21.699219 26.554688 21.699219 C 26.542969 21.714844 26.527344 21.730469 26.515625 21.746094 C 26.519531 21.75 26.527344 21.757812 26.53125 21.753906 C 26.546875 21.742188 26.5625 21.726562 26.578125 21.710938 Z M 26.417969 21.230469 C 26.398438 21.222656 26.382812 21.214844 26.375 21.21875 C 26.363281 21.222656 26.351562 21.238281 26.347656 21.25 C 26.347656 21.257812 26.363281 21.269531 26.375 21.277344 C 26.386719 21.261719 26.402344 21.246094 26.417969 21.230469 Z M 24.5 18.679688 C 24.480469 18.675781 24.464844 18.667969 24.457031 18.671875 C 24.445312 18.679688 24.4375 18.695312 24.433594 18.707031 C 24.429688 18.710938 24.457031 18.726562 24.457031 18.726562 C 24.472656 18.714844 24.484375 18.699219 24.5 18.679688 Z M 26.648438 22.933594 C 26.640625 22.941406 26.632812 22.953125 26.625 22.964844 C 26.625 22.964844 26.632812 22.972656 26.636719 22.976562 C 26.644531 22.964844 26.648438 22.957031 26.65625 22.945312 C 26.65625 22.941406 26.648438 22.9375 26.648438 22.933594 Z M 24.3125 22.324219 C 24.308594 22.3125 24.308594 22.304688 24.304688 22.292969 C 24.28125 22.300781 24.257812 22.304688 24.234375 22.3125 C 24.234375 22.316406 24.238281 22.339844 24.242188 22.351562 C 24.265625 22.34375 24.289062 22.332031 24.3125 22.324219 Z M 24.390625 23.726562 C 24.394531 23.710938 24.398438 23.699219 24.398438 23.699219 C 24.386719 23.691406 24.371094 23.683594 24.363281 23.6875 C 24.34375 23.695312 24.324219 23.710938 24.308594 23.726562 C 24.304688 23.730469 24.308594 23.746094 24.3125 23.75 C 24.324219 23.757812 24.339844 23.769531 24.347656 23.765625 C 24.363281 23.753906 24.378906 23.738281 24.390625 23.726562 Z M 25.03125 18.707031 C 25.035156 18.707031 25.042969 18.714844 25.046875 18.710938 C 25.054688 18.703125 25.0625 18.691406 25.070312 18.679688 C 25.066406 18.679688 25.054688 18.675781 25.054688 18.679688 C 25.046875 18.6875 25.039062 18.699219 25.03125 18.707031 Z M 24.867188 18.90625 C 24.816406 18.902344 24.792969 18.914062 24.800781 18.96875 C 24.820312 18.949219 24.839844 18.929688 24.867188 18.90625 Z M 24.5 21.207031 C 24.492188 21.203125 24.484375 21.195312 24.480469 21.191406 C 24.460938 21.203125 24.441406 21.21875 24.425781 21.230469 C 24.421875 21.234375 24.421875 21.246094 24.421875 21.253906 C 24.429688 21.253906 24.445312 21.261719 24.453125 21.257812 C 24.46875 21.242188 24.484375 21.222656 24.5 21.207031 Z M 24.222656 22.921875 C 24.203125 22.910156 24.183594 22.898438 24.164062 22.890625 C 24.160156 22.890625 24.140625 22.921875 24.144531 22.925781 C 24.15625 22.941406 24.175781 22.953125 24.191406 22.964844 C 24.199219 22.953125 24.207031 22.941406 24.222656 22.921875 Z M 24.707031 22.820312 C 24.757812 22.832031 24.789062 22.8125 24.800781 22.738281 C 24.757812 22.773438 24.730469 22.796875 24.707031 22.820312 Z M 24.667969 18.5 C 24.660156 18.492188 24.652344 18.480469 24.640625 18.472656 C 24.617188 18.5 24.589844 18.53125 24.566406 18.558594 C 24.570312 18.566406 24.578125 18.574219 24.585938 18.578125 C 24.613281 18.554688 24.640625 18.527344 24.667969 18.5 Z M 24.480469 23.003906 C 24.5625 22.988281 24.5625 22.988281 24.59375 22.917969 C 24.550781 22.949219 24.515625 22.976562 24.480469 23.003906 Z M 24.277344 23.464844 C 24.261719 23.445312 24.25 23.425781 24.238281 23.417969 C 24.222656 23.414062 24.1875 23.425781 24.183594 23.433594 C 24.175781 23.464844 24.179688 23.5 24.21875 23.5 C 24.234375 23.503906 24.253906 23.484375 24.277344 23.464844 Z M 24.445312 18.386719 C 24.464844 18.378906 24.492188 18.371094 24.5 18.359375 C 24.511719 18.335938 24.515625 18.304688 24.519531 18.28125 C 24.5 18.273438 24.476562 18.261719 24.457031 18.269531 C 24.410156 18.285156 24.417969 18.324219 24.429688 18.363281 C 24.429688 18.367188 24.4375 18.375 24.445312 18.386719 Z M 24.347656 22.609375 C 24.265625 22.574219 24.222656 22.625 24.175781 22.648438 C 24.171875 22.679688 24.175781 22.722656 24.214844 22.703125 C 24.261719 22.683594 24.296875 22.644531 24.347656 22.609375 Z M 28.445312 20.21875 C 28.363281 20.28125 28.296875 20.308594 28.289062 20.417969 C 28.351562 20.355469 28.441406 20.347656 28.445312 20.21875 Z M 28.210938 20.136719 C 28.253906 20.097656 28.296875 20.054688 28.375 19.988281 C 28.253906 19.996094 28.214844 20.046875 28.210938 20.136719 Z M 25.347656 19.839844 C 25.414062 19.835938 25.464844 19.804688 25.476562 19.71875 C 25.421875 19.765625 25.386719 19.804688 25.347656 19.839844 Z M 28.429688 19.609375 C 28.511719 19.554688 28.550781 19.535156 28.585938 19.503906 C 28.605469 19.484375 28.628906 19.457031 28.589844 19.425781 C 28.515625 19.441406 28.476562 19.492188 28.429688 19.609375 Z M 25.820312 19.394531 C 25.78125 19.4375 25.738281 19.480469 25.699219 19.523438 C 25.703125 19.527344 25.710938 19.53125 25.722656 19.542969 C 25.769531 19.503906 25.863281 19.511719 25.820312 19.394531 Z M 27.296875 23.652344 C 27.265625 23.695312 27.234375 23.714844 27.222656 23.746094 C 27.21875 23.753906 27.257812 23.785156 27.285156 23.796875 C 27.300781 23.808594 27.324219 23.800781 27.363281 23.800781 C 27.339844 23.75 27.324219 23.710938 27.296875 23.652344 Z M 26.921875 22.675781 C 26.96875 22.605469 26.992188 22.582031 26.988281 22.570312 C 26.972656 22.511719 26.945312 22.457031 26.917969 22.398438 C 26.914062 22.394531 26.886719 22.394531 26.875 22.398438 C 26.867188 22.40625 26.859375 22.433594 26.863281 22.4375 C 26.925781 22.484375 26.921875 22.554688 26.921875 22.675781 Z M 27.851562 23.667969 C 27.6875 23.78125 27.6875 23.78125 27.65625 23.878906 C 27.757812 23.84375 27.804688 23.753906 27.851562 23.667969 Z M 26.925781 23.039062 C 26.808594 23.101562 26.746094 23.171875 26.734375 23.246094 C 26.730469 23.257812 26.761719 23.277344 26.777344 23.300781 C 26.828125 23.214844 26.871094 23.136719 26.925781 23.039062 Z M 26.085938 20.285156 C 26.074219 20.273438 26.0625 20.261719 26.050781 20.25 C 25.988281 20.304688 25.925781 20.359375 25.871094 20.417969 C 25.847656 20.441406 25.808594 20.46875 25.84375 20.519531 C 25.925781 20.441406 26.007812 20.363281 26.085938 20.285156 Z M 24.96875 22.628906 C 25.070312 22.535156 25.082031 22.460938 25.054688 22.257812 C 25.019531 22.277344 24.992188 22.292969 24.960938 22.308594 C 25.023438 22.449219 25.023438 22.449219 24.96875 22.628906 Z M 24.667969 20.722656 C 24.65625 20.714844 24.644531 20.703125 24.632812 20.695312 C 24.550781 20.761719 24.46875 20.832031 24.390625 20.902344 C 24.375 20.917969 24.371094 20.949219 24.34375 21.015625 C 24.496094 20.917969 24.59375 20.832031 24.667969 20.722656 Z M 24.398438 23.386719 C 24.609375 23.316406 24.628906 23.304688 24.71875 23.148438 C 24.585938 23.214844 24.476562 23.269531 24.398438 23.386719 Z M 25.027344 18.363281 C 25.039062 18.371094 25.050781 18.382812 25.0625 18.394531 C 25.210938 18.253906 25.363281 18.113281 25.515625 17.96875 C 25.519531 17.964844 25.503906 17.945312 25.492188 17.917969 C 25.316406 18.046875 25.175781 18.210938 25.027344 18.363281 Z M 28.652344 17.855469 C 28.664062 17.867188 28.679688 17.882812 28.691406 17.894531 C 28.828125 17.789062 28.96875 17.683594 29.117188 17.570312 C 29.097656 17.535156 29.078125 17.507812 29.058594 17.472656 C 28.917969 17.605469 28.785156 17.730469 28.652344 17.855469 Z M 25.945312 19.65625 C 25.804688 19.75 25.699219 19.851562 25.59375 19.949219 C 25.527344 20.011719 25.542969 20.074219 25.609375 20.136719 C 25.746094 20.039062 25.835938 19.902344 25.941406 19.78125 C 25.960938 19.761719 25.945312 19.710938 25.945312 19.65625 Z M 25.707031 18.707031 C 25.605469 18.761719 25.539062 18.824219 25.476562 18.894531 C 25.253906 19.125 25.027344 19.351562 24.78125 19.558594 C 24.679688 19.648438 24.585938 19.742188 24.496094 19.835938 C 24.453125 19.882812 24.417969 19.9375 24.472656 20.011719 C 24.691406 19.851562 24.851562 19.636719 25.042969 19.453125 C 25.273438 19.230469 25.488281 18.996094 25.710938 18.765625 C 25.714844 18.761719 25.710938 18.75 25.707031 18.707031 Z M 25.820312 19.117188 C 25.8125 19.085938 25.804688 19.046875 25.796875 18.992188 C 25.746094 19.027344 25.707031 19.050781 25.675781 19.082031 C 25.503906 19.25 25.332031 19.421875 25.160156 19.589844 C 24.9375 19.808594 24.710938 20.019531 24.488281 20.238281 C 24.460938 20.265625 24.402344 20.289062 24.445312 20.351562 C 24.925781 19.976562 25.363281 19.558594 25.820312 19.117188 Z M 28.296875 18.925781 C 28.300781 18.914062 28.296875 18.890625 28.304688 18.882812 C 28.527344 18.679688 28.75 18.472656 28.96875 18.265625 C 28.996094 18.242188 29.023438 18.210938 28.96875 18.175781 C 28.777344 18.347656 28.585938 18.515625 28.398438 18.6875 C 28.367188 18.714844 28.347656 18.746094 28.320312 18.777344 C 28.277344 18.820312 28.289062 18.875 28.296875 18.929688 C 28.140625 18.914062 28.109375 18.929688 28.089844 19.0625 C 28.132812 19.027344 28.167969 19 28.203125 18.976562 C 28.230469 18.957031 28.265625 18.945312 28.296875 18.925781 Z M 24.535156 21.886719 C 24.546875 21.769531 24.6875 21.738281 24.734375 21.59375 C 24.65625 21.660156 24.609375 21.699219 24.566406 21.738281 C 24.519531 21.78125 24.53125 21.835938 24.535156 21.886719 C 24.429688 21.875 24.347656 21.921875 24.269531 21.976562 C 24.292969 22.035156 24.320312 22.015625 24.347656 22.007812 C 24.421875 21.988281 24.445312 21.886719 24.535156 21.886719 Z M 26.378906 22.523438 C 26.492188 22.5 26.558594 22.410156 26.625 22.328125 C 26.644531 22.304688 26.628906 22.253906 26.632812 22.214844 C 26.652344 22.222656 26.675781 22.226562 26.695312 22.230469 C 26.703125 22.230469 26.710938 22.222656 26.714844 22.21875 C 26.707031 22.214844 26.703125 22.203125 26.695312 22.203125 C 26.675781 22.203125 26.652344 22.210938 26.632812 22.214844 C 26.589844 22.355469 26.460938 22.417969 26.382812 22.53125 C 26.363281 22.535156 26.339844 22.539062 26.320312 22.546875 C 26.3125 22.546875 26.3125 22.558594 26.3125 22.566406 C 26.3125 22.574219 26.324219 22.582031 26.328125 22.582031 C 26.359375 22.578125 26.394531 22.570312 26.378906 22.523438 Z M 25.449219 20.976562 C 25.425781 20.988281 25.414062 20.988281 25.414062 20.992188 C 25.410156 21.0625 25.398438 21.132812 25.398438 21.203125 C 25.390625 21.558594 25.390625 21.910156 25.378906 22.261719 C 25.367188 22.5625 25.339844 22.859375 25.320312 23.15625 C 25.3125 23.289062 25.300781 23.421875 25.296875 23.554688 C 25.292969 23.652344 25.265625 23.738281 25.226562 23.824219 C 25.125 24.042969 24.90625 24.160156 24.671875 24.121094 C 24.558594 24.101562 24.441406 24.085938 24.328125 24.074219 C 24.207031 24.066406 24.121094 24.011719 24.050781 23.917969 C 23.960938 23.804688 23.914062 23.671875 23.882812 23.535156 C 23.820312 23.269531 23.8125 23.003906 23.859375 22.738281 C 23.929688 22.320312 23.957031 21.898438 23.984375 21.476562 C 24 21.234375 24.023438 20.992188 24.046875 20.75 C 24.078125 20.4375 24.125 20.125 24.148438 19.8125 C 24.160156 19.613281 24.144531 19.40625 24.140625 19.203125 C 24.136719 18.851562 24.132812 18.496094 24.132812 18.144531 C 24.132812 18.097656 24.152344 18.054688 24.171875 18.011719 C 24.199219 17.9375 24.234375 17.867188 24.253906 17.792969 C 24.289062 17.65625 24.378906 17.578125 24.507812 17.542969 C 24.628906 17.507812 24.75 17.480469 24.875 17.457031 C 24.980469 17.433594 25.089844 17.425781 25.199219 17.410156 C 25.296875 17.398438 25.382812 17.417969 25.460938 17.480469 C 25.53125 17.535156 25.601562 17.582031 25.671875 17.632812 C 25.789062 17.71875 25.859375 17.839844 25.886719 17.984375 C 25.96875 18.375 26.050781 18.765625 26.132812 19.15625 C 26.152344 19.242188 26.171875 19.324219 26.191406 19.410156 C 26.277344 19.742188 26.34375 20.082031 26.449219 20.410156 C 26.558594 20.753906 26.699219 21.085938 26.828125 21.421875 C 26.898438 21.597656 26.96875 21.769531 27.046875 21.941406 C 27.125 22.121094 27.214844 22.296875 27.300781 22.46875 C 27.316406 22.5 27.347656 22.523438 27.386719 22.570312 C 27.417969 22.492188 27.449219 22.4375 27.460938 22.378906 C 27.484375 22.265625 27.507812 22.148438 27.515625 22.03125 C 27.53125 21.75 27.546875 21.464844 27.546875 21.183594 C 27.539062 20.425781 27.640625 19.683594 27.789062 18.941406 C 27.824219 18.757812 27.882812 18.578125 27.933594 18.398438 C 28.023438 18.085938 28.175781 17.800781 28.367188 17.539062 C 28.445312 17.429688 28.550781 17.347656 28.664062 17.273438 C 28.765625 17.207031 28.890625 17.203125 29.003906 17.21875 C 29.117188 17.230469 29.230469 17.261719 29.308594 17.371094 C 29.351562 17.433594 29.421875 17.476562 29.492188 17.535156 C 29.496094 17.738281 29.5 17.945312 29.363281 18.128906 C 29.300781 18.214844 29.261719 18.324219 29.226562 18.425781 C 29.058594 18.890625 28.878906 19.351562 28.816406 19.847656 C 28.800781 19.980469 28.75 20.105469 28.726562 20.238281 C 28.699219 20.414062 28.683594 20.59375 28.664062 20.773438 C 28.621094 21.148438 28.589844 21.523438 28.542969 21.894531 C 28.488281 22.292969 28.429688 22.6875 28.359375 23.082031 C 28.328125 23.25 28.269531 23.414062 28.21875 23.578125 C 28.140625 23.847656 27.933594 24.003906 27.714844 24.144531 C 27.617188 24.207031 27.488281 24.191406 27.371094 24.152344 C 27.195312 24.097656 27.054688 23.988281 26.914062 23.875 C 26.648438 23.652344 26.433594 23.378906 26.246094 23.089844 C 26.082031 22.847656 25.964844 22.582031 25.875 22.304688 C 25.859375 22.253906 25.851562 22.199219 25.828125 22.148438 C 25.6875 21.796875 25.59375 21.433594 25.496094 21.070312 C 25.484375 21.039062 25.464844 21.007812 25.449219 20.976562 " fill-opacity="1" fill-rule="evenodd"/></g><g clip-path="url(#44755890d2)"><path fill="#2a9740" d="M 7.398438 20.582031 C 7.394531 20.578125 7.390625 20.574219 7.382812 20.566406 C 7.378906 20.578125 7.375 20.589844 7.371094 20.601562 C 7.371094 20.605469 7.378906 20.609375 7.382812 20.617188 C 7.390625 20.605469 7.394531 20.59375 7.398438 20.582031 Z M 8.558594 23.335938 C 8.554688 23.347656 8.546875 23.359375 8.539062 23.371094 C 8.550781 23.375 8.558594 23.378906 8.570312 23.382812 C 8.574219 23.382812 8.582031 23.367188 8.582031 23.363281 C 8.578125 23.355469 8.566406 23.347656 8.558594 23.335938 Z M 10.078125 20.183594 C 10.066406 20.191406 10.046875 20.195312 10.046875 20.203125 C 10.042969 20.214844 10.050781 20.230469 10.058594 20.242188 C 10.070312 20.234375 10.085938 20.222656 10.101562 20.210938 C 10.09375 20.203125 10.085938 20.195312 10.078125 20.183594 Z M 9.617188 20.210938 C 9.605469 20.207031 9.597656 20.199219 9.585938 20.195312 C 9.585938 20.199219 9.578125 20.207031 9.578125 20.210938 C 9.582031 20.222656 9.589844 20.230469 9.59375 20.242188 C 9.601562 20.230469 9.609375 20.222656 9.617188 20.210938 Z M 7.449219 22.757812 C 7.441406 22.753906 7.421875 22.742188 7.417969 22.746094 C 7.410156 22.757812 7.402344 22.773438 7.398438 22.785156 C 7.410156 22.789062 7.421875 22.796875 7.4375 22.800781 C 7.441406 22.785156 7.445312 22.773438 7.449219 22.757812 Z M 9.726562 17.984375 C 9.734375 17.984375 9.742188 17.980469 9.746094 17.980469 C 9.738281 17.972656 9.730469 17.964844 9.722656 17.957031 C 9.71875 17.964844 9.714844 17.96875 9.710938 17.976562 C 9.714844 17.980469 9.722656 17.984375 9.726562 17.984375 Z M 8.859375 18.003906 C 8.851562 18.023438 8.84375 18.039062 8.832031 18.058594 C 8.832031 18.058594 8.84375 18.066406 8.847656 18.070312 C 8.859375 18.054688 8.875 18.035156 8.886719 18.019531 C 8.882812 18.015625 8.875 18.011719 8.859375 18.003906 Z M 8.898438 20.347656 C 8.894531 20.34375 8.890625 20.335938 8.886719 20.332031 C 8.875 20.339844 8.863281 20.347656 8.855469 20.355469 C 8.855469 20.355469 8.863281 20.367188 8.867188 20.371094 C 8.878906 20.363281 8.886719 20.355469 8.898438 20.347656 Z M 7.96875 21.613281 C 7.949219 21.59375 7.941406 21.585938 7.941406 21.585938 C 7.925781 21.597656 7.910156 21.609375 7.894531 21.621094 C 7.902344 21.628906 7.910156 21.644531 7.914062 21.644531 C 7.933594 21.636719 7.953125 21.625 7.96875 21.613281 Z M 8.257812 22.964844 C 8.246094 22.980469 8.234375 23 8.230469 23.015625 C 8.230469 23.019531 8.261719 23.039062 8.265625 23.035156 C 8.28125 23.023438 8.289062 23.007812 8.292969 22.988281 C 8.296875 22.984375 8.273438 22.976562 8.257812 22.964844 Z M 9.21875 20.300781 C 9.234375 20.3125 9.246094 20.320312 9.257812 20.328125 C 9.269531 20.308594 9.28125 20.289062 9.289062 20.269531 C 9.289062 20.269531 9.265625 20.25 9.261719 20.253906 C 9.246094 20.265625 9.234375 20.28125 9.21875 20.300781 Z M 9.6875 20.949219 C 9.71875 20.921875 9.742188 20.910156 9.746094 20.894531 C 9.75 20.875 9.734375 20.851562 9.722656 20.835938 C 9.71875 20.832031 9.675781 20.847656 9.675781 20.855469 C 9.671875 20.878906 9.679688 20.90625 9.6875 20.949219 Z M 8.789062 20.933594 C 8.773438 20.964844 8.761719 20.988281 8.753906 21.015625 C 8.753906 21.019531 8.761719 21.027344 8.769531 21.027344 C 8.8125 21.035156 8.820312 21.003906 8.820312 20.976562 C 8.820312 20.964844 8.804688 20.957031 8.789062 20.933594 Z M 10.253906 20.941406 C 10.230469 20.917969 10.207031 20.890625 10.199219 20.894531 C 10.175781 20.90625 10.148438 20.925781 10.140625 20.949219 C 10.132812 20.980469 10.160156 21.007812 10.195312 20.996094 C 10.214844 20.992188 10.230469 20.964844 10.253906 20.941406 Z M 8.339844 23.257812 C 8.375 23.230469 8.398438 23.214844 8.414062 23.195312 C 8.417969 23.1875 8.390625 23.164062 8.378906 23.144531 C 8.359375 23.160156 8.335938 23.175781 8.320312 23.195312 C 8.316406 23.203125 8.332031 23.226562 8.339844 23.257812 Z M 8.3125 18.816406 C 8.246094 18.851562 8.207031 18.914062 8.175781 19 C 8.285156 18.933594 8.285156 18.933594 8.3125 18.816406 Z M 10.265625 23.054688 C 10.105469 23.074219 10.105469 23.074219 10.109375 23.195312 C 10.109375 23.203125 10.125 23.214844 10.136719 23.230469 C 10.175781 23.179688 10.210938 23.128906 10.265625 23.054688 Z M 7.316406 22.039062 C 7.429688 21.953125 7.492188 21.847656 7.554688 21.742188 C 7.605469 21.664062 7.652344 21.582031 7.707031 21.507812 C 7.921875 21.207031 8.140625 20.914062 8.355469 20.617188 C 8.371094 20.59375 8.378906 20.5625 8.386719 20.539062 C 8.320312 20.488281 8.28125 20.515625 8.246094 20.566406 C 8 20.910156 7.769531 21.265625 7.503906 21.589844 C 7.449219 21.65625 7.40625 21.730469 7.351562 21.796875 C 7.300781 21.871094 7.289062 21.945312 7.316406 22.039062 Z M 8.273438 18.015625 C 8.246094 18.023438 8.210938 18.023438 8.195312 18.042969 C 8.003906 18.324219 7.808594 18.605469 7.621094 18.890625 C 7.601562 18.925781 7.605469 18.976562 7.597656 19.039062 C 7.734375 18.910156 8.042969 18.433594 8.265625 18.011719 C 8.273438 18 8.28125 17.984375 8.285156 17.972656 C 8.285156 17.972656 8.273438 17.96875 8.269531 17.964844 C 8.269531 17.980469 8.273438 18 8.273438 18.015625 Z M 10.554688 17.570312 C 10.570312 17.566406 10.589844 17.570312 10.597656 17.5625 C 10.679688 17.46875 10.761719 17.375 10.832031 17.273438 C 10.863281 17.234375 10.871094 17.179688 10.890625 17.128906 C 10.851562 17.121094 10.828125 17.109375 10.804688 17.113281 C 10.777344 17.113281 10.746094 17.117188 10.71875 17.121094 C 10.707031 17.292969 10.707031 17.292969 10.597656 17.46875 C 10.578125 17.5 10.570312 17.539062 10.558594 17.574219 C 10.496094 17.605469 10.453125 17.648438 10.433594 17.757812 C 10.511719 17.6875 10.5625 17.648438 10.554688 17.570312 Z M 8.003906 22.367188 C 8.042969 22.355469 8.09375 22.351562 8.125 22.328125 C 8.164062 22.296875 8.171875 22.253906 8.097656 22.222656 C 8.066406 22.273438 8.039062 22.324219 8.011719 22.375 C 7.976562 22.417969 7.941406 22.464844 7.910156 22.507812 C 7.976562 22.484375 8.039062 22.453125 8.003906 22.367188 Z M 8.03125 19.625 C 8.113281 19.625 8.113281 19.625 8.167969 19.511719 C 8.125 19.550781 8.082031 19.589844 8.039062 19.628906 C 8.039062 19.644531 8.039062 19.660156 8.039062 19.675781 C 8.039062 19.679688 8.042969 19.6875 8.042969 19.691406 C 8.050781 19.679688 8.0625 19.667969 8.058594 19.660156 C 8.054688 19.648438 8.042969 19.636719 8.03125 19.625 Z M 10.4375 20.253906 C 10.425781 20.25 10.414062 20.25 10.417969 20.25 C 10.417969 20.25 10.429688 20.25 10.445312 20.25 C 10.464844 20.289062 10.480469 20.328125 10.503906 20.363281 C 10.503906 20.371094 10.53125 20.367188 10.542969 20.359375 C 10.550781 20.351562 10.554688 20.324219 10.550781 20.324219 C 10.515625 20.296875 10.476562 20.273438 10.4375 20.253906 Z M 7.707031 23.210938 C 7.761719 23.21875 7.808594 23.222656 7.796875 23.140625 C 7.765625 23.167969 7.742188 23.1875 7.714844 23.214844 C 7.703125 23.246094 7.6875 23.28125 7.675781 23.316406 C 7.742188 23.320312 7.738281 23.285156 7.730469 23.246094 C 7.730469 23.234375 7.71875 23.222656 7.707031 23.210938 Z M 10.015625 23.507812 C 9.917969 23.507812 9.921875 23.582031 9.917969 23.648438 C 9.773438 23.6875 9.738281 23.816406 9.683594 23.933594 C 9.679688 23.9375 9.695312 23.960938 9.707031 23.964844 C 9.71875 23.96875 9.742188 23.96875 9.75 23.957031 C 9.765625 23.9375 9.785156 23.914062 9.796875 23.886719 C 9.828125 23.800781 9.839844 23.707031 9.917969 23.648438 C 9.914062 23.574219 9.96875 23.542969 10.019531 23.503906 C 10.015625 23.492188 10.011719 23.476562 10.011719 23.464844 C 10.011719 23.480469 10.015625 23.492188 10.015625 23.507812 Z M 7.902344 19.96875 C 7.894531 19.976562 7.886719 19.980469 7.878906 19.988281 C 7.875 19.980469 7.875 19.972656 7.875 19.96875 C 7.882812 19.96875 7.890625 19.96875 7.902344 19.964844 C 7.902344 19.949219 7.902344 19.929688 7.902344 19.910156 L 7.894531 19.910156 C 7.898438 19.929688 7.898438 19.949219 7.902344 19.96875 Z M 7.300781 18.730469 C 7.257812 18.679688 7.199219 18.617188 7.148438 18.550781 C 7.054688 18.421875 6.980469 18.285156 7 18.117188 C 7.003906 18.089844 7.003906 18.054688 7.015625 18.027344 C 7.117188 17.8125 7.25 17.617188 7.472656 17.507812 C 7.65625 17.421875 7.84375 17.339844 8.023438 17.25 C 8.269531 17.132812 8.535156 17.105469 8.796875 17.0625 C 9.097656 17.015625 9.402344 16.96875 9.703125 16.9375 C 10.140625 16.894531 10.574219 16.832031 11.015625 16.867188 C 11.3125 16.890625 11.5625 17 11.765625 17.210938 C 11.941406 17.398438 12.011719 17.628906 11.949219 17.886719 C 11.929688 17.96875 11.894531 18.050781 11.878906 18.132812 C 11.84375 18.28125 11.730469 18.347656 11.601562 18.34375 C 11.433594 18.34375 11.261719 18.371094 11.089844 18.339844 C 10.851562 18.292969 10.609375 18.28125 10.367188 18.265625 C 10.171875 18.253906 9.976562 18.257812 9.78125 18.257812 C 9.742188 18.257812 9.703125 18.269531 9.664062 18.277344 C 9.515625 18.296875 9.371094 18.320312 9.222656 18.335938 C 8.933594 18.363281 8.746094 18.5 8.671875 18.792969 C 8.589844 19.105469 8.550781 19.425781 8.546875 19.746094 C 8.542969 19.851562 8.511719 19.964844 8.574219 20.074219 C 8.78125 20.085938 8.976562 20.035156 9.175781 19.988281 C 9.636719 19.886719 10.09375 19.910156 10.546875 20.039062 C 10.691406 20.082031 10.816406 20.15625 10.929688 20.257812 C 11.003906 20.328125 11.074219 20.402344 11.148438 20.472656 C 11.246094 20.566406 11.273438 20.691406 11.285156 20.8125 C 11.292969 20.929688 11.257812 21.042969 11.140625 21.117188 C 11.03125 21.183594 10.914062 21.238281 10.792969 21.25 C 10.527344 21.273438 10.265625 21.273438 10 21.230469 C 9.664062 21.171875 9.328125 21.195312 9 21.292969 C 8.859375 21.332031 8.71875 21.386719 8.582031 21.4375 C 8.484375 21.46875 8.449219 21.535156 8.457031 21.636719 C 8.460938 21.699219 8.453125 21.761719 8.449219 21.824219 C 8.425781 22.183594 8.5 22.527344 8.601562 22.867188 C 8.613281 22.910156 8.632812 22.953125 8.660156 22.992188 C 8.71875 23.085938 8.792969 23.140625 8.914062 23.113281 C 9.132812 23.054688 9.355469 23.011719 9.570312 22.945312 C 9.910156 22.839844 10.257812 22.78125 10.609375 22.769531 C 10.945312 22.761719 11.257812 22.847656 11.554688 23.007812 C 11.652344 23.058594 11.734375 23.140625 11.785156 23.238281 C 11.855469 23.367188 11.921875 23.5 11.945312 23.667969 C 11.785156 23.953125 11.558594 24.136719 11.203125 24.132812 C 11.046875 24.132812 10.890625 24.140625 10.734375 24.125 C 10.449219 24.097656 10.175781 24.140625 9.894531 24.183594 C 9.648438 24.226562 9.398438 24.242188 9.152344 24.265625 C 9.113281 24.269531 9.070312 24.265625 9.03125 24.269531 C 8.671875 24.316406 8.332031 24.234375 8 24.101562 C 7.71875 23.988281 7.488281 23.816406 7.335938 23.539062 C 7.179688 23.253906 7.074219 22.953125 7.019531 22.636719 C 6.980469 22.40625 6.988281 22.167969 6.992188 21.933594 C 6.996094 21.492188 7.011719 21.054688 7.035156 20.617188 C 7.039062 20.46875 7.074219 20.320312 7.09375 20.175781 C 7.132812 19.910156 7.175781 19.648438 7.214844 19.382812 C 7.242188 19.183594 7.269531 18.980469 7.300781 18.730469 " fill-opacity="1" fill-rule="evenodd"/></g><g clip-path="url(#2ced8364da)"><path fill="#2a9740" d="M 16.632812 22.773438 L 16.628906 22.757812 L 16.621094 22.773438 Z M 14.285156 23.789062 C 14.28125 23.78125 14.277344 23.773438 14.273438 23.773438 C 14.269531 23.769531 14.261719 23.773438 14.253906 23.773438 C 14.257812 23.78125 14.261719 23.792969 14.265625 23.800781 C 14.273438 23.796875 14.277344 23.792969 14.285156 23.789062 Z M 13.382812 21.308594 C 13.378906 21.308594 13.371094 21.3125 13.367188 21.3125 C 13.371094 21.324219 13.375 21.332031 13.378906 21.339844 C 13.382812 21.335938 13.390625 21.332031 13.390625 21.324219 C 13.390625 21.320312 13.386719 21.3125 13.382812 21.308594 Z M 16.914062 22.121094 C 16.914062 22.117188 16.910156 22.113281 16.910156 22.105469 C 16.90625 22.113281 16.90625 22.121094 16.902344 22.128906 C 16.90625 22.125 16.910156 22.125 16.914062 22.121094 Z M 14.835938 23.324219 C 14.832031 23.320312 14.828125 23.308594 14.828125 23.308594 C 14.816406 23.3125 14.804688 23.316406 14.789062 23.320312 C 14.792969 23.332031 14.800781 23.34375 14.804688 23.355469 C 14.8125 23.34375 14.824219 23.335938 14.835938 23.324219 Z M 14.464844 23.835938 C 14.480469 23.84375 14.496094 23.851562 14.503906 23.847656 C 14.515625 23.84375 14.515625 23.824219 14.523438 23.8125 C 14.511719 23.808594 14.496094 23.796875 14.488281 23.804688 C 14.480469 23.808594 14.472656 23.824219 14.464844 23.835938 Z M 16.398438 23.066406 C 16.386719 23.085938 16.378906 23.101562 16.371094 23.121094 C 16.371094 23.125 16.378906 23.132812 16.382812 23.136719 C 16.398438 23.125 16.414062 23.109375 16.429688 23.097656 C 16.421875 23.089844 16.410156 23.082031 16.398438 23.066406 Z M 13.347656 20.570312 C 13.351562 20.574219 13.355469 20.585938 13.359375 20.585938 C 13.367188 20.582031 13.382812 20.578125 13.386719 20.566406 C 13.390625 20.5625 13.378906 20.550781 13.375 20.539062 C 13.367188 20.550781 13.359375 20.558594 13.347656 20.570312 Z M 13.566406 21.945312 C 13.5625 21.949219 13.550781 21.953125 13.546875 21.957031 C 13.535156 21.980469 13.523438 22.003906 13.511719 22.027344 L 13.527344 22.042969 C 13.546875 22.023438 13.570312 22.007812 13.585938 21.984375 C 13.589844 21.980469 13.574219 21.960938 13.566406 21.945312 Z M 16.421875 22.3125 C 16.410156 22.320312 16.394531 22.324219 16.386719 22.332031 C 16.382812 22.335938 16.390625 22.351562 16.394531 22.363281 C 16.398438 22.359375 16.40625 22.355469 16.410156 22.347656 C 16.414062 22.335938 16.417969 22.324219 16.421875 22.3125 Z M 16.894531 21.292969 C 16.90625 21.261719 16.917969 21.238281 16.925781 21.214844 C 16.929688 21.210938 16.917969 21.203125 16.914062 21.195312 C 16.898438 21.214844 16.878906 21.234375 16.859375 21.253906 C 16.859375 21.253906 16.875 21.269531 16.894531 21.292969 Z M 15.378906 21.585938 C 15.332031 21.617188 15.316406 21.628906 15.300781 21.640625 C 15.300781 21.644531 15.3125 21.660156 15.316406 21.667969 C 15.328125 21.652344 15.34375 21.632812 15.378906 21.585938 Z M 15.203125 23.835938 C 15.195312 23.816406 15.1875 23.796875 15.183594 23.792969 C 15.164062 23.792969 15.148438 23.804688 15.128906 23.808594 C 15.136719 23.824219 15.140625 23.847656 15.148438 23.851562 C 15.164062 23.851562 15.183594 23.84375 15.203125 23.835938 Z M 14.234375 23.050781 C 14.226562 23.042969 14.222656 23.035156 14.21875 23.03125 C 14.207031 23.039062 14.191406 23.046875 14.183594 23.058594 C 14.179688 23.070312 14.179688 23.085938 14.179688 23.097656 C 14.183594 23.097656 14.191406 23.101562 14.195312 23.101562 C 14.210938 23.085938 14.222656 23.066406 14.234375 23.050781 Z M 13.488281 19.796875 C 13.414062 19.867188 13.414062 19.867188 13.488281 19.917969 C 13.488281 19.875 13.488281 19.839844 13.488281 19.796875 Z M 14.546875 23.269531 C 14.558594 23.234375 14.570312 23.21875 14.566406 23.210938 C 14.554688 23.191406 14.539062 23.175781 14.519531 23.167969 C 14.511719 23.160156 14.492188 23.175781 14.480469 23.179688 C 14.5 23.207031 14.519531 23.234375 14.546875 23.269531 Z M 15.09375 23.394531 C 15.101562 23.398438 15.113281 23.402344 15.121094 23.40625 C 15.132812 23.382812 15.144531 23.359375 15.15625 23.335938 C 15.144531 23.332031 15.132812 23.328125 15.121094 23.324219 C 15.113281 23.347656 15.105469 23.371094 15.09375 23.394531 Z M 14.570312 22.21875 C 14.554688 22.1875 14.496094 22.171875 14.46875 22.195312 C 14.460938 22.199219 14.457031 22.230469 14.460938 22.230469 C 14.484375 22.242188 14.507812 22.257812 14.53125 22.257812 C 14.546875 22.257812 14.558594 22.230469 14.570312 22.21875 Z M 12.765625 21.644531 C 12.734375 21.652344 12.726562 21.652344 12.71875 21.65625 C 12.652344 21.695312 12.613281 21.773438 12.65625 21.773438 C 12.71875 21.777344 12.730469 21.722656 12.753906 21.6875 C 12.753906 21.679688 12.757812 21.671875 12.765625 21.644531 Z M 12.613281 20.976562 C 12.707031 20.964844 12.707031 20.964844 12.726562 20.886719 C 12.703125 20.894531 12.679688 20.894531 12.664062 20.910156 C 12.644531 20.929688 12.628906 20.953125 12.613281 20.976562 Z M 15.808594 21.003906 C 15.800781 20.996094 15.796875 20.992188 15.792969 20.988281 C 15.753906 20.972656 15.714844 20.972656 15.691406 21.007812 C 15.683594 21.023438 15.691406 21.050781 15.691406 21.070312 C 15.71875 21.066406 15.746094 21.066406 15.769531 21.054688 C 15.789062 21.046875 15.796875 21.023438 15.808594 21.003906 Z M 15 22.089844 C 15.066406 22.050781 15.109375 22.039062 15.125 22.015625 C 15.144531 21.980469 15.144531 21.933594 15.160156 21.84375 C 15.070312 21.921875 15.027344 21.96875 15 22.089844 Z M 13.078125 19.492188 C 12.945312 19.488281 12.945312 19.488281 12.929688 19.609375 C 12.988281 19.5625 13.03125 19.527344 13.078125 19.492188 Z M 12.871094 20.425781 C 12.75 20.46875 12.75 20.46875 12.667969 20.601562 C 12.765625 20.570312 12.808594 20.496094 12.871094 20.425781 Z M 14.453125 17.75 C 14.277344 17.859375 14.277344 17.859375 14.253906 17.949219 C 14.304688 17.898438 14.359375 17.84375 14.453125 17.75 Z M 16.625 21.195312 C 16.652344 21.171875 16.675781 21.164062 16.6875 21.144531 C 16.71875 21.09375 16.703125 21.046875 16.652344 21.039062 C 16.59375 21.035156 16.535156 21.039062 16.480469 21.039062 C 16.585938 21.027344 16.589844 21.128906 16.625 21.195312 Z M 15.265625 21.269531 C 15.402344 21.164062 15.402344 21.164062 15.425781 21.046875 C 15.402344 21.046875 15.378906 21.039062 15.359375 21.042969 C 15.339844 21.050781 15.3125 21.066406 15.308594 21.085938 C 15.289062 21.140625 15.28125 21.199219 15.265625 21.269531 Z M 13.800781 23.628906 C 13.839844 23.578125 13.871094 23.539062 13.902344 23.496094 C 13.796875 23.476562 13.710938 23.464844 13.617188 23.449219 C 13.632812 23.558594 13.71875 23.570312 13.800781 23.628906 Z M 15.800781 23.480469 C 15.695312 23.542969 15.652344 23.628906 15.605469 23.75 C 15.703125 23.703125 15.792969 23.699219 15.847656 23.613281 C 15.832031 23.574219 15.820312 23.53125 15.800781 23.480469 Z M 12.996094 21.761719 C 12.898438 21.847656 12.800781 21.929688 12.707031 22.019531 C 12.667969 22.058594 12.679688 22.101562 12.726562 22.148438 C 12.855469 22.054688 12.933594 21.917969 12.996094 21.761719 Z M 12.957031 22.683594 C 12.984375 22.734375 13.023438 22.71875 13.046875 22.6875 C 13.160156 22.546875 13.269531 22.402344 13.375 22.257812 C 13.386719 22.242188 13.382812 22.210938 13.394531 22.148438 C 13.234375 22.335938 13.101562 22.488281 12.96875 22.640625 C 12.960938 22.652344 12.960938 22.667969 12.957031 22.683594 Z M 16.398438 18.046875 C 16.386719 18.019531 16.386719 18 16.378906 17.988281 C 16.371094 17.980469 16.351562 17.976562 16.339844 17.972656 C 16.09375 18.160156 16.007812 18.25 15.90625 18.425781 C 16.101562 18.304688 16.222656 18.132812 16.398438 18.046875 Z M 15.992188 17.597656 C 15.941406 17.582031 15.921875 17.566406 15.914062 17.574219 C 15.75 17.667969 15.648438 17.835938 15.519531 17.96875 C 15.484375 18.003906 15.441406 18.039062 15.445312 18.125 C 15.667969 17.976562 15.816406 17.789062 15.992188 17.597656 Z M 15.667969 17.480469 C 15.625 17.441406 15.589844 17.445312 15.558594 17.476562 C 15.417969 17.617188 15.273438 17.761719 15.132812 17.90625 C 15.128906 17.914062 15.128906 17.933594 15.128906 17.953125 C 15.152344 17.953125 15.179688 17.960938 15.195312 17.953125 C 15.394531 17.835938 15.523438 17.652344 15.667969 17.480469 Z M 15.953125 20.988281 C 15.945312 21.203125 15.945312 21.203125 15.816406 21.378906 C 15.71875 21.511719 15.625 21.640625 15.53125 21.777344 C 15.519531 21.792969 15.53125 21.824219 15.53125 21.894531 C 15.78125 21.59375 15.992188 21.324219 16.148438 20.988281 C 16.070312 20.988281 16.011719 20.988281 15.953125 20.988281 Z M 13.695312 22.253906 C 13.660156 22.277344 13.644531 22.285156 13.632812 22.296875 C 13.46875 22.5 13.300781 22.703125 13.132812 22.910156 C 13.125 22.921875 13.117188 22.9375 13.117188 22.949219 C 13.121094 22.972656 13.125 23 13.140625 23.011719 C 13.15625 23.023438 13.183594 23.019531 13.203125 23.015625 C 13.214844 23.011719 13.230469 23 13.238281 22.988281 C 13.402344 22.769531 13.5625 22.550781 13.71875 22.328125 C 13.726562 22.320312 13.707031 22.289062 13.695312 22.253906 Z M 13.84375 22.59375 C 13.679688 22.769531 13.515625 22.953125 13.382812 23.164062 C 13.378906 23.167969 13.375 23.175781 13.375 23.183594 C 13.347656 23.246094 13.371094 23.289062 13.433594 23.324219 C 13.609375 23.128906 13.742188 22.898438 13.898438 22.691406 C 13.925781 22.65625 13.898438 22.617188 13.84375 22.59375 Z M 14.152344 18.027344 C 14.109375 18.035156 14.09375 18.03125 14.082031 18.039062 C 13.789062 18.316406 13.496094 18.597656 13.207031 18.878906 C 13.175781 18.910156 13.148438 18.953125 13.1875 19.003906 C 13.363281 18.890625 13.832031 18.417969 14.152344 18.027344 Z M 14.566406 18.085938 C 14.816406 17.867188 15.085938 17.667969 15.316406 17.433594 C 15.273438 17.371094 15.226562 17.382812 15.191406 17.414062 C 15.085938 17.507812 14.984375 17.605469 14.882812 17.699219 C 14.769531 17.804688 14.652344 17.90625 14.542969 18.007812 C 14.550781 18.042969 14.558594 18.066406 14.566406 18.085938 C 14.539062 18.085938 14.503906 18.070312 14.480469 18.082031 C 14.40625 18.117188 14.320312 18.214844 14.234375 18.355469 C 14.324219 18.28125 14.394531 18.222656 14.460938 18.160156 C 14.496094 18.132812 14.507812 18.078125 14.566406 18.085938 Z M 13.152344 22.101562 C 13.128906 22.09375 13.09375 22.074219 13.085938 22.082031 C 12.992188 22.175781 12.898438 22.265625 12.8125 22.367188 C 12.785156 22.402344 12.816406 22.441406 12.871094 22.4375 C 12.964844 22.328125 13.058594 22.214844 13.148438 22.097656 C 13.15625 22.0625 13.164062 22.027344 13.171875 21.988281 C 13.117188 22.019531 13.132812 22.058594 13.152344 22.101562 Z M 14.671875 21.59375 C 14.527344 21.734375 14.484375 21.796875 14.457031 21.921875 C 14.539062 21.828125 14.640625 21.746094 14.671875 21.609375 C 14.671875 21.601562 14.667969 21.59375 14.667969 21.585938 C 14.6875 21.578125 14.710938 21.570312 14.734375 21.554688 C 14.738281 21.554688 14.730469 21.535156 14.730469 21.523438 C 14.71875 21.527344 14.699219 21.527344 14.695312 21.535156 C 14.683594 21.550781 14.679688 21.574219 14.671875 21.59375 Z M 16.644531 22.015625 C 16.753906 21.992188 16.765625 21.902344 16.78125 21.816406 C 16.964844 21.679688 16.976562 21.664062 16.972656 21.546875 C 16.882812 21.632812 16.824219 21.71875 16.789062 21.824219 C 16.734375 21.882812 16.648438 21.917969 16.648438 22.019531 C 16.601562 22.050781 16.53125 22.070312 16.558594 22.160156 C 16.613281 22.121094 16.65625 22.082031 16.644531 22.015625 Z M 16.390625 21.613281 C 16.304688 21.613281 16.277344 21.632812 16.277344 21.703125 C 16.273438 21.714844 16.292969 21.734375 16.300781 21.734375 C 16.355469 21.734375 16.355469 21.6875 16.371094 21.652344 C 16.375 21.640625 16.378906 21.625 16.382812 21.609375 C 16.375 21.601562 16.40625 21.574219 16.371094 21.582031 C 16.378906 21.59375 16.382812 21.601562 16.390625 21.613281 Z M 13.339844 21.707031 C 13.351562 21.710938 13.367188 21.714844 13.382812 21.71875 C 13.433594 21.730469 13.46875 21.71875 13.484375 21.664062 C 13.488281 21.660156 13.480469 21.648438 13.476562 21.644531 C 13.433594 21.621094 13.414062 21.65625 13.386719 21.683594 C 13.375 21.695312 13.351562 21.699219 13.332031 21.710938 C 13.339844 21.71875 13.347656 21.726562 13.355469 21.734375 C 13.34375 21.734375 13.332031 21.734375 13.324219 21.738281 C 13.328125 21.726562 13.332031 21.71875 13.339844 21.707031 Z M 16.042969 22.039062 C 16.007812 22.03125 15.976562 22.011719 15.949219 22.015625 C 15.804688 22.042969 15.65625 22.070312 15.515625 22.109375 C 15.351562 22.152344 15.222656 22.261719 15.113281 22.386719 C 15.050781 22.457031 15.003906 22.53125 14.898438 22.550781 C 14.765625 22.578125 14.636719 22.605469 14.507812 22.550781 C 14.265625 22.453125 14.109375 22.292969 14.054688 22.027344 C 14.003906 21.792969 14.035156 21.574219 14.132812 21.363281 C 14.195312 21.222656 14.320312 21.132812 14.460938 21.078125 C 14.847656 20.921875 15.25 20.808594 15.660156 20.773438 C 15.921875 20.75 16.191406 20.746094 16.453125 20.816406 C 16.5 20.828125 16.546875 20.828125 16.59375 20.832031 C 16.84375 20.847656 17.070312 20.921875 17.222656 21.121094 C 17.238281 21.261719 17.25 21.390625 17.265625 21.523438 C 17.269531 21.5625 17.28125 21.601562 17.273438 21.636719 C 17.222656 22.011719 17.164062 22.382812 16.980469 22.722656 C 16.910156 22.84375 16.855469 22.976562 16.777344 23.089844 C 16.695312 23.203125 16.59375 23.300781 16.492188 23.402344 C 16.421875 23.476562 16.34375 23.539062 16.269531 23.613281 C 15.980469 23.90625 15.609375 24.023438 15.214844 24.070312 C 14.960938 24.101562 14.699219 24.085938 14.441406 24.085938 C 14.394531 24.085938 14.347656 24.082031 14.300781 24.070312 C 13.902344 23.949219 13.527344 23.78125 13.222656 23.480469 C 12.914062 23.183594 12.675781 22.839844 12.546875 22.425781 C 12.542969 22.421875 12.539062 22.414062 12.535156 22.40625 C 12.292969 21.929688 12.296875 21.421875 12.347656 20.910156 C 12.367188 20.746094 12.34375 20.578125 12.414062 20.421875 C 12.429688 20.394531 12.425781 20.359375 12.417969 20.328125 C 12.398438 20.257812 12.402344 20.191406 12.449219 20.128906 C 12.472656 20.101562 12.480469 20.058594 12.488281 20.019531 C 12.617188 19.4375 12.867188 18.910156 13.160156 18.398438 C 13.257812 18.226562 13.367188 18.0625 13.496094 17.917969 C 13.839844 17.519531 14.265625 17.261719 14.785156 17.15625 C 14.949219 17.121094 15.113281 17.148438 15.273438 17.167969 C 15.546875 17.203125 15.808594 17.269531 16.054688 17.402344 C 16.257812 17.507812 16.394531 17.671875 16.546875 17.832031 C 16.722656 18.015625 16.835938 18.222656 16.890625 18.460938 C 16.957031 18.761719 16.972656 19.066406 16.84375 19.363281 C 16.742188 19.601562 16.628906 19.832031 16.425781 20.007812 C 16.308594 20.113281 16.175781 20.191406 16.011719 20.210938 C 15.78125 20.238281 15.542969 20.113281 15.421875 19.914062 C 15.328125 19.761719 15.3125 19.605469 15.347656 19.4375 C 15.394531 19.246094 15.429688 19.054688 15.429688 18.859375 C 15.429688 18.742188 15.429688 18.621094 15.410156 18.507812 C 15.394531 18.433594 15.351562 18.363281 15.308594 18.296875 C 15.269531 18.238281 15.203125 18.214844 15.125 18.210938 C 14.972656 18.207031 14.835938 18.25 14.710938 18.34375 C 14.539062 18.472656 14.414062 18.644531 14.300781 18.824219 C 14.285156 18.847656 14.277344 18.886719 14.257812 18.90625 C 14.070312 19.078125 14.011719 19.320312 13.902344 19.535156 C 13.886719 19.570312 13.875 19.609375 13.867188 19.648438 C 13.75 20.136719 13.632812 20.625 13.703125 21.132812 C 13.675781 21.425781 13.8125 21.683594 13.890625 21.949219 C 13.96875 22.207031 14.085938 22.449219 14.257812 22.652344 C 14.605469 23.070312 15.003906 23.164062 15.472656 22.976562 C 15.605469 22.921875 15.714844 22.832031 15.796875 22.714844 C 15.925781 22.539062 16.011719 22.351562 16.042969 22.136719 C 16.046875 22.105469 16.042969 22.078125 16.042969 22.039062 " fill-opacity="1" fill-rule="evenodd"/></g><g clip-path="url(#e40bfda23e)"><path fill="#2a9740" d="M 19.082031 21.59375 C 19.074219 21.597656 19.066406 21.601562 19.066406 21.605469 C 19.0625 21.609375 19.070312 21.617188 19.074219 21.625 C 19.082031 21.617188 19.089844 21.609375 19.097656 21.605469 C 19.09375 21.601562 19.085938 21.597656 19.082031 21.59375 Z M 21.609375 21.75 C 21.589844 21.742188 21.578125 21.734375 21.566406 21.730469 L 21.554688 21.75 C 21.5625 21.757812 21.570312 21.769531 21.582031 21.769531 C 21.589844 21.769531 21.597656 21.757812 21.609375 21.75 Z M 19.84375 22.128906 L 19.855469 22.136719 L 19.855469 22.125 Z M 21.960938 19.113281 C 21.957031 19.101562 21.949219 19.089844 21.941406 19.078125 C 21.9375 19.082031 21.925781 19.089844 21.925781 19.09375 C 21.929688 19.105469 21.9375 19.117188 21.945312 19.128906 C 21.949219 19.121094 21.957031 19.117188 21.960938 19.113281 Z M 19.394531 19.492188 L 19.382812 19.484375 L 19.378906 19.496094 Z M 19.824219 18.457031 L 19.8125 18.449219 L 19.808594 18.460938 Z M 19.648438 19.921875 C 19.667969 19.925781 19.679688 19.933594 19.691406 19.9375 L 19.703125 19.917969 C 19.695312 19.910156 19.6875 19.898438 19.675781 19.898438 C 19.667969 19.898438 19.660156 19.910156 19.648438 19.921875 Z M 21.652344 18.207031 C 21.640625 18.199219 21.625 18.1875 21.613281 18.1875 C 21.601562 18.1875 21.589844 18.203125 21.578125 18.210938 C 21.59375 18.21875 21.609375 18.230469 21.625 18.234375 C 21.632812 18.234375 21.644531 18.21875 21.652344 18.207031 Z M 18.589844 21.28125 L 18.601562 21.273438 L 18.589844 21.269531 Z M 19.289062 20.9375 C 19.300781 20.929688 19.3125 20.925781 19.324219 20.921875 C 19.320312 20.910156 19.3125 20.890625 19.308594 20.890625 C 19.296875 20.886719 19.28125 20.898438 19.269531 20.902344 C 19.273438 20.914062 19.28125 20.925781 19.289062 20.9375 Z M 21.019531 21.828125 C 21.035156 21.824219 21.046875 21.816406 21.0625 21.8125 C 21.054688 21.800781 21.050781 21.777344 21.046875 21.777344 C 21.03125 21.777344 21.019531 21.789062 21.003906 21.792969 C 21.011719 21.804688 21.015625 21.816406 21.019531 21.828125 Z M 21.066406 22.332031 C 21.074219 22.339844 21.085938 22.34375 21.097656 22.351562 C 21.101562 22.351562 21.113281 22.339844 21.113281 22.335938 C 21.105469 22.324219 21.097656 22.316406 21.09375 22.304688 C 21.082031 22.3125 21.074219 22.320312 21.066406 22.332031 Z M 19.523438 18.570312 C 19.511719 18.585938 19.5 18.597656 19.484375 18.613281 L 19.496094 18.628906 C 19.515625 18.621094 19.535156 18.609375 19.554688 18.601562 C 19.546875 18.59375 19.539062 18.585938 19.523438 18.570312 Z M 21.324219 17.636719 C 21.304688 17.679688 21.289062 17.699219 21.289062 17.71875 C 21.289062 17.734375 21.304688 17.753906 21.316406 17.769531 C 21.332031 17.757812 21.359375 17.75 21.363281 17.734375 C 21.367188 17.71875 21.351562 17.699219 21.324219 17.636719 Z M 21.800781 19.496094 C 21.8125 19.480469 21.828125 19.464844 21.84375 19.449219 C 21.828125 19.445312 21.808594 19.433594 21.804688 19.4375 C 21.792969 19.453125 21.785156 19.472656 21.777344 19.488281 C 21.78125 19.492188 21.789062 19.492188 21.800781 19.496094 Z M 18.796875 20.308594 C 18.789062 20.300781 18.78125 20.289062 18.78125 20.289062 C 18.761719 20.300781 18.742188 20.3125 18.722656 20.320312 C 18.730469 20.332031 18.738281 20.339844 18.742188 20.351562 C 18.761719 20.335938 18.777344 20.320312 18.796875 20.308594 Z M 18.289062 22.027344 C 18.320312 22 18.335938 21.980469 18.355469 21.960938 C 18.339844 21.949219 18.328125 21.925781 18.3125 21.925781 C 18.296875 21.929688 18.273438 21.945312 18.269531 21.960938 C 18.261719 21.972656 18.277344 21.992188 18.289062 22.027344 Z M 20.867188 17.40625 C 20.816406 17.402344 20.777344 17.398438 20.726562 17.390625 C 20.773438 17.480469 20.773438 17.480469 20.867188 17.40625 Z M 20.316406 18.457031 C 20.433594 18.511719 20.449219 18.503906 20.453125 18.402344 C 20.410156 18.421875 20.371094 18.4375 20.316406 18.457031 Z M 23.03125 22.183594 C 22.941406 22.207031 22.859375 22.242188 22.804688 22.332031 C 22.941406 22.359375 22.988281 22.277344 23.03125 22.183594 Z M 19.617188 20.121094 C 19.488281 20.15625 19.402344 20.203125 19.3125 20.289062 C 19.585938 20.238281 19.585938 20.238281 19.617188 20.121094 Z M 21.894531 20.085938 C 21.988281 20.066406 22.0625 20.035156 22.128906 19.988281 C 22.167969 19.960938 22.167969 19.925781 22.132812 19.894531 C 21.960938 19.964844 21.960938 19.964844 21.894531 20.085938 Z M 19.664062 22.414062 C 19.671875 22.339844 19.730469 22.292969 19.722656 22.191406 C 19.628906 22.265625 19.558594 22.324219 19.488281 22.382812 C 19.480469 22.386719 19.484375 22.40625 19.480469 22.433594 C 19.535156 22.429688 19.585938 22.421875 19.664062 22.414062 Z M 20.496094 22.339844 C 20.617188 22.332031 20.683594 22.328125 20.761719 22.328125 C 20.746094 22.25 20.738281 22.191406 20.726562 22.125 C 20.632812 22.164062 20.582031 22.230469 20.496094 22.339844 Z M 21.011719 18.164062 C 21.023438 18.183594 21.027344 18.210938 21.035156 18.210938 C 21.140625 18.210938 21.300781 18.125 21.503906 17.945312 C 21.339844 18.019531 21.164062 18.0625 21.011719 18.164062 Z M 20.195312 22.339844 C 20.285156 22.242188 20.347656 22.175781 20.414062 22.109375 C 20.496094 22.027344 20.585938 21.949219 20.671875 21.871094 C 20.691406 21.851562 20.714844 21.824219 20.671875 21.785156 C 20.480469 21.941406 20.289062 22.09375 20.097656 22.253906 C 20.078125 22.265625 20.070312 22.289062 20.046875 22.324219 C 20.109375 22.328125 20.160156 22.335938 20.195312 22.339844 Z M 18.335938 21.683594 C 18.367188 21.71875 18.398438 21.695312 18.425781 21.6875 C 18.46875 21.671875 18.511719 21.652344 18.550781 21.628906 C 18.730469 21.535156 18.90625 21.441406 19.085938 21.347656 C 19.125 21.324219 19.167969 21.304688 19.203125 21.277344 C 19.21875 21.265625 19.214844 21.238281 19.222656 21.210938 C 19.191406 21.210938 19.164062 21.207031 19.148438 21.214844 C 18.886719 21.351562 18.628906 21.492188 18.371094 21.636719 C 18.355469 21.644531 18.347656 21.667969 18.335938 21.683594 Z M 18.5 21.0625 C 18.828125 20.9375 19.105469 20.730469 19.425781 20.613281 C 19.453125 20.570312 19.492188 20.53125 19.449219 20.460938 C 19.371094 20.507812 19.289062 20.558594 19.210938 20.601562 C 19.128906 20.652344 19.050781 20.699219 18.96875 20.742188 C 18.878906 20.789062 18.789062 20.832031 18.699219 20.878906 C 18.535156 20.964844 18.535156 20.96875 18.5 21.0625 Z M 18.128906 23.601562 C 18.25 23.527344 18.359375 23.457031 18.472656 23.386719 C 18.566406 23.332031 18.664062 23.285156 18.761719 23.230469 C 18.835938 23.1875 18.839844 23.171875 18.777344 23.0625 C 18.632812 23.152344 18.488281 23.242188 18.34375 23.332031 C 18.265625 23.382812 18.183594 23.425781 18.109375 23.484375 C 18.0625 23.515625 18.058594 23.558594 18.128906 23.601562 Z M 20.171875 18.960938 C 20.203125 18.882812 20.226562 18.824219 20.25 18.769531 C 20.25 18.765625 20.238281 18.757812 20.222656 18.742188 C 20.175781 18.765625 20.117188 18.785156 20.0625 18.8125 C 19.863281 18.914062 19.660156 19.019531 19.460938 19.121094 C 19.363281 19.171875 19.265625 19.222656 19.171875 19.273438 C 19.144531 19.289062 19.117188 19.308594 19.160156 19.351562 C 19.199219 19.335938 19.242188 19.320312 19.28125 19.300781 C 19.484375 19.199219 19.6875 19.101562 19.886719 18.996094 C 19.972656 18.953125 20.058594 18.925781 20.171875 18.960938 Z M 18.109375 22.945312 C 18.171875 22.929688 18.195312 22.925781 18.214844 22.914062 C 18.378906 22.828125 18.542969 22.738281 18.710938 22.648438 C 18.8125 22.59375 18.90625 22.53125 19.039062 22.558594 C 19.140625 22.578125 19.242188 22.539062 19.324219 22.472656 C 19.25 22.363281 19.25 22.363281 19.285156 22.207031 C 18.898438 22.429688 18.515625 22.621094 18.15625 22.855469 C 18.140625 22.863281 18.136719 22.890625 18.109375 22.945312 Z M 21.6875 21.460938 C 21.738281 21.257812 21.742188 21.132812 21.707031 20.902344 C 21.6875 20.753906 21.660156 20.605469 21.652344 20.460938 C 21.640625 20.132812 21.558594 19.824219 21.472656 19.515625 C 21.453125 19.441406 21.417969 19.367188 21.40625 19.289062 C 21.367188 19.054688 21.25 18.847656 21.15625 18.632812 C 21.113281 18.542969 21.050781 18.480469 20.96875 18.425781 C 20.875 18.359375 20.824219 18.363281 20.742188 18.4375 C 20.71875 18.460938 20.695312 18.484375 20.679688 18.507812 C 20.582031 18.675781 20.46875 18.839844 20.390625 19.015625 C 20.28125 19.261719 20.132812 19.484375 20.078125 19.75 C 20.078125 19.765625 20.070312 19.78125 20.0625 19.792969 C 19.933594 19.949219 19.902344 20.148438 19.8125 20.324219 C 19.757812 20.425781 19.710938 20.535156 19.671875 20.644531 C 19.625 20.777344 19.589844 20.914062 19.546875 21.046875 C 19.488281 21.226562 19.425781 21.402344 19.367188 21.582031 C 19.351562 21.632812 19.328125 21.6875 19.378906 21.742188 C 19.441406 21.742188 19.511719 21.75 19.582031 21.742188 C 20.007812 21.691406 20.433594 21.636719 20.855469 21.546875 C 20.902344 21.535156 20.949219 21.53125 20.996094 21.527344 C 21.203125 21.511719 21.414062 21.5 21.625 21.484375 C 21.648438 21.480469 21.667969 21.46875 21.6875 21.460938 Z M 19.605469 19.644531 C 19.398438 19.734375 19.1875 19.820312 18.980469 19.910156 C 18.9375 19.929688 18.898438 19.957031 18.859375 19.984375 C 18.839844 20 18.816406 20.03125 18.859375 20.070312 C 18.882812 20.0625 18.914062 20.058594 18.941406 20.042969 C 19.148438 19.933594 19.355469 19.824219 19.558594 19.710938 C 19.582031 19.699219 19.585938 19.664062 19.601562 19.640625 C 19.679688 19.671875 19.753906 19.640625 19.824219 19.613281 C 19.851562 19.605469 19.882812 19.582031 19.855469 19.542969 C 19.761719 19.554688 19.679688 19.589844 19.605469 19.644531 Z M 19.09375 20.40625 C 18.9375 20.480469 18.78125 20.554688 18.625 20.632812 C 18.613281 20.636719 18.609375 20.660156 18.609375 20.675781 C 18.613281 20.683594 18.632812 20.691406 18.644531 20.695312 C 18.652344 20.699219 18.660156 20.695312 18.667969 20.691406 C 18.804688 20.609375 18.941406 20.527344 19.082031 20.441406 C 19.089844 20.4375 19.085938 20.414062 19.089844 20.398438 C 19.105469 20.394531 19.121094 20.394531 19.136719 20.390625 C 19.132812 20.386719 19.125 20.378906 19.125 20.382812 C 19.113281 20.386719 19.105469 20.398438 19.09375 20.40625 Z M 21.675781 22.097656 C 21.605469 22.128906 21.550781 22.175781 21.488281 22.273438 C 21.601562 22.226562 21.671875 22.199219 21.671875 22.09375 C 21.722656 22.109375 21.773438 22.121094 21.769531 22.027344 C 21.734375 22.054688 21.707031 22.078125 21.675781 22.097656 Z M 20.890625 17.960938 C 20.941406 17.945312 21.011719 17.96875 21.023438 17.867188 C 20.976562 17.90625 20.933594 17.933594 20.894531 17.964844 C 20.855469 17.972656 20.816406 17.980469 20.78125 17.992188 C 20.691406 18.03125 20.59375 18.054688 20.488281 18.144531 C 20.59375 18.121094 20.664062 18.117188 20.726562 18.09375 C 20.765625 18.078125 20.804688 18.042969 20.777344 17.988281 C 20.820312 18.011719 20.863281 18.011719 20.890625 17.960938 Z M 22.375 22.644531 C 22.394531 22.617188 22.414062 22.589844 22.4375 22.5625 C 22.429688 22.5625 22.425781 22.558594 22.417969 22.554688 C 22.40625 22.582031 22.390625 22.613281 22.378906 22.640625 C 22.363281 22.640625 22.351562 22.640625 22.339844 22.644531 C 22.351562 22.644531 22.363281 22.644531 22.375 22.644531 Z M 22.914062 21.777344 C 22.953125 21.773438 22.988281 21.769531 23.039062 21.765625 C 23.023438 21.738281 23.007812 21.703125 23.003906 21.703125 C 22.976562 21.710938 22.949219 21.722656 22.925781 21.738281 C 22.917969 21.746094 22.921875 21.765625 22.917969 21.78125 C 22.898438 21.785156 22.878906 21.789062 22.859375 21.796875 C 22.851562 21.796875 22.851562 21.8125 22.851562 21.824219 C 22.855469 21.820312 22.867188 21.820312 22.871094 21.816406 C 22.886719 21.804688 22.898438 21.789062 22.914062 21.777344 Z M 22.015625 19.65625 C 22.03125 19.652344 22.046875 19.65625 22.0625 19.648438 C 22.070312 19.644531 22.082031 19.628906 22.085938 19.617188 C 22.089844 19.613281 22.082031 19.601562 22.082031 19.601562 C 22.0625 19.605469 22.042969 19.609375 22.027344 19.621094 C 22.019531 19.625 22.023438 19.648438 22.023438 19.660156 C 22 19.664062 21.980469 19.667969 21.960938 19.675781 C 21.964844 19.683594 21.96875 19.691406 21.976562 19.699219 C 21.988281 19.6875 22.003906 19.671875 22.015625 19.65625 Z M 18.832031 21.089844 C 18.835938 21.097656 18.839844 21.101562 18.84375 21.105469 C 18.835938 21.105469 18.824219 21.105469 18.816406 21.105469 C 18.820312 21.101562 18.828125 21.097656 18.832031 21.09375 C 18.84375 21.09375 18.855469 21.101562 18.871094 21.101562 C 18.875 21.101562 18.882812 21.09375 18.890625 21.089844 C 18.882812 21.089844 18.878906 21.09375 18.871094 21.09375 C 18.859375 21.09375 18.84375 21.09375 18.832031 21.089844 Z M 19.144531 19.601562 C 19.113281 19.621094 19.078125 19.636719 19.046875 19.652344 C 19.035156 19.65625 19.019531 19.65625 19.007812 19.664062 C 19 19.664062 18.996094 19.671875 18.992188 19.675781 C 19.003906 19.679688 19.023438 19.6875 19.03125 19.683594 C 19.039062 19.679688 19.039062 19.660156 19.042969 19.648438 C 19.085938 19.652344 19.132812 19.664062 19.140625 19.597656 C 19.152344 19.601562 19.164062 19.609375 19.175781 19.605469 C 19.179688 19.605469 19.183594 19.589844 19.1875 19.578125 C 19.183594 19.578125 19.175781 19.574219 19.171875 19.574219 C 19.160156 19.582031 19.152344 19.59375 19.144531 19.601562 Z M 20.792969 17.726562 C 20.78125 17.734375 20.769531 17.742188 20.757812 17.746094 C 20.765625 17.738281 20.777344 17.730469 20.789062 17.722656 C 20.824219 17.707031 20.855469 17.691406 20.890625 17.675781 C 21 17.6875 21.082031 17.636719 21.1875 17.574219 C 21.136719 17.535156 21.105469 17.511719 21.066406 17.484375 C 21.003906 17.554688 20.949219 17.621094 20.894531 17.683594 C 20.851562 17.671875 20.808594 17.671875 20.792969 17.726562 Z M 19.964844 18.082031 C 19.960938 18.097656 19.957031 18.113281 19.953125 18.128906 C 19.957031 18.125 19.96875 18.125 19.96875 18.125 C 19.96875 18.109375 19.964844 18.097656 19.964844 18.085938 C 19.972656 18.085938 19.976562 18.078125 19.984375 18.078125 C 19.988281 18.078125 19.992188 18.085938 20 18.089844 C 19.988281 18.085938 19.976562 18.082031 19.964844 18.082031 Z M 19.609375 19.363281 C 19.59375 19.371094 19.578125 19.375 19.566406 19.382812 C 19.5625 19.386719 19.558594 19.394531 19.554688 19.402344 C 19.5625 19.402344 19.574219 19.410156 19.574219 19.410156 C 19.585938 19.394531 19.59375 19.375 19.605469 19.359375 C 19.648438 19.375 19.6875 19.371094 19.722656 19.335938 C 19.816406 19.304688 19.910156 19.28125 20.003906 19.25 C 20.03125 19.238281 20.042969 19.203125 20 19.175781 C 19.917969 19.210938 19.835938 19.246094 19.75 19.285156 C 19.738281 19.292969 19.734375 19.320312 19.722656 19.339844 C 19.679688 19.3125 19.640625 19.335938 19.609375 19.363281 Z M 19.597656 18.792969 C 19.570312 18.808594 19.527344 18.804688 19.523438 18.855469 C 19.464844 18.863281 19.402344 18.859375 19.347656 18.875 C 19.308594 18.890625 19.269531 18.933594 19.332031 18.992188 C 19.390625 18.941406 19.484375 18.941406 19.519531 18.851562 C 19.566406 18.859375 19.601562 18.855469 19.597656 18.796875 Z M 18.859375 21.964844 C 18.824219 21.972656 18.785156 21.984375 18.75 21.996094 C 18.714844 22.011719 18.675781 22.027344 18.640625 22.039062 C 18.621094 22.078125 18.589844 22.09375 18.550781 22.082031 C 18.445312 22.148438 18.339844 22.21875 18.234375 22.289062 C 18.34375 22.265625 18.441406 22.226562 18.523438 22.164062 C 18.542969 22.148438 18.542969 22.109375 18.550781 22.082031 C 18.585938 22.082031 18.632812 22.109375 18.640625 22.039062 C 18.683594 22.042969 18.71875 22.027344 18.746094 21.996094 C 18.789062 22 18.832031 22.015625 18.855469 21.957031 C 18.867188 21.957031 18.882812 21.960938 18.894531 21.957031 C 18.902344 21.957031 18.902344 21.941406 18.90625 21.933594 C 18.902344 21.933594 18.890625 21.929688 18.886719 21.933594 C 18.878906 21.941406 18.867188 21.953125 18.859375 21.964844 Z M 18.171875 23.199219 C 18.15625 23.199219 18.144531 23.195312 18.128906 23.191406 C 18.132812 23.203125 18.132812 23.214844 18.136719 23.226562 C 18.144531 23.214844 18.152344 23.203125 18.164062 23.195312 C 18.175781 23.1875 18.1875 23.179688 18.203125 23.171875 C 18.191406 23.167969 18.183594 23.164062 18.171875 23.160156 C 18.171875 23.171875 18.171875 23.1875 18.171875 23.199219 Z M 21.640625 22.632812 C 21.582031 22.613281 21.554688 22.59375 21.523438 22.589844 C 21.214844 22.570312 20.902344 22.554688 20.589844 22.535156 C 20.335938 22.519531 20.089844 22.566406 19.839844 22.597656 C 19.769531 22.605469 19.703125 22.632812 19.632812 22.632812 C 19.484375 22.632812 19.363281 22.703125 19.238281 22.765625 C 19.144531 22.8125 19.097656 22.890625 19.097656 22.992188 C 19.09375 23.074219 19.089844 23.152344 19.09375 23.230469 C 19.105469 23.460938 19.039062 23.679688 18.980469 23.898438 C 18.921875 24.101562 18.777344 24.167969 18.59375 24.183594 C 18.4375 24.195312 18.285156 24.175781 18.132812 24.125 C 18 24.078125 17.914062 23.996094 17.875 23.871094 C 17.84375 23.761719 17.832031 23.640625 17.820312 23.527344 C 17.8125 23.410156 17.816406 23.289062 17.824219 23.171875 C 17.832031 23.082031 17.808594 23.003906 17.742188 22.925781 C 17.84375 22.832031 17.867188 22.714844 17.882812 22.585938 C 17.902344 22.402344 17.945312 22.21875 17.984375 22.03125 C 18.019531 21.839844 18.0625 21.648438 18.097656 21.457031 C 18.160156 21.097656 18.300781 20.765625 18.402344 20.417969 C 18.4375 20.308594 18.488281 20.199219 18.53125 20.089844 C 18.671875 19.734375 18.808594 19.375 18.957031 19.023438 C 19.039062 18.828125 19.136719 18.636719 19.25 18.460938 C 19.457031 18.128906 19.660156 17.789062 19.941406 17.511719 C 20.019531 17.433594 20.097656 17.355469 20.183594 17.289062 C 20.304688 17.195312 20.4375 17.148438 20.59375 17.144531 C 21.097656 17.136719 21.46875 17.378906 21.726562 17.785156 C 21.933594 18.109375 22.085938 18.460938 22.179688 18.839844 C 22.273438 19.234375 22.382812 19.628906 22.460938 20.03125 C 22.527344 20.367188 22.558594 20.710938 22.605469 21.054688 C 22.625 21.175781 22.644531 21.300781 22.667969 21.433594 C 22.773438 21.445312 22.867188 21.453125 22.957031 21.464844 C 23.238281 21.5 23.414062 21.679688 23.425781 21.9375 C 23.433594 22.097656 23.351562 22.222656 23.257812 22.339844 C 23.1875 22.421875 23.097656 22.492188 22.988281 22.519531 C 22.953125 22.53125 22.914062 22.542969 22.867188 22.558594 C 22.875 22.601562 22.875 22.640625 22.882812 22.675781 C 22.902344 22.742188 22.921875 22.8125 22.941406 22.878906 C 23.015625 23.117188 22.945312 23.335938 22.824219 23.53125 C 22.71875 23.703125 22.53125 23.78125 22.328125 23.808594 C 22.289062 23.8125 22.25 23.804688 22.210938 23.808594 C 22.042969 23.816406 21.929688 23.722656 21.847656 23.59375 C 21.710938 23.375 21.652344 23.132812 21.640625 22.878906 C 21.636719 22.800781 21.640625 22.722656 21.640625 22.632812 " fill-opacity="1" fill-rule="evenodd"/></g><g clip-path="url(#fc80429f27)"><path fill="#2a9740" d="M 1.925781 20.648438 C 1.921875 20.652344 1.914062 20.660156 1.914062 20.664062 C 1.914062 20.671875 1.921875 20.675781 1.925781 20.683594 C 1.929688 20.675781 1.9375 20.671875 1.9375 20.664062 C 1.9375 20.660156 1.929688 20.652344 1.925781 20.648438 Z M 3.394531 23.183594 C 3.390625 23.179688 3.386719 23.175781 3.378906 23.167969 C 3.375 23.183594 3.367188 23.195312 3.363281 23.207031 C 3.363281 23.210938 3.371094 23.214844 3.378906 23.222656 C 3.382812 23.210938 3.390625 23.195312 3.394531 23.183594 Z M 3.863281 22.199219 C 3.859375 22.191406 3.859375 22.1875 3.855469 22.179688 C 3.847656 22.183594 3.84375 22.1875 3.835938 22.191406 C 3.84375 22.199219 3.847656 22.207031 3.855469 22.21875 C 3.859375 22.210938 3.863281 22.203125 3.863281 22.199219 Z M 5.285156 17.125 C 5.277344 17.121094 5.269531 17.109375 5.257812 17.105469 C 5.257812 17.105469 5.242188 17.117188 5.246094 17.121094 C 5.246094 17.132812 5.253906 17.144531 5.257812 17.15625 C 5.269531 17.144531 5.277344 17.136719 5.285156 17.125 Z M 2.792969 23.488281 C 2.785156 23.46875 2.777344 23.457031 2.773438 23.445312 C 2.761719 23.453125 2.746094 23.457031 2.738281 23.46875 C 2.734375 23.476562 2.742188 23.492188 2.742188 23.503906 C 2.757812 23.5 2.773438 23.492188 2.792969 23.488281 Z M 1.847656 18.347656 C 1.863281 18.328125 1.875 18.3125 1.886719 18.296875 C 1.886719 18.292969 1.878906 18.28125 1.878906 18.277344 C 1.859375 18.285156 1.84375 18.292969 1.828125 18.304688 C 1.824219 18.308594 1.835938 18.328125 1.847656 18.347656 Z M 1.734375 18.902344 C 1.722656 18.90625 1.707031 18.914062 1.699219 18.921875 C 1.695312 18.925781 1.703125 18.941406 1.707031 18.949219 C 1.71875 18.941406 1.730469 18.929688 1.738281 18.921875 C 1.742188 18.917969 1.734375 18.90625 1.734375 18.902344 Z M 2.226562 20.761719 C 2.21875 20.742188 2.214844 20.730469 2.210938 20.714844 C 2.191406 20.730469 2.175781 20.742188 2.160156 20.757812 C 2.15625 20.761719 2.171875 20.78125 2.175781 20.792969 C 2.191406 20.78125 2.210938 20.773438 2.226562 20.761719 Z M 4.035156 21.644531 C 4.023438 21.660156 4.003906 21.675781 3.996094 21.691406 C 3.988281 21.710938 3.992188 21.734375 3.992188 21.757812 C 4.011719 21.746094 4.035156 21.742188 4.046875 21.726562 C 4.0625 21.710938 4.070312 21.6875 4.074219 21.667969 C 4.074219 21.664062 4.050781 21.65625 4.035156 21.644531 Z M 5.078125 18.566406 C 5.082031 18.566406 5.089844 18.570312 5.097656 18.566406 C 5.125 18.546875 5.164062 18.53125 5.148438 18.484375 C 5.144531 18.476562 5.136719 18.46875 5.132812 18.46875 C 5.085938 18.460938 5.074219 18.496094 5.066406 18.53125 C 5.0625 18.542969 5.074219 18.554688 5.078125 18.566406 Z M 2.496094 21.730469 C 2.414062 21.863281 2.414062 21.863281 2.546875 21.886719 C 2.53125 21.839844 2.519531 21.800781 2.496094 21.730469 Z M 3.925781 22.882812 C 3.875 22.921875 3.832031 22.960938 3.851562 23.035156 C 3.855469 23.035156 3.867188 23.042969 3.871094 23.039062 C 3.914062 23.027344 3.914062 23.027344 3.925781 22.882812 Z M 5.039062 19.078125 C 4.90625 19.089844 4.90625 19.089844 4.898438 19.214844 C 4.976562 19.199219 5.007812 19.140625 5.039062 19.078125 Z M 1.996094 20.511719 C 2.007812 20.519531 2.015625 20.53125 2.027344 20.539062 C 2.066406 20.488281 2.105469 20.445312 2.136719 20.390625 C 2.152344 20.371094 2.160156 20.332031 2.101562 20.324219 C 2.066406 20.386719 2.03125 20.449219 1.996094 20.511719 Z M 3.175781 23.921875 C 3.296875 23.835938 3.339844 23.753906 3.347656 23.628906 C 3.242188 23.699219 3.203125 23.78125 3.175781 23.921875 Z M 2.175781 21.234375 C 2.140625 21.28125 2.105469 21.328125 2.070312 21.375 C 2.035156 21.421875 1.972656 21.460938 2.007812 21.546875 C 2.109375 21.460938 2.144531 21.351562 2.175781 21.234375 Z M 1.097656 17.773438 C 1.125 17.738281 1.136719 17.726562 1.144531 17.714844 C 1.191406 17.632812 1.296875 17.582031 1.277344 17.464844 C 1.277344 17.460938 1.261719 17.453125 1.257812 17.457031 C 1.15625 17.503906 1.148438 17.613281 1.101562 17.699219 C 1.097656 17.710938 1.101562 17.726562 1.097656 17.773438 Z M 3.761719 22.660156 C 3.675781 22.742188 3.566406 22.8125 3.535156 22.9375 C 3.53125 22.957031 3.539062 22.976562 3.546875 23.03125 C 3.640625 22.898438 3.742188 22.808594 3.761719 22.660156 Z M 2.15625 21.769531 C 2.167969 21.773438 2.183594 21.78125 2.195312 21.789062 C 2.226562 21.746094 2.25 21.695312 2.289062 21.660156 C 2.328125 21.628906 2.382812 21.617188 2.425781 21.597656 C 2.425781 21.535156 2.429688 21.476562 2.347656 21.460938 C 2.285156 21.5625 2.21875 21.664062 2.15625 21.769531 Z M 2.589844 23.226562 C 2.71875 23.121094 2.804688 22.992188 2.882812 22.863281 C 2.894531 22.84375 2.875 22.804688 2.859375 22.78125 C 2.855469 22.773438 2.808594 22.777344 2.800781 22.792969 C 2.71875 22.910156 2.636719 23.03125 2.5625 23.15625 C 2.554688 23.167969 2.578125 23.191406 2.589844 23.226562 Z M 2.441406 22.859375 C 2.554688 22.773438 2.648438 22.664062 2.695312 22.5625 C 2.707031 22.539062 2.71875 22.519531 2.71875 22.496094 C 2.722656 22.453125 2.726562 22.402344 2.652344 22.394531 C 2.578125 22.527344 2.496094 22.660156 2.421875 22.792969 C 2.414062 22.808594 2.433594 22.835938 2.441406 22.859375 Z M 4.882812 19.652344 C 5.097656 19.445312 5.273438 19.273438 5.449219 19.101562 C 5.464844 19.085938 5.457031 19.050781 5.464844 19.007812 C 5.261719 19.152344 5.003906 19.4375 4.882812 19.652344 Z M 1.960938 18.980469 C 1.804688 19.195312 1.65625 19.394531 1.53125 19.609375 C 1.523438 19.617188 1.535156 19.636719 1.546875 19.664062 C 1.695312 19.46875 1.839844 19.285156 1.980469 19.097656 C 1.992188 19.085938 1.992188 19.066406 1.996094 19.050781 C 1.996094 19.042969 1.992188 19.035156 1.992188 19.027344 C 1.988281 19.023438 1.984375 19.015625 1.960938 18.980469 Z M 5.957031 17.632812 C 5.761719 17.769531 5.648438 17.902344 5.542969 18.046875 C 5.523438 18.070312 5.503906 18.097656 5.550781 18.125 C 5.671875 18.019531 5.800781 17.921875 5.921875 17.8125 C 5.945312 17.789062 5.941406 17.730469 5.957031 17.632812 Z M 5.574219 17.179688 C 5.445312 17.324219 5.316406 17.4375 5.242188 17.59375 C 5.238281 17.601562 5.253906 17.621094 5.265625 17.652344 C 5.34375 17.582031 5.394531 17.496094 5.457031 17.417969 C 5.507812 17.359375 5.550781 17.285156 5.644531 17.3125 C 5.726562 17.335938 5.703125 17.425781 5.738281 17.492188 C 5.769531 17.476562 5.804688 17.460938 5.839844 17.449219 C 5.792969 17.3125 5.675781 17.273438 5.574219 17.179688 Z M 1.707031 17.632812 C 1.386719 18.085938 1.363281 18.128906 1.332031 18.3125 C 1.472656 18.125 1.597656 17.960938 1.722656 17.796875 C 1.742188 17.773438 1.753906 17.738281 1.75 17.710938 C 1.75 17.6875 1.726562 17.664062 1.707031 17.632812 Z M 4.847656 20.421875 C 4.828125 20.429688 4.804688 20.433594 4.792969 20.449219 C 4.675781 20.570312 4.554688 20.695312 4.441406 20.820312 C 4.402344 20.867188 4.367188 20.914062 4.304688 20.941406 C 4.210938 20.980469 4.203125 21.0625 4.210938 21.179688 C 4.273438 21.125 4.324219 21.089844 4.363281 21.046875 C 4.503906 20.882812 4.644531 20.71875 4.800781 20.566406 C 4.828125 20.542969 4.84375 20.503906 4.859375 20.46875 C 4.867188 20.460938 4.855469 20.445312 4.847656 20.421875 Z M 5.796875 18.273438 C 5.785156 18.261719 5.777344 18.253906 5.765625 18.242188 C 5.742188 18.257812 5.710938 18.269531 5.691406 18.289062 C 5.582031 18.398438 5.46875 18.507812 5.359375 18.617188 C 5.296875 18.6875 5.230469 18.753906 5.175781 18.828125 C 5.160156 18.847656 5.167969 18.890625 5.164062 18.929688 C 5.195312 18.917969 5.210938 18.914062 5.222656 18.902344 C 5.394531 18.734375 5.570312 18.570312 5.738281 18.398438 C 5.769531 18.367188 5.777344 18.316406 5.796875 18.273438 Z M 4.671875 20.226562 C 4.6875 20.222656 4.707031 20.222656 4.714844 20.210938 C 4.851562 20.089844 4.992188 19.964844 5.125 19.835938 C 5.15625 19.800781 5.199219 19.753906 5.164062 19.683594 C 5.03125 19.816406 4.898438 19.945312 4.769531 20.074219 C 4.726562 20.117188 4.675781 20.160156 4.675781 20.230469 C 4.609375 20.242188 4.550781 20.257812 4.582031 20.359375 C 4.632812 20.324219 4.6875 20.300781 4.671875 20.226562 Z M 1.859375 20.234375 C 1.761719 20.277344 1.746094 20.386719 1.691406 20.464844 C 1.683594 20.480469 1.691406 20.507812 1.691406 20.53125 C 1.757812 20.433594 1.855469 20.355469 1.855469 20.230469 C 1.878906 20.203125 1.902344 20.175781 1.921875 20.144531 C 1.929688 20.132812 1.925781 20.109375 1.929688 20.078125 C 1.855469 20.121094 1.839844 20.171875 1.859375 20.234375 Z M 4.367188 21.277344 C 4.503906 21.273438 4.570312 21.226562 4.585938 21.09375 C 4.535156 21.136719 4.492188 21.195312 4.445312 21.246094 C 4.429688 21.261719 4.394531 21.269531 4.367188 21.28125 C 4.34375 21.332031 4.320312 21.382812 4.292969 21.441406 C 4.398438 21.414062 4.375 21.34375 4.367188 21.277344 Z M 2.515625 22.152344 C 2.535156 22.148438 2.558594 22.144531 2.578125 22.132812 C 2.609375 22.109375 2.621094 22.074219 2.59375 22.039062 C 2.585938 22.03125 2.558594 22.023438 2.558594 22.027344 C 2.539062 22.046875 2.519531 22.070312 2.511719 22.09375 C 2.507812 22.113281 2.515625 22.136719 2.519531 22.160156 C 2.472656 22.195312 2.484375 22.246094 2.488281 22.292969 C 2.390625 22.28125 2.390625 22.28125 2.386719 22.40625 C 2.421875 22.367188 2.453125 22.328125 2.488281 22.289062 C 2.496094 22.246094 2.503906 22.199219 2.515625 22.152344 Z M 1.960938 19.535156 C 1.882812 19.546875 1.863281 19.597656 1.855469 19.664062 C 1.832031 19.683594 1.800781 19.695312 1.789062 19.71875 C 1.714844 19.835938 1.640625 19.957031 1.570312 20.078125 C 1.5625 20.097656 1.578125 20.128906 1.589844 20.191406 C 1.6875 20.011719 1.769531 19.871094 1.84375 19.726562 C 1.855469 19.710938 1.851562 19.683594 1.851562 19.660156 C 1.921875 19.644531 1.933594 19.582031 1.953125 19.527344 C 1.992188 19.496094 2.078125 19.484375 2.027344 19.394531 C 1.96875 19.429688 1.945312 19.472656 1.960938 19.535156 Z M 2.003906 19.867188 C 2.011719 19.859375 2.019531 19.851562 2.027344 19.839844 C 2.03125 19.851562 2.035156 19.863281 2.039062 19.875 C 2.027344 19.871094 2.019531 19.871094 2.011719 19.871094 C 2.011719 19.886719 2.003906 19.898438 2.007812 19.914062 C 2.007812 19.921875 2.019531 19.929688 2.027344 19.9375 C 2.027344 19.925781 2.035156 19.914062 2.03125 19.902344 C 2.027344 19.890625 2.015625 19.878906 2.003906 19.867188 Z M 4.871094 17 C 4.890625 16.984375 4.898438 16.980469 4.902344 16.972656 C 5.121094 16.765625 5.359375 16.753906 5.609375 16.90625 C 5.757812 16.992188 5.910156 17.082031 6.03125 17.203125 C 6.175781 17.351562 6.289062 17.523438 6.238281 17.769531 C 6.199219 17.960938 6.148438 18.148438 6.074219 18.328125 C 6.023438 18.453125 5.96875 18.574219 5.929688 18.703125 C 5.84375 18.964844 5.71875 19.207031 5.605469 19.457031 C 5.394531 19.929688 5.175781 20.394531 5.003906 20.886719 C 4.855469 21.304688 4.710938 21.726562 4.558594 22.148438 C 4.488281 22.339844 4.410156 22.527344 4.332031 22.714844 C 4.238281 22.929688 4.136719 23.140625 4.046875 23.359375 C 3.949219 23.601562 3.796875 23.808594 3.621094 24 C 3.550781 24.082031 3.453125 24.140625 3.367188 24.203125 C 3.183594 24.332031 2.992188 24.285156 2.808594 24.203125 C 2.757812 24.183594 2.714844 24.121094 2.679688 24.070312 C 2.507812 23.820312 2.363281 23.546875 2.242188 23.269531 C 2.066406 22.859375 1.90625 22.441406 1.78125 22.011719 C 1.691406 21.703125 1.574219 21.40625 1.511719 21.089844 C 1.492188 20.988281 1.460938 20.890625 1.421875 20.796875 C 1.324219 20.5625 1.273438 20.316406 1.234375 20.070312 C 1.171875 19.691406 1.105469 19.3125 0.988281 18.945312 C 0.984375 18.9375 0.980469 18.929688 0.980469 18.921875 C 0.984375 18.648438 0.855469 18.429688 0.679688 18.230469 C 0.5 18.03125 0.546875 17.8125 0.628906 17.589844 C 0.660156 17.511719 0.71875 17.445312 0.703125 17.351562 C 0.695312 17.28125 0.742188 17.238281 0.804688 17.210938 C 1.152344 17.054688 1.601562 17.125 1.878906 17.378906 C 1.890625 17.386719 1.898438 17.40625 1.910156 17.414062 C 2.132812 17.5 2.148438 17.703125 2.179688 17.894531 C 2.203125 18.046875 2.210938 18.207031 2.234375 18.359375 C 2.265625 18.601562 2.3125 18.839844 2.339844 19.082031 C 2.371094 19.355469 2.386719 19.628906 2.414062 19.902344 C 2.429688 20.042969 2.453125 20.179688 2.476562 20.320312 C 2.519531 20.558594 2.5625 20.800781 2.613281 21.035156 C 2.644531 21.179688 2.695312 21.324219 2.738281 21.464844 C 2.8125 21.703125 2.910156 21.933594 2.972656 22.179688 C 3.011719 22.328125 3.085938 22.46875 3.152344 22.613281 C 3.167969 22.652344 3.210938 22.683594 3.25 22.734375 C 3.28125 22.699219 3.308594 22.675781 3.324219 22.644531 C 3.40625 22.519531 3.457031 22.378906 3.503906 22.238281 C 3.613281 21.894531 3.734375 21.554688 3.851562 21.214844 C 3.921875 21.015625 3.996094 20.816406 4.070312 20.621094 C 4.125 20.472656 4.183594 20.328125 4.246094 20.183594 C 4.371094 19.894531 4.464844 19.597656 4.542969 19.292969 C 4.621094 18.996094 4.703125 18.703125 4.78125 18.40625 C 4.882812 18.003906 4.933594 17.59375 4.875 17.175781 C 4.867188 17.121094 4.871094 17.066406 4.871094 17 " fill-opacity="1" fill-rule="evenodd"/></g></svg>