<svg xmlns="http://www.w3.org/2000/svg" xmlns:xlink="http://www.w3.org/1999/xlink" width="40" zoomAndPan="magnify" viewBox="0 0 30 30.000001" height="40" preserveAspectRatio="xMidYMid meet" version="1.0"><defs><clipPath id="db6c56a98e"><path d="M 0.484375 0 L 29.515625 0 L 29.515625 29.03125 L 0.484375 29.03125 Z M 0.484375 0 " clip-rule="nonzero"/></clipPath><clipPath id="eb3ee8f41c"><path d="M 0.484375 2.515625 L 29.515625 2.515625 L 29.515625 26.464844 L 0.484375 26.464844 Z M 0.484375 2.515625 " clip-rule="nonzero"/></clipPath></defs><g clip-path="url(#db6c56a98e)"><path fill="#ffffff" d="M 0.484375 0 L 29.515625 0 L 29.515625 29.03125 L 0.484375 29.03125 Z M 0.484375 0 " fill-opacity="1" fill-rule="nonzero"/><path fill="#ffffff" d="M 0.484375 0 L 29.515625 0 L 29.515625 29.03125 L 0.484375 29.03125 Z M 0.484375 0 " fill-opacity="1" fill-rule="nonzero"/></g><g clip-path="url(#eb3ee8f41c)"><path fill="#8dbf21" d="M 15.148438 26.453125 C 15.015625 26.464844 14.910156 26.40625 15.015625 26.269531 C 15.125 26.207031 15.269531 26.214844 15.410156 26.21875 C 15.5 26.222656 15.585938 26.226562 15.664062 26.210938 C 16.691406 26.164062 17.683594 25.910156 18.660156 25.605469 C 19.207031 25.433594 19.714844 25.152344 20.269531 24.996094 C 20.609375 24.824219 20.722656 25.199219 20.460938 25.378906 C 20.117188 25.554688 19.730469 25.582031 19.367188 25.6875 C 18.992188 25.816406 18.640625 26.003906 18.253906 26.09375 C 17.785156 26.21875 17.296875 26.21875 16.820312 26.296875 C 16.351562 26.398438 15.878906 26.460938 15.398438 26.460938 C 15.316406 26.460938 15.230469 26.457031 15.148438 26.453125 Z M 13.757812 26.421875 C 13.605469 26.414062 13.453125 26.417969 13.300781 26.417969 C 13.203125 26.421875 13.105469 26.421875 13.007812 26.421875 C 12.539062 26.417969 12.074219 26.304688 11.667969 26.070312 C 11.585938 26.03125 11.511719 25.964844 11.421875 25.949219 C 11.324219 25.90625 11.304688 25.78125 11.355469 25.695312 C 11.5 25.503906 11.75 25.703125 11.914062 25.773438 C 12.503906 26.097656 13.207031 26.042969 13.84375 26.210938 C 13.941406 26.273438 13.882812 26.421875 13.777344 26.421875 C 13.769531 26.421875 13.761719 26.421875 13.757812 26.421875 Z M 11.753906 25.152344 C 10.9375 24.945312 10.152344 24.636719 9.347656 24.386719 C 8.742188 24.191406 8.128906 24.011719 7.539062 23.773438 C 5.949219 23.1875 4.609375 22.078125 3.578125 20.75 C 1.984375 18.832031 1.484375 17.332031 1.402344 15.21875 C 1.394531 15.101562 1.394531 14.984375 1.390625 14.863281 C 1.390625 14.855469 1.390625 14.851562 1.390625 14.84375 C 1.390625 14.792969 1.390625 14.746094 1.386719 14.695312 C 1.386719 14.484375 1.386719 14.265625 1.390625 14.039062 C 1.402344 14.035156 1.414062 14.03125 1.425781 14.027344 C 1.441406 14.027344 1.460938 14.027344 1.480469 14.023438 C 1.5625 14.019531 1.644531 14.019531 1.730469 14.019531 C 1.925781 14.027344 2.117188 14.042969 2.308594 14.058594 C 3.082031 14.132812 3.851562 14.234375 4.628906 14.238281 C 5.359375 14.253906 6.089844 14.210938 6.816406 14.164062 C 7.683594 14.113281 8.550781 14.058594 9.417969 14.109375 C 9.996094 14.109375 10.574219 14.085938 11.15625 14.066406 C 12.1875 14.03125 13.21875 13.992188 14.25 14.074219 C 14.828125 14.117188 15.402344 14.195312 15.972656 14.253906 C 16.351562 14.214844 16.734375 14.195312 17.117188 14.199219 C 17.6875 14.199219 18.257812 14.25 18.828125 14.253906 C 19.570312 14.222656 20.308594 14.144531 21.050781 14.132812 C 21.769531 14.101562 22.492188 14.132812 23.210938 14.164062 C 23.914062 14.195312 24.617188 14.226562 25.320312 14.195312 C 25.871094 14.175781 26.421875 14.140625 26.972656 14.144531 C 27.09375 14.148438 27.214844 14.148438 27.335938 14.152344 C 27.351562 14.152344 27.367188 14.152344 27.386719 14.152344 C 27.4375 14.152344 27.488281 14.152344 27.539062 14.15625 C 27.574219 14.15625 27.609375 14.160156 27.640625 14.164062 L 27.644531 14.164062 C 27.660156 14.164062 27.675781 14.167969 27.695312 14.167969 C 27.726562 14.171875 27.761719 14.175781 27.792969 14.183594 C 27.820312 14.46875 27.828125 14.757812 27.816406 15.046875 C 27.800781 15.671875 27.703125 16.296875 27.535156 16.898438 C 27.246094 17.824219 26.753906 18.667969 26.273438 19.507812 C 25.953125 20.042969 25.628906 20.578125 25.207031 21.039062 C 24.761719 21.539062 24.226562 21.941406 23.683594 22.328125 C 23.105469 22.75 22.566406 23.230469 21.929688 23.574219 C 21.40625 23.863281 20.835938 24.054688 20.261719 24.210938 C 19.1875 24.46875 18.15625 24.851562 17.09375 25.144531 C 16.207031 25.355469 15.300781 25.460938 14.394531 25.460938 C 13.507812 25.460938 12.621094 25.359375 11.753906 25.152344 Z M 8.214844 24.878906 C 8.011719 24.835938 8.042969 24.535156 8.261719 24.5625 C 8.480469 24.59375 8.445312 24.882812 8.246094 24.882812 C 8.234375 24.882812 8.226562 24.882812 8.214844 24.878906 Z M 21.402344 24.875 C 21.210938 24.828125 21.300781 24.578125 21.40625 24.484375 C 21.507812 24.394531 21.609375 24.273438 21.746094 24.238281 C 21.832031 24.226562 21.90625 24.285156 21.910156 24.375 C 21.914062 24.507812 21.792969 24.585938 21.707031 24.664062 C 21.613281 24.734375 21.558594 24.875 21.429688 24.875 C 21.417969 24.875 21.410156 24.875 21.402344 24.875 Z M 7.296875 24.5625 C 6.898438 24.4375 6.542969 24.210938 6.160156 24.042969 C 5.859375 23.902344 5.5625 23.753906 5.277344 23.578125 C 4.972656 23.382812 4.710938 23.136719 4.449219 22.882812 C 4.097656 22.542969 3.699219 22.238281 3.402344 21.84375 C 3.347656 21.761719 3.4375 21.648438 3.535156 21.679688 C 3.65625 21.738281 3.714844 21.890625 3.824219 21.976562 C 4.164062 22.292969 4.460938 22.667969 4.867188 22.898438 C 5.433594 23.183594 5.992188 23.464844 6.527344 23.8125 C 6.816406 23.957031 7.128906 24.046875 7.414062 24.207031 C 7.46875 24.226562 7.515625 24.269531 7.527344 24.328125 C 7.554688 24.453125 7.441406 24.5625 7.320312 24.5625 C 7.3125 24.5625 7.304688 24.5625 7.296875 24.5625 Z M 22.832031 23.816406 C 23.328125 23.484375 23.828125 23.152344 24.300781 22.78125 C 24.425781 22.6875 24.550781 22.585938 24.675781 22.488281 C 24.703125 22.46875 24.738281 22.453125 24.773438 22.460938 C 24.902344 22.496094 24.828125 22.65625 24.742188 22.703125 C 24.382812 23.039062 23.917969 23.210938 23.515625 23.484375 C 23.285156 23.636719 23.066406 23.835938 22.8125 23.933594 C 22.746094 23.914062 22.789062 23.835938 22.832031 23.816406 Z M 25.75 21.257812 C 25.773438 21.191406 25.839844 21.152344 25.886719 21.097656 C 26.222656 20.71875 26.515625 20.304688 26.832031 19.910156 C 27.046875 19.605469 27.140625 19.234375 27.285156 18.894531 C 27.414062 18.566406 27.628906 18.28125 27.722656 17.941406 C 27.859375 17.390625 28.082031 16.871094 28.226562 16.328125 C 28.367188 15.738281 28.40625 15.132812 28.394531 14.527344 C 28.402344 14.445312 28.367188 14.351562 28.410156 14.269531 C 28.488281 14.144531 28.691406 14.214844 28.699219 14.355469 C 28.722656 14.71875 28.703125 15.09375 28.652344 15.457031 C 28.585938 15.800781 28.484375 16.140625 28.4375 16.492188 C 28.378906 17.054688 28.1875 17.582031 27.957031 18.097656 C 27.789062 18.644531 27.539062 19.152344 27.210938 19.621094 C 26.890625 20.019531 26.339844 21.367188 25.886719 21.457031 C 25.796875 21.441406 25.726562 21.347656 25.75 21.257812 Z M 2.417969 20.644531 C 2.398438 20.628906 2.382812 20.613281 2.378906 20.59375 C 2.371094 20.566406 2.375 20.542969 2.390625 20.519531 C 2.417969 20.480469 2.472656 20.476562 2.511719 20.503906 C 2.550781 20.53125 2.570312 20.585938 2.539062 20.625 C 2.53125 20.640625 2.511719 20.65625 2.492188 20.660156 C 2.484375 20.660156 2.476562 20.660156 2.472656 20.660156 C 2.453125 20.660156 2.433594 20.652344 2.417969 20.644531 Z M 1.714844 19.824219 C 1.421875 19.378906 1.152344 18.90625 1 18.394531 C 0.8125 17.585938 0.585938 16.773438 0.492188 15.953125 C 0.53125 15.828125 0.703125 15.867188 0.742188 15.972656 C 0.871094 16.507812 0.90625 17.070312 1.050781 17.605469 C 1.207031 18.085938 1.457031 18.527344 1.621094 19.007812 C 1.675781 19.171875 1.722656 19.34375 1.808594 19.492188 C 1.871094 19.660156 2.519531 20.1875 2.082031 20.222656 C 1.910156 20.164062 1.824219 19.960938 1.714844 19.824219 Z M 28.449219 17.730469 C 28.683594 17.328125 28.828125 16.875 28.980469 16.433594 C 29.089844 16.097656 29.089844 15.738281 29.117188 15.386719 C 29.117188 15.324219 29.1875 15.242188 29.253906 15.285156 C 29.269531 15.300781 29.277344 15.328125 29.273438 15.351562 C 29.25 15.597656 29.21875 15.847656 29.171875 16.089844 C 29.109375 16.445312 29.078125 16.8125 28.917969 17.144531 C 28.828125 17.324219 28.738281 17.507812 28.652344 17.691406 C 28.605469 17.769531 28.550781 17.894531 28.445312 17.894531 C 28.359375 17.871094 28.398438 17.769531 28.449219 17.730469 Z M 29.261719 14.523438 C 29.210938 14.472656 29.230469 14.394531 29.273438 14.34375 C 29.316406 14.292969 29.398438 14.257812 29.453125 14.304688 C 29.507812 14.351562 29.480469 14.4375 29.441406 14.484375 C 29.410156 14.519531 29.367188 14.542969 29.328125 14.542969 C 29.304688 14.542969 29.28125 14.539062 29.261719 14.523438 Z M 25.136719 13.394531 C 25.066406 13.109375 25.53125 12.753906 25.671875 12.511719 C 25.984375 12.0625 26.347656 11.652344 26.65625 11.199219 C 26.941406 10.816406 27.210938 10.421875 27.4375 10 C 27.554688 9.863281 27.675781 10.019531 27.5625 10.140625 C 27.421875 10.359375 27.328125 10.605469 27.183594 10.824219 C 26.828125 11.296875 26.410156 11.726562 26.125 12.253906 C 25.917969 12.621094 25.652344 12.953125 25.421875 13.304688 C 25.394531 13.378906 25.308594 13.457031 25.234375 13.457031 C 25.195312 13.457031 25.160156 13.4375 25.136719 13.394531 Z M 3.375 13.277344 C 3.179688 13.21875 3.097656 12.972656 2.976562 12.824219 C 2.617188 12.253906 2.351562 11.628906 1.96875 11.078125 C 1.804688 10.824219 1.582031 10.609375 1.410156 10.363281 C 1.3125 10.152344 1.648438 10.066406 1.664062 10.292969 C 2.058594 10.71875 2.300781 11.246094 2.628906 11.714844 C 2.910156 12.054688 3.183594 12.398438 3.390625 12.789062 C 3.4375 12.878906 3.503906 12.957031 3.550781 13.046875 C 3.597656 13.15625 3.511719 13.277344 3.398438 13.277344 C 3.390625 13.277344 3.382812 13.277344 3.375 13.277344 Z M 26.28125 13.203125 C 26.144531 13.179688 26.148438 12.992188 26.257812 12.933594 C 26.429688 12.769531 26.589844 12.582031 26.757812 12.40625 C 26.839844 12.324219 26.925781 12.1875 27.0625 12.226562 C 27.191406 12.265625 27.191406 12.433594 27.109375 12.515625 C 26.910156 12.679688 26.730469 12.863281 26.546875 13.042969 C 26.476562 13.109375 26.394531 13.203125 26.292969 13.203125 Z M 1.980469 12.886719 C 1.910156 12.875 1.867188 12.816406 1.828125 12.761719 C 1.707031 12.605469 1.585938 12.449219 1.457031 12.300781 C 1.339844 12.128906 1.105469 11.996094 1.027344 11.816406 C 1.011719 11.664062 1.175781 11.648438 1.265625 11.734375 C 1.558594 11.988281 1.804688 12.300781 2.066406 12.589844 C 2.191406 12.6875 2.175781 12.886719 2.003906 12.886719 C 1.996094 12.886719 1.988281 12.886719 1.980469 12.886719 Z M 3.371094 11.570312 C 3.226562 10.953125 2.933594 10.375 2.863281 9.742188 C 2.851562 9.65625 2.890625 9.550781 2.992188 9.550781 C 3.148438 9.554688 3.164062 9.734375 3.171875 9.855469 C 3.191406 9.976562 3.214844 10.09375 3.246094 10.210938 C 3.367188 10.570312 3.464844 10.9375 3.574219 11.300781 C 3.605469 11.441406 3.769531 11.742188 3.515625 11.742188 C 3.425781 11.730469 3.382812 11.652344 3.371094 11.570312 Z M 0.621094 11.609375 C 0.597656 11.585938 0.582031 11.5625 0.574219 11.53125 C 0.570312 11.496094 0.578125 11.457031 0.601562 11.429688 C 0.648438 11.375 0.730469 11.375 0.785156 11.421875 C 0.835938 11.464844 0.851562 11.546875 0.804688 11.601562 C 0.785156 11.625 0.757812 11.636719 0.726562 11.640625 C 0.722656 11.640625 0.71875 11.644531 0.710938 11.644531 C 0.679688 11.644531 0.648438 11.628906 0.621094 11.609375 Z M 25.390625 11.382812 C 25.300781 11.363281 25.265625 11.261719 25.3125 11.1875 C 25.402344 10.980469 25.507812 10.777344 25.582031 10.5625 C 25.65625 10.429688 25.660156 10.035156 25.867188 10.074219 C 25.914062 10.089844 25.945312 10.132812 25.941406 10.183594 C 25.882812 10.507812 25.726562 10.804688 25.609375 11.109375 C 25.558594 11.207031 25.542969 11.382812 25.410156 11.382812 C 25.402344 11.382812 25.398438 11.382812 25.390625 11.382812 Z M 27.820312 9.808594 C 27.765625 9.796875 27.730469 9.765625 27.699219 9.726562 C 27.679688 9.6875 27.667969 9.648438 27.679688 9.605469 C 27.6875 9.554688 27.71875 9.507812 27.761719 9.484375 C 27.847656 9.433594 27.957031 9.457031 28.007812 9.542969 C 28.058594 9.625 28.027344 9.734375 27.941406 9.785156 C 27.914062 9.800781 27.882812 9.808594 27.851562 9.808594 C 27.839844 9.808594 27.832031 9.808594 27.820312 9.808594 Z M 1.03125 9.375 C 1.003906 9.351562 0.984375 9.324219 0.976562 9.285156 C 0.96875 9.246094 0.980469 9.203125 1.007812 9.167969 C 1.058594 9.105469 1.15625 9.109375 1.214844 9.160156 C 1.277344 9.210938 1.292969 9.304688 1.238281 9.367188 C 1.214844 9.394531 1.183594 9.410156 1.148438 9.414062 C 1.144531 9.414062 1.136719 9.414062 1.132812 9.414062 C 1.09375 9.414062 1.058594 9.398438 1.03125 9.375 Z M 17.996094 6.105469 C 18.441406 5.660156 18.925781 5.226562 19.558594 5.023438 C 20.320312 4.78125 21.078125 4.488281 21.722656 4.042969 C 21.769531 4.011719 21.839844 3.976562 21.898438 4.011719 C 21.945312 4.042969 21.925781 4.097656 21.890625 4.128906 C 21.773438 4.277344 21.695312 4.453125 21.597656 4.613281 C 21.554688 4.757812 21.503906 4.90625 21.421875 5.039062 C 21.246094 5.304688 21.097656 5.585938 20.980469 5.882812 C 20.851562 6.175781 20.65625 6.4375 20.4375 6.683594 C 20.105469 7.101562 19.671875 7.453125 19.117188 7.609375 C 18.785156 7.71875 18.449219 7.832031 18.097656 7.867188 C 17.96875 7.875 17.839844 7.875 17.710938 7.871094 C 17.652344 7.871094 17.597656 7.871094 17.542969 7.871094 C 17.527344 7.886719 17.511719 7.90625 17.496094 7.925781 C 17.433594 8.019531 17.363281 8.105469 17.308594 8.199219 C 17.292969 8.21875 17.273438 8.238281 17.25 8.253906 C 17.246094 8.273438 17.246094 8.292969 17.246094 8.316406 C 17.246094 8.347656 17.257812 8.378906 17.246094 8.410156 C 17.246094 8.421875 17.238281 8.433594 17.230469 8.445312 C 17.234375 8.484375 17.242188 8.527344 17.25 8.570312 C 17.289062 8.667969 17.238281 8.777344 17.121094 8.777344 L 17.113281 8.777344 C 17.105469 8.777344 17.097656 8.777344 17.089844 8.773438 C 16.875 8.730469 16.984375 8.34375 16.992188 8.195312 C 17.054688 7.699219 17.191406 7.214844 17.484375 6.785156 C 17.617188 6.550781 17.746094 6.304688 17.96875 6.125 C 17.976562 6.117188 17.988281 6.109375 17.996094 6.105469 Z M 7.695312 4.769531 C 7.632812 4.65625 7.78125 4.574219 7.886719 4.664062 C 7.886719 4.667969 7.890625 4.671875 7.894531 4.671875 C 8.035156 4.667969 8.222656 4.765625 8.34375 4.78125 C 8.917969 4.890625 9.484375 5.042969 10.015625 5.269531 C 10.234375 5.375 10.417969 5.527344 10.617188 5.664062 C 10.734375 5.738281 10.859375 5.8125 10.980469 5.890625 C 10.996094 5.894531 11.007812 5.90625 11.019531 5.917969 C 11.179688 6.023438 11.324219 6.140625 11.429688 6.296875 C 11.453125 6.292969 11.484375 6.300781 11.515625 6.320312 C 11.777344 6.558594 12.035156 6.8125 12.238281 7.09375 C 12.351562 7.308594 12.402344 7.546875 12.519531 7.757812 C 12.535156 7.789062 12.546875 7.820312 12.5625 7.851562 C 12.628906 7.972656 12.6875 8.109375 12.6875 8.195312 C 12.71875 8.28125 12.6875 8.386719 12.574219 8.386719 L 12.5625 8.386719 C 12.484375 8.375 12.457031 8.308594 12.445312 8.246094 C 12.429688 8.132812 12.414062 8.019531 12.378906 7.910156 C 12.332031 7.816406 12.28125 7.730469 12.214844 7.648438 C 12.214844 7.644531 12.210938 7.644531 12.210938 7.640625 C 12.203125 7.640625 12.195312 7.640625 12.191406 7.640625 C 12.15625 7.640625 12.121094 7.636719 12.085938 7.632812 C 12.074219 7.636719 12.0625 7.640625 12.050781 7.640625 L 12.042969 7.640625 C 12.035156 7.636719 12.027344 7.628906 12.019531 7.625 C 12.015625 7.625 12.007812 7.625 12.003906 7.625 C 11.925781 7.613281 11.851562 7.605469 11.816406 7.609375 C 11.671875 7.597656 11.523438 7.597656 11.375 7.597656 C 11.152344 7.597656 10.929688 7.597656 10.707031 7.558594 C 10.085938 7.460938 9.527344 7.15625 9.015625 6.832031 C 8.582031 6.535156 8.402344 6.046875 8.109375 5.648438 C 8.039062 5.488281 7.667969 5.003906 7.695312 4.769531 Z M 13.554688 5.566406 C 13.574219 5.214844 13.605469 4.863281 13.753906 4.535156 C 13.863281 4.285156 13.988281 4.039062 14.121094 3.796875 C 14.253906 3.519531 14.375 3.234375 14.558594 2.980469 C 14.664062 2.851562 14.707031 2.675781 14.84375 2.574219 C 14.96875 2.515625 15.058594 2.621094 15.082031 2.726562 C 15.175781 3.015625 15.273438 3.304688 15.410156 3.582031 C 15.550781 3.859375 15.738281 4.125 15.824219 4.425781 C 15.90625 4.667969 15.910156 4.921875 15.953125 5.171875 C 16 5.453125 16.039062 5.742188 16.015625 6.027344 C 16 6.269531 15.898438 6.492188 15.808594 6.714844 C 15.699219 6.9375 15.527344 7.128906 15.457031 7.363281 C 15.371094 7.679688 15.125 7.90625 14.890625 8.136719 C 14.851562 8.167969 14.816406 8.21875 14.769531 8.253906 C 14.773438 8.296875 14.753906 8.332031 14.6875 8.332031 C 14.652344 8.324219 14.636719 8.296875 14.625 8.265625 C 14.59375 8.246094 14.574219 8.214844 14.570312 8.179688 C 14.058594 7.949219 13.898438 7.371094 13.695312 6.925781 C 13.5625 6.597656 13.507812 6.242188 13.53125 5.894531 C 13.539062 5.808594 13.542969 5.71875 13.546875 5.632812 C 13.539062 5.609375 13.539062 5.585938 13.554688 5.566406 Z M 13.890625 7.023438 C 13.9375 7.148438 13.996094 7.269531 14.074219 7.382812 C 14.214844 7.597656 14.355469 7.832031 14.582031 7.976562 C 14.582031 7.816406 14.582031 7.652344 14.582031 7.492188 C 14.445312 7.386719 14.277344 7.320312 14.132812 7.226562 C 14.046875 7.164062 13.96875 7.089844 13.890625 7.023438 Z M 15.589844 6.742188 C 15.484375 6.84375 15.371094 6.9375 15.332031 6.976562 C 15.15625 7.136719 14.988281 7.304688 14.785156 7.4375 C 14.773438 7.441406 14.761719 7.449219 14.75 7.449219 C 14.75 7.613281 14.742188 7.78125 14.742188 7.949219 C 14.789062 7.898438 14.839844 7.851562 14.890625 7.804688 C 15.125 7.640625 15.277344 7.421875 15.394531 7.179688 C 15.476562 7.035156 15.539062 6.890625 15.589844 6.742188 Z M 18.136719 7.359375 C 18.25 7.386719 18.371094 7.398438 18.402344 7.402344 C 18.464844 7.402344 18.558594 7.410156 18.664062 7.417969 C 18.757812 7.425781 18.859375 7.433594 18.960938 7.4375 C 18.984375 7.4375 19.011719 7.4375 19.035156 7.4375 C 18.703125 7.597656 18.34375 7.703125 17.957031 7.683594 C 17.882812 7.683594 17.804688 7.679688 17.730469 7.679688 C 17.84375 7.574219 17.964844 7.480469 18.089844 7.390625 C 18.105469 7.378906 18.121094 7.371094 18.136719 7.359375 Z M 18.320312 6.058594 C 18.273438 6.09375 18.230469 6.128906 18.1875 6.167969 C 17.8125 6.546875 17.613281 7.050781 17.488281 7.542969 C 17.640625 7.421875 17.800781 7.3125 17.964844 7.207031 C 18.058594 6.933594 18.160156 6.660156 18.222656 6.378906 C 18.257812 6.277344 18.285156 6.167969 18.320312 6.058594 Z M 11.101562 6.292969 C 11.335938 6.5 11.546875 6.734375 11.753906 6.964844 C 11.871094 7.128906 11.957031 7.304688 12.070312 7.46875 L 12.066406 7.46875 C 12.066406 7.46875 12.0625 7.46875 12.0625 7.46875 L 12.058594 7.46875 C 11.851562 7.300781 11.675781 7.109375 11.453125 6.957031 C 11.34375 6.886719 11.242188 6.808594 11.140625 6.726562 C 11.144531 6.601562 11.121094 6.472656 11.109375 6.351562 C 11.109375 6.332031 11.105469 6.3125 11.101562 6.292969 Z M 11.109375 6.902344 C 11.234375 6.96875 11.355469 7.03125 11.476562 7.101562 C 11.617188 7.203125 11.71875 7.34375 11.835938 7.464844 C 11.691406 7.464844 11.546875 7.460938 11.40625 7.441406 C 11.132812 7.410156 10.875 7.332031 10.617188 7.253906 C 10.757812 7.171875 10.890625 7.078125 11.027344 6.992188 C 11.058594 6.96875 11.085938 6.9375 11.109375 6.902344 Z M 13.738281 5.828125 C 13.734375 5.957031 13.742188 6.085938 13.761719 6.21875 C 13.769531 6.40625 13.785156 6.597656 13.824219 6.78125 C 13.953125 6.871094 14.054688 6.988281 14.179688 7.085938 C 14.214844 7.113281 14.441406 7.238281 14.582031 7.347656 C 14.582031 7.121094 14.578125 6.894531 14.5625 6.667969 C 14.558594 6.640625 14.554688 6.609375 14.550781 6.582031 C 14.519531 6.539062 14.492188 6.496094 14.453125 6.46875 C 14.28125 6.351562 14.101562 6.242188 13.980469 6.082031 C 13.90625 5.992188 13.824219 5.90625 13.738281 5.828125 Z M 20.082031 6.78125 C 19.914062 6.964844 19.675781 7.085938 19.453125 7.210938 C 19.449219 7.210938 19.445312 7.210938 19.4375 7.214844 C 19.402344 7.226562 19.371094 7.242188 19.332031 7.246094 C 19.113281 7.300781 18.890625 7.332031 18.664062 7.324219 C 18.535156 7.320312 18.40625 7.300781 18.277344 7.277344 C 18.570312 7.121094 18.902344 7.015625 19.183594 6.839844 C 19.1875 6.839844 19.1875 6.839844 19.191406 6.84375 C 19.214844 6.851562 19.257812 6.855469 19.316406 6.859375 C 19.339844 6.859375 19.359375 6.859375 19.382812 6.859375 C 19.578125 6.859375 19.863281 6.832031 20.082031 6.78125 Z M 15.734375 5.480469 C 15.515625 5.664062 15.359375 5.90625 15.191406 6.125 C 15.0625 6.300781 14.90625 6.457031 14.769531 6.621094 C 14.746094 6.78125 14.726562 6.941406 14.730469 7.101562 C 14.738281 7.164062 14.742188 7.230469 14.746094 7.292969 C 14.785156 7.265625 14.828125 7.242188 14.855469 7.214844 C 15.019531 7.09375 15.152344 6.9375 15.320312 6.820312 C 15.464844 6.722656 15.585938 6.597656 15.671875 6.453125 C 15.742188 6.132812 15.757812 5.804688 15.734375 5.480469 Z M 10.34375 6.394531 C 10.429688 6.457031 10.507812 6.523438 10.59375 6.585938 C 10.722656 6.683594 10.863281 6.769531 11.007812 6.847656 C 10.976562 6.878906 10.941406 6.90625 10.894531 6.921875 C 10.722656 6.996094 10.601562 7.144531 10.414062 7.191406 C 10.410156 7.191406 10.410156 7.195312 10.40625 7.195312 C 10.214844 7.148438 10.023438 7.113281 9.839844 7.042969 C 9.6875 6.960938 9.535156 6.875 9.386719 6.78125 C 9.6875 6.738281 9.949219 6.589844 10.195312 6.4375 C 10.230469 6.414062 10.292969 6.410156 10.34375 6.394531 Z M 19.476562 5.367188 C 19.195312 5.5 18.921875 5.644531 18.667969 5.8125 C 18.429688 6.222656 18.253906 6.667969 18.117188 7.113281 C 18.117188 7.113281 18.113281 7.117188 18.113281 7.121094 C 18.371094 6.972656 18.636719 6.839844 18.898438 6.703125 C 18.941406 6.605469 19 6.507812 19.011719 6.460938 C 19.207031 6.109375 19.359375 5.746094 19.476562 5.367188 Z M 20.628906 6.050781 C 20.507812 6.203125 20.386719 6.359375 20.269531 6.515625 C 20.238281 6.515625 20.207031 6.523438 20.179688 6.542969 C 20 6.59375 19.8125 6.632812 19.625 6.65625 C 19.566406 6.660156 19.503906 6.667969 19.445312 6.671875 C 19.636719 6.535156 19.808594 6.371094 19.984375 6.214844 C 20.179688 6.199219 20.371094 6.113281 20.5625 6.070312 C 20.582031 6.0625 20.605469 6.054688 20.628906 6.050781 Z M 9.359375 5.824219 C 9.386719 5.84375 9.414062 5.863281 9.441406 5.882812 C 9.671875 6.042969 9.921875 6.175781 10.179688 6.289062 C 10.195312 6.296875 10.207031 6.304688 10.21875 6.3125 C 10.082031 6.363281 9.957031 6.441406 9.8125 6.484375 C 9.660156 6.535156 9.527344 6.628906 9.363281 6.640625 C 9.3125 6.648438 9.257812 6.65625 9.207031 6.65625 C 8.996094 6.503906 8.800781 6.335938 8.632812 6.144531 C 8.558594 6.054688 8.488281 5.957031 8.425781 5.859375 C 8.453125 5.859375 8.480469 5.863281 8.503906 5.863281 C 8.523438 5.863281 8.539062 5.863281 8.554688 5.863281 C 8.683594 5.863281 8.816406 5.84375 8.949219 5.832031 C 9.070312 5.820312 9.191406 5.824219 9.3125 5.824219 C 9.328125 5.824219 9.34375 5.824219 9.359375 5.824219 Z M 10.136719 5.613281 C 10.410156 5.769531 10.675781 5.941406 10.917969 6.136719 C 10.941406 6.289062 10.964844 6.441406 10.980469 6.597656 C 10.90625 6.535156 10.824219 6.476562 10.742188 6.425781 C 10.621094 6.359375 10.5 6.289062 10.382812 6.21875 C 10.378906 6.210938 10.375 6.203125 10.371094 6.195312 C 10.304688 6.046875 10.269531 5.890625 10.191406 5.746094 C 10.171875 5.703125 10.15625 5.65625 10.136719 5.613281 Z M 20.316406 5.03125 C 20.128906 5.09375 19.949219 5.15625 19.773438 5.234375 C 19.753906 5.242188 19.734375 5.25 19.714844 5.257812 C 19.707031 5.277344 19.699219 5.292969 19.691406 5.308594 C 19.652344 5.414062 19.609375 5.523438 19.558594 5.625 C 19.402344 5.945312 19.246094 6.265625 19.113281 6.589844 C 19.324219 6.476562 19.535156 6.359375 19.734375 6.226562 C 19.765625 6.207031 19.796875 6.179688 19.828125 6.15625 C 19.832031 6.140625 19.839844 6.125 19.851562 6.109375 C 20.101562 5.796875 20.21875 5.410156 20.316406 5.03125 Z M 13.9375 4.761719 C 13.851562 5.046875 13.78125 5.335938 13.75 5.625 C 13.929688 5.78125 14.066406 5.96875 14.234375 6.136719 C 14.261719 6.167969 14.421875 6.292969 14.542969 6.410156 C 14.535156 6.265625 14.539062 6.117188 14.542969 5.972656 C 14.542969 5.953125 14.542969 5.925781 14.546875 5.898438 C 14.554688 5.746094 14.566406 5.59375 14.570312 5.441406 C 14.367188 5.269531 14.199219 5.058594 14.027344 4.859375 C 14.011719 4.835938 13.976562 4.800781 13.9375 4.761719 Z M 15.515625 4.378906 C 15.3125 4.671875 15.125 4.976562 14.992188 5.304688 C 14.9375 5.417969 14.871094 5.527344 14.816406 5.640625 C 14.824219 5.875 14.820312 6.109375 14.808594 6.34375 C 14.859375 6.292969 14.902344 6.25 14.921875 6.226562 C 15.082031 6.027344 15.25 5.832031 15.425781 5.648438 C 15.511719 5.53125 15.613281 5.425781 15.707031 5.316406 C 15.710938 5.316406 15.714844 5.3125 15.714844 5.308594 C 15.6875 5.070312 15.636719 4.832031 15.570312 4.597656 C 15.554688 4.527344 15.535156 4.453125 15.515625 4.378906 Z M 9.242188 5.171875 C 9.457031 5.265625 9.671875 5.367188 9.882812 5.476562 C 9.960938 5.652344 10.058594 5.820312 10.136719 5.996094 C 10.148438 6.027344 10.15625 6.054688 10.167969 6.085938 C 10.023438 5.992188 9.878906 5.898438 9.734375 5.804688 C 9.691406 5.777344 9.648438 5.753906 9.601562 5.730469 C 9.601562 5.726562 9.597656 5.71875 9.597656 5.714844 C 9.578125 5.679688 9.53125 5.667969 9.492188 5.667969 L 9.488281 5.667969 C 9.414062 5.5 9.332031 5.332031 9.242188 5.171875 Z M 21.15625 5.171875 C 21.074219 5.375 20.976562 5.574219 20.855469 5.757812 C 20.832031 5.789062 20.808594 5.816406 20.785156 5.847656 C 20.695312 5.847656 20.558594 5.925781 20.492188 5.933594 C 20.398438 5.960938 20.304688 5.992188 20.210938 6.019531 C 20.222656 6.011719 20.230469 6.003906 20.242188 5.996094 C 20.582031 5.757812 20.886719 5.476562 21.15625 5.171875 Z M 21.320312 4.605469 C 21.0625 4.773438 20.769531 4.878906 20.472656 4.980469 C 20.453125 5.050781 20.425781 5.121094 20.40625 5.1875 C 20.332031 5.402344 20.28125 5.632812 20.191406 5.84375 C 20.589844 5.472656 20.9375 5.054688 21.308594 4.660156 C 21.3125 4.644531 21.316406 4.625 21.320312 4.605469 Z M 7.929688 4.953125 C 8.085938 5.066406 8.242188 5.179688 8.40625 5.28125 C 8.640625 5.390625 8.863281 5.511719 9.082031 5.648438 C 9.023438 5.648438 8.964844 5.652344 8.90625 5.65625 C 8.746094 5.664062 8.582031 5.671875 8.421875 5.652344 C 8.382812 5.628906 8.339844 5.632812 8.308594 5.652344 C 8.25 5.542969 8.191406 5.433594 8.136719 5.324219 C 8.078125 5.199219 7.988281 5.078125 7.929688 4.953125 Z M 8.289062 4.957031 C 8.378906 4.976562 8.46875 4.996094 8.558594 5.007812 C 8.71875 5.027344 8.878906 5.042969 9.035156 5.089844 C 9.03125 5.109375 9.035156 5.136719 9.050781 5.164062 C 9.117188 5.300781 9.191406 5.433594 9.257812 5.570312 C 9.234375 5.558594 9.214844 5.546875 9.195312 5.535156 C 8.890625 5.347656 8.585938 5.160156 8.289062 4.957031 Z M 15.261719 3.585938 C 15.183594 3.726562 15.101562 3.867188 15.011719 4 C 14.972656 4.066406 14.933594 4.128906 14.902344 4.195312 C 14.914062 4.335938 14.921875 4.476562 14.910156 4.617188 C 14.886719 4.847656 14.824219 5.078125 14.8125 5.3125 C 14.957031 5.054688 15.109375 4.808594 15.144531 4.734375 C 15.269531 4.558594 15.347656 4.359375 15.464844 4.179688 C 15.414062 3.980469 15.347656 3.78125 15.261719 3.585938 Z M 14.335938 3.691406 C 14.289062 3.769531 14.246094 3.847656 14.207031 3.925781 C 14.101562 4.136719 14.039062 4.363281 13.980469 4.589844 C 14.140625 4.765625 14.3125 4.929688 14.464844 5.109375 C 14.480469 5.132812 14.523438 5.175781 14.578125 5.222656 C 14.578125 5.175781 14.578125 5.128906 14.578125 5.085938 C 14.589844 4.785156 14.597656 4.480469 14.625 4.183594 C 14.613281 4.15625 14.601562 4.128906 14.585938 4.109375 C 14.515625 3.964844 14.414062 3.832031 14.335938 3.691406 Z M 14.949219 3.03125 C 14.941406 3.222656 14.90625 3.410156 14.867188 3.59375 C 14.851562 3.691406 14.863281 3.789062 14.875 3.882812 C 14.875 3.902344 14.878906 3.917969 14.878906 3.933594 C 14.992188 3.746094 15.113281 3.578125 15.15625 3.511719 C 15.164062 3.496094 15.179688 3.476562 15.199219 3.460938 C 15.117188 3.316406 15.023438 3.175781 14.949219 3.03125 Z M 14.769531 3.074219 C 14.664062 3.21875 14.554688 3.359375 14.457031 3.507812 C 14.511719 3.625 14.582031 3.738281 14.652344 3.855469 C 14.660156 3.769531 14.675781 3.683594 14.699219 3.601562 C 14.757812 3.433594 14.785156 3.253906 14.769531 3.074219 Z M 14.769531 3.074219 " fill-opacity="1" fill-rule="evenodd"/></g><path fill="#d4f2b6" d="M 12.753906 16.175781 C 12.652344 16.171875 12.546875 16.167969 12.445312 16.160156 C 12.101562 16.144531 11.757812 16.125 11.417969 16.171875 C 11.285156 16.257812 11.164062 16.101562 11.222656 15.976562 C 11.289062 15.839844 11.453125 15.808594 11.585938 15.789062 C 12.335938 15.707031 13.09375 15.734375 13.84375 15.796875 C 14.058594 15.832031 14.292969 15.816406 14.492188 15.894531 C 14.613281 16 14.503906 16.199219 14.359375 16.199219 C 14.355469 16.199219 14.34375 16.199219 14.339844 16.195312 C 13.933594 16.152344 13.53125 16.175781 13.125 16.179688 C 13.109375 16.242188 13.066406 16.289062 13.085938 16.367188 C 13.078125 16.914062 13.109375 17.464844 13.070312 18.011719 C 12.9375 19.089844 13.042969 20.164062 13.113281 21.242188 C 13.125 21.890625 13.148438 22.535156 13.117188 23.179688 C 13.113281 23.386719 13.117188 23.597656 13.144531 23.800781 C 13.179688 24.007812 13.265625 24.371094 12.953125 24.371094 L 12.941406 24.371094 C 12.808594 24.347656 12.75 24.214844 12.753906 24.09375 C 12.726562 23.835938 12.734375 23.582031 12.734375 23.328125 C 12.707031 22.738281 12.566406 22.160156 12.558594 21.566406 C 12.550781 20.601562 12.660156 19.640625 12.664062 18.671875 C 12.671875 17.890625 12.714844 17.113281 12.738281 16.335938 C 12.742188 16.285156 12.746094 16.230469 12.753906 16.175781 Z M 14.933594 20.589844 C 14.441406 20.398438 14.285156 19.78125 14.285156 19.253906 C 14.25 18.746094 14.21875 18.234375 14.210938 17.726562 C 14.222656 17.453125 14.128906 17.164062 14.203125 16.898438 C 14.253906 16.792969 14.417969 16.761719 14.480469 16.875 C 14.492188 16.90625 14.503906 16.941406 14.511719 16.976562 C 14.519531 17.023438 14.5 17.074219 14.511719 17.117188 C 14.570312 17.742188 14.644531 18.367188 14.667969 18.992188 C 14.703125 19.4375 14.65625 20.207031 15.269531 20.222656 C 15.304688 20.226562 15.324219 20.226562 15.34375 20.191406 C 15.507812 19.8125 15.5 19.382812 15.574219 18.976562 C 15.664062 18.480469 15.699219 17.984375 15.6875 17.480469 C 15.695312 16.96875 15.714844 16.460938 15.714844 15.949219 C 15.695312 15.785156 15.753906 15.589844 15.941406 15.566406 C 16.074219 15.546875 16.175781 15.652344 16.171875 15.78125 C 16.226562 16.507812 16.171875 17.238281 16.082031 17.960938 C 16.007812 18.617188 16.09375 19.285156 15.9375 19.933594 C 15.851562 20.238281 15.671875 20.648438 15.304688 20.648438 C 15.292969 20.648438 15.28125 20.648438 15.269531 20.648438 C 15.265625 20.648438 15.261719 20.648438 15.253906 20.648438 C 15.253906 20.882812 15.253906 21.113281 15.265625 21.34375 C 15.328125 22.035156 15.316406 22.722656 15.277344 23.414062 C 15.277344 23.644531 15.285156 23.875 15.285156 24.105469 C 15.300781 24.21875 15.226562 24.339844 15.113281 24.339844 C 15.101562 24.339844 15.089844 24.335938 15.078125 24.335938 C 14.84375 24.253906 14.960938 23.9375 14.925781 23.75 C 14.863281 22.757812 14.855469 21.765625 14.921875 20.773438 C 14.929688 20.714844 14.929688 20.652344 14.933594 20.589844 Z M 11.589844 23.769531 C 11.214844 23.667969 10.832031 23.609375 10.457031 23.507812 C 10.113281 23.4375 9.957031 23.09375 9.957031 22.769531 C 9.925781 22.363281 9.984375 21.960938 9.972656 21.554688 C 9.980469 20.902344 9.886719 20.253906 9.941406 19.601562 C 10.015625 18.722656 10.125 17.84375 10.152344 16.960938 C 10.160156 16.621094 10.160156 16.285156 10.183594 15.945312 C 10.195312 15.816406 10.160156 15.667969 10.246094 15.558594 C 10.339844 15.457031 10.46875 15.488281 10.511719 15.621094 C 10.574219 15.695312 10.578125 15.808594 10.488281 15.863281 C 10.496094 16.417969 10.414062 16.972656 10.421875 17.527344 C 10.414062 18.179688 10.519531 18.820312 10.519531 19.472656 C 10.5 20.152344 10.375 20.824219 10.34375 21.5 C 10.328125 21.921875 10.371094 22.339844 10.414062 22.757812 C 10.4375 23.035156 10.765625 23.113281 10.980469 23.21875 C 11.21875 23.335938 11.464844 23.445312 11.707031 23.539062 C 11.78125 23.621094 11.722656 23.773438 11.613281 23.773438 C 11.605469 23.773438 11.597656 23.769531 11.589844 23.769531 Z M 18.300781 15.929688 C 18.226562 15.929688 18.152344 15.925781 18.078125 15.921875 C 17.914062 15.945312 17.765625 15.746094 17.898438 15.617188 C 18.089844 15.476562 18.359375 15.527344 18.585938 15.496094 C 19.175781 15.46875 19.769531 15.398438 20.359375 15.484375 C 20.65625 15.601562 20.546875 15.949219 20.261719 15.949219 C 20.242188 15.949219 20.222656 15.949219 20.199219 15.945312 C 19.902344 15.9375 19.601562 15.9375 19.304688 15.9375 C 19.03125 15.941406 18.761719 15.941406 18.488281 15.9375 C 18.46875 16.59375 18.621094 17.242188 18.625 17.902344 C 18.632812 18.328125 18.59375 18.753906 18.570312 19.183594 C 18.578125 19.179688 18.585938 19.179688 18.59375 19.179688 C 18.609375 19.179688 18.628906 19.175781 18.644531 19.175781 C 18.789062 19.179688 18.933594 19.15625 19.074219 19.132812 C 19.210938 19.109375 19.347656 19.085938 19.480469 19.085938 C 19.644531 19.128906 19.675781 19.335938 19.59375 19.464844 C 19.539062 19.558594 19.433594 19.597656 19.328125 19.59375 C 19.136719 19.601562 18.941406 19.609375 18.746094 19.609375 C 18.722656 19.609375 18.699219 19.609375 18.675781 19.609375 C 18.636719 19.609375 18.597656 19.609375 18.554688 19.605469 C 18.554688 20.109375 18.617188 20.609375 18.644531 21.109375 C 18.6875 21.699219 18.683594 22.289062 18.648438 22.878906 C 18.664062 23.09375 18.648438 23.464844 18.375 23.464844 C 18.359375 23.464844 18.34375 23.464844 18.324219 23.460938 C 18.003906 23.351562 18.136719 22.933594 18.078125 22.675781 C 17.960938 21.949219 17.945312 21.207031 18.011719 20.472656 C 18.085938 19.535156 18.078125 18.589844 18.164062 17.652344 C 18.238281 17.078125 18.304688 16.507812 18.300781 15.929688 Z M 20.761719 22.949219 C 20.15625 22.742188 20.152344 21.835938 19.992188 21.304688 C 19.898438 20.832031 19.847656 20.34375 19.890625 19.863281 C 19.953125 19.347656 20.035156 18.832031 20.054688 18.308594 C 20.089844 17.875 19.9375 16.710938 20.519531 16.632812 C 20.644531 16.621094 20.757812 16.6875 20.859375 16.746094 C 21.03125 16.828125 21.167969 16.972656 21.25 17.144531 C 21.699219 18.015625 21.554688 19.035156 21.546875 19.984375 C 21.503906 20.84375 21.855469 21.75 21.507812 22.578125 C 21.40625 22.804688 21.175781 22.972656 20.929688 22.972656 C 20.875 22.972656 20.816406 22.964844 20.761719 22.949219 Z M 20.507812 17.007812 C 20.324219 18.007812 20.320312 19.050781 20.457031 20.058594 C 20.507812 20.535156 20.5625 21.015625 20.609375 21.496094 C 20.636719 21.664062 20.683594 22.546875 20.957031 22.386719 C 21.117188 22.105469 21.128906 21.761719 21.199219 21.449219 C 21.28125 20.933594 21.335938 20.410156 21.320312 19.890625 C 21.234375 19.203125 21.21875 18.492188 20.992188 17.839844 C 20.917969 17.652344 20.859375 17.453125 20.738281 17.292969 C 20.667969 17.210938 20.539062 17.175781 20.53125 17.046875 C 20.53125 17.039062 20.523438 16.96875 20.535156 16.960938 C 20.523438 16.96875 20.511719 17.003906 20.507812 17.007812 Z M 5.996094 16.5 C 5.941406 16.433594 5.933594 16.292969 6.027344 16.214844 C 6.269531 16.015625 6.617188 16.144531 6.902344 16.15625 C 7.027344 16.175781 7.164062 16.164062 7.28125 16.210938 C 7.46875 16.335938 7.324219 16.648438 7.121094 16.648438 C 7.109375 16.648438 7.101562 16.648438 7.089844 16.644531 C 6.832031 16.582031 6.574219 16.484375 6.304688 16.460938 C 6.328125 16.542969 6.308594 16.644531 6.3125 16.730469 C 6.3125 17.363281 6.292969 18 6.300781 18.632812 C 6.347656 18.578125 6.421875 18.542969 6.496094 18.554688 C 6.695312 18.550781 6.898438 18.5 7.089844 18.523438 C 7.308594 18.628906 7.144531 18.980469 6.933594 18.980469 C 6.925781 18.980469 6.917969 18.980469 6.90625 18.980469 C 6.746094 18.957031 6.582031 18.941406 6.417969 18.917969 C 6.378906 18.910156 6.335938 18.90625 6.304688 18.878906 C 6.316406 19.441406 6.355469 20 6.449219 20.558594 C 6.472656 20.714844 6.503906 20.871094 6.535156 21.023438 C 6.539062 21.046875 6.546875 21.042969 6.566406 21.054688 C 6.738281 21.148438 6.949219 21.109375 7.125 21.183594 C 7.4375 21.359375 7.269531 21.917969 6.921875 21.917969 C 6.914062 21.917969 6.902344 21.917969 6.894531 21.917969 C 5.835938 21.886719 5.921875 21.042969 5.921875 20.238281 C 5.929688 19.03125 5.914062 17.820312 5.96875 16.617188 C 5.96875 16.578125 5.976562 16.535156 5.996094 16.5 Z M 7.976562 19.996094 C 8.046875 20.128906 7.886719 20.328125 7.730469 20.332031 C 7.429688 20.277344 7.582031 19.742188 7.582031 19.527344 C 7.605469 19.089844 7.675781 18.65625 7.738281 18.222656 C 7.917969 17.300781 7.945312 16.320312 8.328125 15.457031 C 8.410156 15.328125 8.578125 15.238281 8.722656 15.3125 C 9.164062 15.605469 9.097656 16.390625 9.136719 16.863281 C 9.199219 18.089844 9.328125 19.3125 9.230469 20.539062 C 9.238281 20.789062 9.238281 21.207031 8.894531 21.207031 L 8.890625 21.207031 C 8.710938 21.171875 8.695312 20.96875 8.703125 20.816406 C 8.703125 20.636719 8.695312 20.453125 8.6875 20.269531 C 8.679688 20.183594 8.675781 20.09375 8.671875 20.007812 C 8.441406 20.003906 8.210938 20 7.976562 19.996094 Z M 5.015625 17.40625 C 5.007812 17.042969 5.011719 16.683594 5.023438 16.324219 C 5.027344 16.179688 5.027344 16.035156 5.035156 15.890625 C 5.039062 15.773438 5.050781 15.640625 5.160156 15.570312 C 5.234375 15.527344 5.34375 15.519531 5.394531 15.601562 C 5.421875 15.644531 5.417969 15.703125 5.402344 15.75 C 5.386719 15.777344 5.371094 15.800781 5.375 15.835938 C 5.355469 16.296875 5.386719 16.761719 5.40625 17.222656 C 5.40625 17.246094 5.40625 17.273438 5.40625 17.296875 C 5.507812 17.28125 5.601562 17.300781 5.613281 17.433594 C 5.621094 17.585938 5.53125 17.664062 5.417969 17.707031 C 5.429688 18.25 5.449219 18.789062 5.53125 19.324219 C 5.582031 19.675781 5.640625 20.023438 5.671875 20.378906 C 5.726562 20.613281 5.601562 20.914062 5.335938 20.914062 C 5.328125 20.914062 5.324219 20.914062 5.316406 20.914062 C 5.144531 20.882812 5.128906 20.691406 5.132812 20.550781 C 5.125 20.222656 5.136719 19.894531 5.105469 19.570312 C 5.074219 18.976562 5.039062 18.378906 5.023438 17.78125 C 4.675781 17.828125 4.324219 17.832031 3.976562 17.875 C 3.945312 17.875 3.925781 17.878906 3.90625 17.886719 C 3.917969 18.011719 3.9375 18.136719 3.957031 18.257812 C 3.976562 18.386719 4.027344 18.515625 4.007812 18.644531 C 3.976562 18.804688 3.84375 18.949219 3.675781 18.949219 C 3.671875 18.949219 3.664062 18.945312 3.65625 18.945312 C 3.515625 18.921875 3.480469 18.777344 3.472656 18.65625 C 3.402344 18.191406 3.40625 17.71875 3.425781 17.246094 C 3.457031 16.773438 3.390625 16.296875 3.441406 15.828125 C 3.523438 15.484375 4.007812 15.597656 3.789062 15.929688 C 3.816406 16.484375 3.824219 17.042969 3.875 17.59375 C 3.894531 17.585938 3.914062 17.582031 3.933594 17.578125 C 4.289062 17.507812 4.65625 17.484375 5.015625 17.40625 Z M 22.082031 20.695312 C 21.851562 20.5 21.800781 20.179688 21.753906 19.898438 C 21.628906 19.300781 21.75 18.695312 21.769531 18.097656 C 21.855469 17.589844 21.488281 15.753906 22.109375 15.648438 C 22.164062 15.644531 22.21875 15.652344 22.265625 15.679688 C 22.277344 15.6875 22.289062 15.6875 22.300781 15.675781 C 22.417969 15.65625 22.511719 15.757812 22.601562 15.816406 C 22.785156 15.953125 22.972656 16.113281 23.023438 16.34375 C 23.046875 16.421875 23.0625 16.503906 23.078125 16.578125 C 23.152344 16.867188 23.160156 17.167969 23.1875 17.464844 C 23.238281 17.929688 23.292969 18.394531 23.3125 18.863281 C 23.332031 19.386719 23.09375 20.824219 22.441406 20.824219 C 22.332031 20.824219 22.210938 20.785156 22.082031 20.695312 Z M 22.09375 16.175781 C 22.011719 17.226562 22.125 18.269531 22.25 19.3125 C 22.265625 19.472656 22.296875 19.632812 22.316406 19.792969 C 22.34375 19.964844 22.332031 20.164062 22.429688 20.3125 C 22.738281 20.625 22.851562 19.167969 22.894531 19 C 22.992188 18.257812 23.121094 17.4375 22.8125 16.730469 C 22.742188 16.582031 22.710938 16.402344 22.570312 16.304688 C 22.453125 16.203125 22.3125 16.136719 22.175781 16.074219 C 22.152344 16.058594 22.132812 16.042969 22.125 16.015625 C 22.117188 16.015625 22.09375 16.167969 22.09375 16.175781 Z M 24.28125 15.125 C 24.824219 15.003906 25.492188 15.144531 25.957031 15.4375 C 26.375 15.699219 26.390625 16.230469 26.277344 16.660156 C 26.050781 17.410156 25.808594 18.191406 25.355469 18.839844 C 25.175781 19.070312 24.96875 19.277344 24.769531 19.492188 C 24.671875 19.578125 24.582031 19.703125 24.480469 19.800781 C 24.457031 19.953125 24.359375 20.09375 24.191406 20.09375 C 24.183594 20.09375 24.171875 20.09375 24.160156 20.089844 C 24.003906 20.070312 23.917969 19.921875 23.921875 19.773438 C 23.914062 19.496094 23.921875 19.222656 23.929688 18.945312 C 23.960938 18.292969 23.972656 17.636719 23.957031 16.984375 C 23.941406 16.472656 23.976562 15.960938 24.011719 15.453125 C 24.027344 15.339844 24.015625 15.195312 24.105469 15.113281 C 24.164062 15.070312 24.238281 15.082031 24.28125 15.125 Z M 8.667969 19.570312 C 8.476562 19.582031 8.28125 19.585938 8.089844 19.589844 C 8.039062 19.585938 7.984375 19.585938 7.933594 19.59375 C 8.027344 18.417969 8.132812 17.238281 8.492188 16.113281 C 8.816406 17.242188 8.671875 18.410156 8.667969 19.570312 Z M 24.433594 18.996094 C 24.40625 18.761719 24.371094 18.527344 24.335938 18.292969 C 24.246094 17.550781 24.296875 16.800781 24.292969 16.058594 C 24.285156 15.863281 24.292969 15.671875 24.304688 15.480469 C 24.332031 15.484375 24.363281 15.480469 24.390625 15.476562 C 24.886719 15.488281 25.667969 15.546875 25.867188 16.085938 C 26.035156 16.882812 25.511719 17.632812 25.066406 18.25 C 24.871094 18.511719 24.648438 18.75 24.433594 18.996094 Z M 24.433594 18.996094 " fill-opacity="1" fill-rule="evenodd"/><path fill="#3e5922" d="M 20.269531 12.332031 C 20.304688 12.1875 20.332031 12.042969 20.347656 11.898438 C 20.398438 11.269531 20.40625 10.632812 20.519531 10.007812 C 20.589844 9.703125 20.601562 9.367188 20.757812 9.09375 C 21.042969 8.796875 21.28125 9.296875 21.328125 9.539062 C 21.449219 10.085938 21.347656 10.65625 21.308594 11.210938 C 21.28125 11.523438 21.273438 11.835938 21.285156 12.148438 C 21.308594 12.144531 21.332031 12.140625 21.355469 12.136719 C 21.496094 12.09375 21.550781 12.277344 21.480469 12.375 C 21.441406 12.445312 21.375 12.457031 21.300781 12.460938 C 21.300781 12.484375 21.304688 12.507812 21.304688 12.53125 C 21.335938 12.78125 21.363281 13.027344 21.371094 13.28125 C 21.390625 13.40625 21.3125 13.558594 21.175781 13.558594 C 21.171875 13.558594 21.164062 13.558594 21.160156 13.558594 C 21.066406 13.539062 21.035156 13.441406 21.039062 13.355469 C 21.015625 13.058594 21.011719 12.761719 21.027344 12.46875 C 20.816406 12.476562 20.605469 12.488281 20.398438 12.527344 C 20.371094 12.675781 20.347656 12.824219 20.328125 12.972656 C 20.355469 13.066406 20.230469 13.214844 20.171875 13.074219 C 20.160156 12.867188 20.195312 12.664062 20.242188 12.460938 C 20.234375 12.417969 20.246094 12.371094 20.269531 12.332031 Z M 12.894531 9.289062 C 12.726562 9.273438 12.558594 9.265625 12.390625 9.269531 C 12.324219 9.265625 12.246094 9.269531 12.207031 9.210938 C 12.128906 9.066406 12.292969 8.964844 12.421875 8.972656 C 12.585938 8.960938 12.75 8.960938 12.914062 8.960938 C 13.164062 8.960938 13.410156 8.988281 13.65625 9.015625 C 13.730469 9.027344 13.820312 9.023438 13.875 9.082031 C 13.992188 9.214844 13.851562 9.417969 13.695312 9.417969 C 13.683594 9.417969 13.671875 9.417969 13.660156 9.414062 C 13.492188 9.378906 13.324219 9.347656 13.15625 9.320312 C 13.222656 10.144531 13.144531 10.988281 13.230469 11.8125 C 13.269531 12.078125 13.289062 12.34375 13.34375 12.605469 C 13.378906 12.917969 13.523438 13.527344 13.046875 13.539062 C 12.796875 13.503906 12.800781 13.261719 12.8125 13.066406 C 12.828125 12.804688 12.8125 12.542969 12.832031 12.285156 C 12.882812 11.578125 12.878906 10.867188 12.894531 10.160156 C 12.902344 9.867188 12.894531 9.578125 12.894531 9.289062 Z M 22.394531 9.429688 C 22.503906 9.554688 22.609375 9.859375 22.636719 9.925781 C 22.703125 10.132812 22.746094 10.34375 22.820312 10.546875 C 22.90625 10.691406 22.953125 10.84375 22.984375 11.007812 C 23.175781 11.714844 23.28125 12.445312 23.542969 13.125 C 23.625 12.832031 23.601562 12.519531 23.644531 12.214844 C 23.632812 12.03125 23.667969 11.855469 23.695312 11.675781 C 23.675781 11.433594 23.742188 11.199219 23.730469 10.957031 C 23.738281 10.558594 23.722656 10.164062 23.691406 9.765625 C 23.667969 9.597656 23.667969 9.425781 23.65625 9.253906 C 23.660156 9.121094 23.628906 8.984375 23.664062 8.855469 C 23.703125 8.753906 23.839844 8.660156 23.941406 8.730469 C 24.050781 8.832031 23.984375 9.007812 24 9.136719 C 24.003906 9.828125 23.894531 10.523438 23.964844 11.210938 C 24.007812 11.386719 23.960938 11.566406 24 11.742188 C 24.035156 11.867188 24.035156 11.992188 24.027344 12.121094 C 24.027344 12.355469 24.042969 12.589844 23.980469 12.816406 C 23.949219 13.046875 23.785156 13.527344 23.515625 13.527344 C 23.46875 13.527344 23.421875 13.515625 23.371094 13.484375 C 23.21875 13.359375 23.152344 13.175781 23.070312 13.003906 C 22.882812 12.625 22.855469 12.203125 22.789062 11.792969 C 22.746094 11.394531 22.625 11.007812 22.617188 10.609375 C 22.570312 10.339844 22.484375 10.074219 22.375 9.824219 C 22.371094 9.925781 22.371094 10.027344 22.359375 10.128906 C 22.363281 10.53125 22.417969 10.929688 22.441406 11.332031 C 22.472656 11.84375 22.539062 12.355469 22.503906 12.867188 C 22.519531 13.011719 22.484375 13.234375 22.304688 13.234375 C 22.296875 13.234375 22.292969 13.234375 22.289062 13.234375 C 22.078125 13.175781 22.1875 12.90625 22.160156 12.75 C 22.09375 11.96875 22.09375 11.191406 22.1875 10.414062 C 22.222656 10.132812 22.195312 9.851562 22.21875 9.566406 C 22.226562 9.488281 22.21875 9.394531 22.273438 9.332031 C 22.339844 9.261719 22.429688 9.328125 22.398438 9.410156 C 22.398438 9.417969 22.398438 9.425781 22.394531 9.429688 Z M 16.753906 9.160156 C 16.789062 9.148438 16.824219 9.136719 16.855469 9.128906 C 17.496094 8.992188 17.855469 9.773438 17.773438 10.308594 C 17.703125 10.875 17.414062 11.382812 17.089844 11.84375 C 17.078125 11.871094 16.996094 11.9375 17.058594 11.933594 C 17.289062 12.046875 17.515625 12.167969 17.71875 12.328125 C 17.898438 12.460938 18.03125 12.644531 18.1875 12.800781 C 18.273438 12.910156 18.183594 13.101562 18.046875 13.101562 C 18.039062 13.101562 18.03125 13.101562 18.019531 13.101562 C 17.859375 13.011719 17.726562 12.863281 17.5625 12.773438 C 17.367188 12.660156 17.152344 12.582031 16.953125 12.480469 C 16.925781 12.46875 16.902344 12.457031 16.878906 12.445312 C 16.90625 12.707031 16.929688 12.964844 16.941406 13.222656 C 16.949219 13.378906 16.8125 13.515625 16.679688 13.515625 C 16.613281 13.515625 16.550781 13.484375 16.507812 13.40625 C 16.316406 12.5625 16.484375 11.683594 16.519531 10.828125 C 16.539062 10.449219 16.527344 10.074219 16.519531 9.695312 C 16.53125 9.542969 16.527344 9.386719 16.546875 9.238281 C 16.554688 9.203125 16.570312 9.167969 16.597656 9.144531 C 16.640625 9.105469 16.714844 9.097656 16.75 9.152344 C 16.753906 9.15625 16.753906 9.15625 16.753906 9.160156 Z M 19.28125 13.441406 C 19.148438 13.40625 19.128906 13.257812 19.125 13.140625 C 19.117188 13.019531 19.101562 12.898438 19.089844 12.773438 C 19.019531 12.253906 19.066406 11.730469 19.136719 11.210938 C 19.1875 10.824219 19.171875 10.429688 19.171875 10.042969 C 19.167969 9.828125 19.179688 9.617188 19.179688 9.410156 C 19.179688 9.371094 19.175781 9.328125 19.1875 9.292969 C 19.207031 9.246094 19.265625 9.183594 19.320312 9.207031 C 19.34375 9.214844 19.355469 9.234375 19.359375 9.257812 C 19.363281 9.335938 19.363281 9.414062 19.363281 9.492188 C 19.375 9.976562 19.378906 10.460938 19.386719 10.941406 C 19.410156 11.398438 19.449219 11.855469 19.492188 12.3125 C 19.527344 12.582031 19.539062 12.859375 19.546875 13.132812 C 19.558594 13.269531 19.464844 13.441406 19.316406 13.441406 C 19.304688 13.441406 19.292969 13.441406 19.28125 13.441406 Z M 5.566406 13.378906 C 5.191406 13.273438 5.070312 12.855469 5 12.515625 C 4.90625 12.109375 4.859375 11.695312 4.816406 11.277344 C 4.769531 10.664062 4.660156 10.054688 4.558594 9.445312 C 4.550781 9.390625 4.515625 9.363281 4.511719 9.308594 C 4.515625 9.222656 4.496094 9.113281 4.578125 9.054688 C 4.664062 8.988281 4.789062 9.027344 4.828125 9.125 C 4.855469 9.210938 4.859375 9.304688 4.871094 9.394531 C 4.960938 9.996094 4.976562 10.605469 5.117188 11.199219 C 5.203125 11.667969 5.402344 12.105469 5.523438 12.570312 C 5.5 11.863281 5.667969 11.171875 5.683594 10.464844 C 5.695312 10.019531 5.683594 9.574219 5.726562 9.132812 C 5.738281 9.042969 5.71875 8.929688 5.808594 8.875 C 5.960938 8.808594 6.03125 8.949219 5.992188 9.085938 C 5.945312 9.738281 5.84375 10.386719 5.875 11.042969 C 5.902344 11.445312 5.949219 11.851562 5.953125 12.253906 C 5.929688 12.460938 5.910156 12.667969 5.882812 12.875 C 5.859375 12.980469 5.875 13.085938 5.847656 13.1875 C 5.816406 13.292969 5.714844 13.382812 5.605469 13.382812 C 5.589844 13.382812 5.578125 13.378906 5.566406 13.378906 Z M 10.582031 9.085938 C 10.585938 8.96875 10.773438 8.988281 10.875 9.007812 C 11.125 9.035156 11.378906 9.039062 11.628906 9.039062 C 11.691406 9.035156 11.765625 9.039062 11.808594 9.09375 C 11.890625 9.203125 11.796875 9.355469 11.671875 9.355469 C 11.664062 9.355469 11.65625 9.355469 11.648438 9.355469 C 11.363281 9.300781 11.070312 9.265625 10.78125 9.222656 C 10.789062 9.359375 10.785156 9.5 10.773438 9.636719 C 10.746094 9.886719 10.753906 10.136719 10.761719 10.386719 C 10.785156 10.730469 10.816406 11.070312 10.851562 11.414062 C 10.917969 11.40625 10.984375 11.402344 11.035156 11.394531 C 11.140625 11.382812 11.238281 11.355469 11.339844 11.34375 C 11.570312 11.355469 11.496094 11.6875 11.296875 11.6875 C 11.160156 11.6875 11.019531 11.691406 10.882812 11.695312 C 10.914062 11.992188 10.945312 12.292969 10.972656 12.59375 C 10.984375 12.691406 10.984375 12.800781 11.042969 12.890625 C 11.070312 12.90625 11.109375 12.910156 11.144531 12.914062 C 11.328125 12.921875 11.507812 12.839844 11.683594 12.800781 C 11.789062 12.761719 11.921875 12.78125 11.976562 12.886719 C 12.078125 13.082031 11.90625 13.277344 11.707031 13.296875 C 11.558594 13.335938 11.402344 13.363281 11.246094 13.363281 C 11.125 13.363281 11.007812 13.347656 10.894531 13.3125 C 10.320312 13.144531 10.421875 11.714844 10.445312 11.222656 C 10.496094 10.640625 10.589844 10.058594 10.566406 9.472656 C 10.5625 9.398438 10.589844 9.308594 10.5625 9.242188 C 10.535156 9.203125 10.550781 9.148438 10.566406 9.109375 C 10.570312 9.101562 10.574219 9.09375 10.582031 9.085938 Z M 14.234375 11.742188 C 14.28125 11.503906 14.320312 11.261719 14.359375 11.023438 C 14.414062 10.734375 14.472656 10.449219 14.550781 10.167969 C 14.640625 9.859375 14.707031 9.519531 14.9375 9.277344 C 15.359375 8.875 15.515625 9.683594 15.507812 9.980469 C 15.492188 10.976562 15.234375 11.957031 15.28125 12.960938 C 15.28125 13.011719 15.285156 13.0625 15.261719 13.109375 C 15.230469 13.175781 15.140625 13.234375 15.074219 13.183594 C 14.992188 13.113281 15.035156 12.992188 15.03125 12.898438 C 15.035156 12.640625 15.046875 12.382812 15.058594 12.121094 C 15.066406 12.003906 15.070312 11.890625 15.070312 11.773438 C 15.027344 11.785156 14.980469 11.78125 14.933594 11.785156 C 14.761719 11.796875 14.582031 11.792969 14.414062 11.84375 L 14.410156 11.851562 C 14.28125 12.242188 14.199219 12.644531 14.09375 13.042969 C 14.078125 13.085938 14.074219 13.128906 14.078125 13.175781 C 14.066406 13.242188 14.027344 13.320312 13.957031 13.320312 C 13.949219 13.320312 13.945312 13.320312 13.9375 13.320312 C 13.785156 13.253906 13.976562 12.851562 13.988281 12.71875 C 14.066406 12.472656 14.132812 12.222656 14.1875 11.972656 C 14.152344 11.925781 14.171875 11.835938 14.195312 11.792969 C 14.207031 11.773438 14.21875 11.757812 14.234375 11.742188 Z M 6.996094 11.9375 C 7 11.996094 7.007812 12.054688 7.011719 12.113281 C 7.042969 12.355469 7.027344 12.605469 7.085938 12.839844 C 7.140625 12.953125 7.492188 12.859375 7.601562 12.847656 C 7.6875 12.824219 7.792969 12.8125 7.84375 12.902344 C 7.96875 13.1875 7.605469 13.238281 7.40625 13.269531 C 7.296875 13.289062 7.175781 13.316406 7.0625 13.316406 C 6.945312 13.316406 6.832031 13.289062 6.746094 13.203125 C 6.417969 12.851562 6.742188 10.957031 6.722656 10.359375 C 6.757812 9.925781 6.753906 9.484375 6.824219 9.054688 C 6.875 8.886719 7.03125 8.867188 7.183594 8.90625 C 7.285156 8.925781 7.414062 8.90625 7.496094 8.976562 C 7.546875 9.035156 7.523438 9.128906 7.46875 9.171875 C 7.394531 9.21875 7.308594 9.214844 7.222656 9.207031 C 7.175781 9.207031 7.128906 9.203125 7.085938 9.207031 C 7.0625 9.664062 6.996094 10.117188 6.945312 10.574219 C 6.917969 10.929688 6.9375 11.289062 6.96875 11.648438 C 7.109375 11.628906 7.265625 11.640625 7.375 11.613281 C 7.421875 11.609375 7.472656 11.59375 7.519531 11.605469 C 7.660156 11.652344 7.605469 11.863281 7.480469 11.894531 C 7.320312 11.917969 7.15625 11.921875 6.996094 11.9375 Z M 8.363281 12.171875 C 8.304688 11.636719 8.382812 11.101562 8.472656 10.574219 C 8.574219 10.015625 8.519531 9.3125 9.003906 8.921875 C 9.566406 8.578125 9.550781 9.425781 9.484375 9.765625 C 9.480469 9.800781 9.460938 9.847656 9.417969 9.847656 C 9.324219 9.828125 9.382812 9.671875 9.375 9.605469 C 9.382812 9.476562 9.394531 8.835938 9.152344 9.050781 C 8.972656 9.386719 8.902344 9.785156 8.847656 10.160156 C 8.777344 10.898438 8.933594 11.632812 8.925781 12.375 C 8.9375 12.554688 8.929688 12.753906 9.03125 12.914062 C 9.125 13.050781 9.265625 12.914062 9.308594 12.808594 C 9.503906 12.332031 9.457031 11.773438 9.429688 11.269531 C 9.378906 11.265625 9.320312 11.277344 9.265625 11.289062 C 9.152344 11.308594 9.039062 11.332031 8.957031 11.238281 C 8.863281 11.128906 8.917969 10.953125 9.039062 10.890625 C 9.179688 10.839844 9.335938 10.871094 9.480469 10.875 C 9.625 10.878906 9.75 10.972656 9.757812 11.125 C 9.820312 11.675781 9.765625 13.28125 9 13.289062 C 8.5 13.207031 8.421875 12.582031 8.363281 12.171875 Z M 21.046875 12.183594 C 20.917969 12.199219 20.785156 12.214844 20.652344 12.226562 C 20.585938 12.234375 20.515625 12.238281 20.449219 12.25 C 20.484375 12.070312 20.523438 11.890625 20.558594 11.710938 C 20.726562 11.105469 20.816406 10.480469 20.894531 9.855469 C 20.90625 9.765625 20.917969 9.679688 20.933594 9.589844 C 20.933594 9.578125 20.933594 9.582031 20.933594 9.597656 C 20.9375 9.605469 20.9375 9.617188 20.9375 9.625 C 21.039062 10.476562 21.109375 11.328125 21.046875 12.183594 Z M 15.074219 11.472656 C 14.949219 11.480469 14.824219 11.535156 14.695312 11.5625 C 14.632812 11.582031 14.558594 11.59375 14.488281 11.613281 C 14.554688 11.421875 14.625 11.230469 14.675781 11.03125 C 14.808594 10.589844 14.890625 10.132812 15.042969 9.695312 C 15.042969 10.285156 15.074219 10.878906 15.074219 11.472656 Z M 16.796875 11.59375 L 16.796875 11.554688 C 16.710938 10.859375 16.722656 10.160156 16.757812 9.460938 C 16.753906 9.417969 16.757812 9.363281 16.761719 9.308594 C 16.808594 9.289062 16.867188 9.285156 16.914062 9.277344 C 17.578125 9.21875 17.484375 10.09375 17.375 10.523438 C 17.300781 10.882812 17.144531 11.222656 16.886719 11.492188 C 16.855469 11.527344 16.828125 11.5625 16.796875 11.59375 Z M 16.796875 11.59375 " fill-opacity="1" fill-rule="evenodd"/></svg>